<svg width="29" height="29" viewBox="0 0 29 29" fill="none" xmlns="http://www.w3.org/2000/svg">
<path d="M27.2152 14.7195C27.1643 21.5158 21.6555 26.9414 14.852 26.8959C8.14259 26.8513 2.6565 21.3196 2.68862 14.6321C2.72163 7.7551 8.28267 2.21977 15.0688 2.30942C21.8754 2.39952 27.2665 7.9072 27.2156 14.7191L27.2152 14.7195ZM11.4979 5.63419C9.59474 5.60743 8.02391 7.1079 7.96368 9.00891C7.90212 10.951 9.46046 12.5866 11.4029 12.6191C13.2602 12.6499 14.8881 11.0959 14.9524 9.23059C15.0188 7.30103 13.444 5.66095 11.4979 5.63374V5.63419ZM18.4023 23.5636C20.4014 23.5903 21.9682 22.0743 21.9731 20.1081C21.9776 18.2397 20.4237 16.6397 18.5495 16.584C16.67 16.5282 14.9791 18.1866 14.9764 20.0885C14.9738 21.9922 16.4977 23.5381 18.4023 23.5636ZM6.16131 18.468C6.19388 20.3276 7.80799 21.9168 9.6639 21.9172C11.5693 21.9177 13.1879 20.2562 13.1513 18.3365C13.1138 16.3659 11.5345 14.8828 9.53362 14.9394C7.62997 14.9934 6.12785 16.5657 6.16131 18.468ZM20.214 14.2788C22.1926 14.2994 23.7773 12.7485 23.7706 10.7984C23.7644 8.92327 22.2096 7.37641 20.3055 7.35054C18.3831 7.32423 16.8266 8.80552 16.7784 10.7074C16.728 12.6945 18.2323 14.2588 20.214 14.2788ZM14.8703 13.1459C13.9735 13.2931 13.3779 13.7637 13.3953 14.7414C13.4119 15.6549 13.982 16.1852 14.8488 16.2151C15.8004 16.2477 16.4054 15.6415 16.425 14.7191C16.4447 13.7837 15.8245 13.2686 14.8703 13.1464V13.1459Z" fill="#ED135B"/>
<path d="M23.2342 4.07495C28.9465 5.23822 29.9695 7.00185 28.2313 12.692C27.5166 9.2026 26.0176 6.41843 23.2342 4.07495Z" fill="#ED135B"/>
<path d="M17.161 27.8559C20.4825 27.1908 23.062 25.6716 25.1825 23.255C25.2521 27.3336 22.2822 30.1985 17.161 27.8559Z" fill="#ED135B"/>
<path d="M4.57025 5.89612C5.44958 0.830019 8.15493 -0.640122 12.6533 1.3336C9.46611 1.92861 6.90709 3.41079 4.57025 5.89612Z" fill="#ED135B"/>
<path d="M1.63692 17.051C2.29496 20.2968 3.86535 22.8549 6.299 25.019C0.978427 24.3705 -0.141811 21.0123 1.63692 17.051Z" fill="#ED135B"/>
<path d="M14.8706 13.146C15.8248 13.2682 16.445 13.7833 16.4253 14.7187C16.4057 15.6411 15.8012 16.2477 14.8491 16.2147C13.9823 16.1848 13.4121 15.6545 13.3956 14.741C13.3782 13.7633 13.9738 13.2927 14.8706 13.1455V13.146Z" fill="#ED135B"/>
</svg>
