<svg width="43" height="48" viewBox="0 0 43 48" fill="none" xmlns="http://www.w3.org/2000/svg">
<path d="M9.86752 26.3074C7.18716 28.5975 4.279 33.6946 5.90815 44.9512L1.09809 41.2882L0.168544 42.5323L7.03379 47.8001L12.3016 40.9348L11.0574 40.0053L7.44955 44.6488C6.34847 37.0409 7.33628 31.2707 10.1372 28.1705C10.989 32.9612 13.747 36.6835 16.5448 37.943C18.8318 38.9594 21.1158 38.3118 22.7982 36.2454C25.0117 33.468 25.1834 30.2728 23.2263 27.7028C20.8912 24.7119 15.6296 22.8579 11.3742 25.2175C11.3712 17.5299 15.6196 5.26416 42.3473 1.55441L42.1226 0.00177622C14.308 3.86883 9.45185 17.4114 9.86752 26.3074ZM22.0189 28.6701C22.8973 29.8111 24.0444 32.2606 21.6317 35.3046C20.3477 36.8378 18.8288 37.2954 17.2189 36.5773C14.5989 35.4506 12.1515 31.6834 11.555 27.0143C15.0116 24.6118 19.884 25.9673 22.0189 28.6701Z" fill="white"/>
</svg>
