<svg width="30" height="29" viewBox="0 0 30 29" fill="none" xmlns="http://www.w3.org/2000/svg">
<path d="M0.868454 11.3139C0.841686 11.106 0.843025 10.8986 0.868454 10.6908C0.936266 10.5021 1.05984 10.4776 1.19145 10.6118C1.54702 10.9745 1.9414 11.2956 2.27912 11.6792C2.62755 12.0748 3.0148 12.441 3.39713 12.801C4.13147 13.4923 4.77568 14.2702 5.51894 14.9509C5.64162 15.0633 5.75672 15.1833 5.87272 15.3028C5.96016 15.3925 6.05653 15.4339 6.1801 15.4001C6.40406 15.5044 6.44868 15.7569 6.60928 15.917C8.17342 17.4777 9.73533 19.0411 11.2986 20.6026C11.5266 20.8301 11.8473 20.926 12.0691 21.1606C12.057 21.2837 11.9673 21.2654 11.8683 21.2605C11.9196 21.3587 11.9954 21.4242 12.0646 21.4934C13.1121 22.5425 14.1391 23.6134 15.2179 24.6295C15.8134 25.1906 16.384 25.7753 16.9671 26.3476C17.3285 26.7022 17.705 27.0434 18.0454 27.4194C18.1891 27.5782 18.2917 27.7464 18.0321 27.8994C17.83 27.9712 17.6216 28.0095 17.4079 28.0238C17.5159 27.8222 17.3816 27.7062 17.2562 27.5822C16.3113 26.6473 15.3686 25.7098 14.4269 24.7717C13.523 23.8716 12.6236 22.9657 11.7233 22.0621C10.9693 21.3051 10.2082 20.5549 9.45293 19.7993C8.55844 18.9046 7.66528 18.0076 6.77078 17.1124C5.98648 16.3269 5.1946 15.5481 4.41297 14.7604C3.42524 13.7653 2.43349 12.7747 1.44843 11.7764C1.27265 11.5985 1.0933 11.429 0.868454 11.3143V11.3139Z" fill="#125583"/>
<path d="M0.86862 11.3138C1.027 11.2915 1.14121 11.3593 1.2514 11.4713C2.30695 12.5431 3.36295 13.6145 4.42608 14.6783C5.31656 15.5695 6.22087 16.4464 7.11179 17.3367C7.8787 18.1034 8.63177 18.884 9.39822 19.6511C9.99649 20.2502 10.6104 20.834 11.2095 21.4331C11.9617 22.1851 12.7018 22.9491 13.4545 23.7007C14.3842 24.6298 15.322 25.5504 16.2557 26.476C16.6318 26.8489 16.9963 27.2347 17.384 27.5946C17.5517 27.7507 17.5678 27.8703 17.4081 28.0224C17.1016 28.1031 16.7893 28.1424 16.473 28.1522C16.4609 28.0326 16.5631 28.0201 16.6345 28.0005C16.8571 27.9385 16.8236 27.8275 16.7126 27.6852C16.5198 27.4381 16.2624 27.2583 16.0487 27.0308C15.7445 26.7075 15.409 26.4104 15.094 26.0964C11.0726 22.0883 7.05603 18.0757 3.04842 14.0543C2.42696 13.4307 1.80951 12.8031 1.19162 12.1755C1.09659 12.0792 0.978368 12.0542 0.86862 11.9998C0.841852 11.771 0.842744 11.5417 0.86862 11.3129V11.3138Z" fill="#145282"/>
<path d="M0.868877 12.0008C0.983979 11.9209 1.0964 11.9557 1.17938 12.0405C1.55994 12.4285 1.91283 12.8464 2.31613 13.2086C2.58693 13.4522 2.81847 13.7274 3.07366 13.9821C7.09465 18.0035 11.1116 22.0295 15.1451 26.038C15.6256 26.5153 16.0762 27.0269 16.6071 27.4546C16.7516 27.571 16.9221 27.733 16.9176 27.8962C16.9109 28.125 16.5933 28.0064 16.4737 28.1531C16.4527 28.1549 16.4313 28.1567 16.4103 28.1585C16.1297 27.7004 15.7331 27.3503 15.3303 27.0068C15.2192 26.9122 15.1148 26.8119 15.0122 26.7089C10.8252 22.5228 6.63692 18.3381 2.45309 14.1489C2.07923 13.7746 1.74285 13.3643 1.3623 12.995C1.21731 12.854 1.06517 12.7394 0.869323 12.6868C0.843001 12.4579 0.843893 12.2291 0.869323 12.0003L0.868877 12.0008Z" fill="#1A4E81"/>
<path d="M14.5384 28.2196C14.2239 28.2343 13.9102 28.2414 13.6011 28.1643C13.5743 28.0782 13.6399 28.0617 13.6961 28.0376C13.8326 28.0024 13.9629 28.0639 14.0967 28.0639C14.1672 28.0639 14.2542 28.071 14.2872 27.9912C14.3153 27.9225 14.2453 27.8824 14.2056 27.8382C14.1636 27.7918 14.1181 27.7494 14.074 27.7053C9.8656 23.4978 5.65723 19.2903 1.44887 15.0829C1.39756 15.0316 1.34759 14.978 1.29406 14.9294C1.23383 14.875 1.17628 14.7836 1.0875 14.8148C0.981319 14.8523 1.04779 14.9575 1.03887 15.0338C1.02236 15.1752 1.0411 15.3268 0.930014 15.4433C0.83588 14.9433 0.846141 14.4388 0.86934 13.9339C1.00541 13.8228 1.12185 13.8888 1.23205 13.9776C1.32127 14.0494 1.39801 14.1346 1.47876 14.2153C5.94588 18.6811 10.4126 23.1472 14.8792 27.613C14.96 27.6937 15.0479 27.7691 15.1161 27.8605C15.2491 28.038 15.1871 28.1834 14.9644 28.1995C14.823 28.2098 14.678 28.1544 14.5384 28.2196Z" fill="#20437E"/>
<path d="M14.5384 28.2196C14.662 28.101 14.819 28.1893 14.9546 28.1514C15.1068 28.1094 15.225 28.0506 15.0483 27.8882C15.01 27.853 14.9747 27.815 14.9381 27.778C10.3974 23.2383 5.85666 18.6989 1.31682 14.1583C1.19056 14.032 1.07546 13.8942 0.868454 13.9335C0.841686 13.7675 0.843025 13.6012 0.868454 13.4352C0.960357 13.1547 1.04735 13.1243 1.26596 13.3224C1.66614 13.6855 2.00877 14.1047 2.39378 14.483C2.83724 14.9183 3.26954 15.3652 3.71522 15.7983C4.12388 16.1953 4.51603 16.6083 4.92201 17.0084C5.32041 17.401 5.71747 17.7948 6.10515 18.198C6.54281 18.6534 6.9992 19.0901 7.44623 19.5361C7.87853 19.9675 8.30414 20.4059 8.7476 20.827C9.14555 21.2048 9.5203 21.6066 9.91022 21.9929C10.3296 22.4082 10.753 22.8199 11.1612 23.2454C11.5703 23.6714 11.9981 24.0777 12.4121 24.4983C12.8404 24.9336 13.2691 25.3694 13.7108 25.7923C14.1146 26.179 14.4987 26.5858 14.8953 26.9801C15.146 27.229 15.4333 27.4386 15.6618 27.7093C15.7675 27.8347 15.9076 27.9417 15.8759 28.1357C15.8456 28.2013 15.7679 28.175 15.7238 28.2134C15.3285 28.2388 14.9332 28.2758 14.5375 28.2187L14.5384 28.2196Z" fill="#1F4780"/>
<path d="M15.8482 28.1567C15.7358 27.7584 15.3829 27.563 15.117 27.295C14.8498 27.0251 14.5709 26.7673 14.3028 26.4983C14.1007 26.2954 13.9173 26.0728 13.7077 25.8788C13.2031 25.4113 12.7253 24.9189 12.2515 24.4211C11.8634 24.0135 11.436 23.6432 11.0371 23.2454C10.6307 22.8399 10.2524 22.4055 9.83256 22.0148C9.57648 21.7766 9.34182 21.5192 9.08663 21.2815C8.831 21.0433 8.58027 20.7989 8.33891 20.546C8.09934 20.2944 7.86155 20.0428 7.60369 19.8087C7.33824 19.5673 7.11116 19.285 6.8524 19.0361C6.60792 18.8006 6.36344 18.5673 6.13457 18.3162C5.86555 18.0209 5.54122 17.7819 5.28558 17.4696C5.11784 17.2649 4.91306 17.0878 4.72301 16.9027C4.23093 16.4232 3.74464 15.9393 3.26996 15.4419C2.88093 15.0347 2.4455 14.6721 2.0596 14.2622C1.79014 13.9758 1.51978 13.6899 1.25121 13.4031C1.09551 13.2372 0.976837 13.1921 0.869765 13.4361C0.842551 13.1863 0.84389 12.937 0.869765 12.6872C1.06562 12.5744 1.18027 12.7153 1.29627 12.8304C1.68619 13.218 2.04979 13.6319 2.43703 14.0204C6.66235 18.2622 10.897 22.4951 15.1393 26.7205C15.4837 27.0635 15.8518 27.3846 16.1989 27.7267C16.3207 27.8472 16.4202 27.9756 16.4112 28.1585L16.3501 28.1634C16.1846 28.0644 16.0155 28.2285 15.8495 28.1567H15.8482Z" fill="#1B4B80"/>
<path d="M0.929594 15.4432C0.915764 15.2496 0.987591 15.0623 0.944763 14.8611C0.905949 14.68 1.03533 14.6439 1.17631 14.7228C1.25527 14.767 1.31594 14.8455 1.38197 14.9115C5.66663 19.1948 9.95173 23.4781 14.2337 27.7641C14.3158 27.8466 14.5005 27.9389 14.4273 28.0411C14.3515 28.1472 14.1628 28.1758 14.0008 28.1374C13.9112 28.1165 13.8179 28.1089 13.7265 28.0955C13.5766 27.8957 13.4021 27.7181 13.2254 27.542C9.29413 23.6128 5.36281 19.6832 1.43506 15.751C1.29052 15.6064 1.15712 15.4829 0.936732 15.5556L0.929148 15.4432H0.929594Z" fill="#23407D"/>
<path d="M0.868437 2.20659C0.845685 1.95636 0.840777 1.70658 0.872006 1.4568C1.0054 1.17268 1.07678 1.1584 1.33063 1.33905C1.66389 1.57634 1.89454 1.91622 2.19568 2.18563C2.66635 2.60624 3.09062 3.07503 3.53899 3.51883C3.95746 3.93276 4.38307 4.34177 4.78503 4.77354C5.17272 5.18969 5.5961 5.57106 5.99316 5.97918C6.38977 6.38686 6.78995 6.79142 7.20128 7.18393C7.65054 7.61257 8.07749 8.06307 8.51916 8.4984C8.93852 8.91143 9.36235 9.32223 9.76565 9.75221C10.1547 10.1675 10.5754 10.5515 10.9738 10.9579C11.3646 11.3566 11.7621 11.7496 12.16 12.1416C12.5651 12.5413 12.9568 12.9548 13.3642 13.3517C13.5457 13.5284 13.6974 13.7166 13.8201 13.9338C13.7643 14.1435 13.6296 14.2746 13.4226 14.3344C13.3468 14.3223 13.2874 14.2817 13.2428 14.2215C12.9002 13.7608 12.4719 13.3803 12.069 12.9766C8.47276 9.37799 4.87426 5.78159 1.27665 2.18385C1.1669 2.07412 1.04555 1.97376 0.972832 1.84397C0.99157 1.97466 1.08972 2.13299 0.868437 2.20659Z" fill="#008793"/>
<path d="M14.2681 0.136555C14.3319 0.0245993 14.4421 0.0410999 14.5442 0.0388697C15.0011 0.0277187 15.4575 0.0286141 15.9112 0.0923975C16.0178 0.193202 16.1695 0.109347 16.2832 0.181605C16.4126 0.38366 16.5777 0.554047 16.7468 0.722649C20.6536 4.62682 24.5599 8.53143 28.4631 12.4387C28.6572 12.6332 28.915 12.7759 29.0087 13.0601C29.0877 13.7461 29.1064 14.4325 29.011 15.119C28.9739 15.1373 28.9431 15.1292 28.9195 15.0958C28.8218 14.8612 28.8776 14.6149 28.8651 14.3741C28.9231 13.9637 28.8334 13.6395 28.5006 13.3295C27.7716 12.651 27.0841 11.9271 26.3823 11.2193C25.5052 10.3343 24.6228 9.45428 23.7435 8.57157C22.9815 7.80662 22.2146 7.04612 21.4499 6.28384C20.5603 5.39668 19.6694 4.5104 18.7856 3.61699C18.3622 3.18924 17.9397 2.7597 17.507 2.34087C16.9101 1.76325 16.3279 1.17002 15.7372 0.585712C15.4494 0.30114 15.1443 0.189185 14.7606 0.22353C14.6883 0.230221 14.6152 0.230222 14.542 0.230222C14.4421 0.223977 14.3377 0.229776 14.2681 0.136108V0.136555Z" fill="#00D9AC"/>
<path d="M0.946003 1.0821C1.07538 0.664604 1.33771 0.369326 1.74592 0.206523C2.10104 0.0526396 2.28485 0.292611 2.50211 0.510277C6.42852 4.44388 10.3594 8.37258 14.2912 12.3004C14.4848 12.4935 14.6432 12.7237 14.8801 12.8731C14.8078 13.1068 14.6543 13.2603 14.4205 13.333C14.2042 13.2442 14.1212 13.0239 13.9686 12.8718C9.93423 8.8436 5.90298 4.81231 1.87039 0.782359C1.74949 0.661483 1.63751 0.492882 1.42381 0.622233C1.34128 0.676203 1.27971 0.7498 1.23064 0.834547C1.13829 0.920187 1.15881 1.13607 0.945557 1.08254L0.946003 1.0821Z" fill="#009196"/>
<path d="M0.937411 15.5555C1.08731 15.337 1.20509 15.4137 1.36124 15.5702C5.41167 19.6274 9.46701 23.6801 13.521 27.7341C13.6218 27.8349 13.7521 27.9215 13.7267 28.095C13.6731 28.0968 13.6259 28.1097 13.6009 28.1637C13.2819 28.1668 12.9692 28.124 12.6609 28.0432C12.8103 27.8537 12.7331 27.7288 12.5766 27.5727C8.89195 23.8987 5.21225 20.2206 1.5388 16.5355C1.36436 16.3606 1.2381 16.3165 1.06054 16.4913C0.978455 16.1849 0.933396 15.8731 0.936965 15.5555H0.937411Z" fill="#243C7C"/>
<path d="M0.94566 1.0822C1.1027 1.0376 1.08352 0.857848 1.18479 0.770425C1.3048 0.681663 1.39938 0.745895 1.49039 0.822613C1.5698 0.889965 1.64073 0.965791 1.71435 1.03939C5.71303 5.03722 9.71037 9.03595 13.7144 13.0284C13.8523 13.1658 13.9259 13.3982 14.1744 13.4071C14.2056 13.4111 14.2306 13.4259 14.2498 13.4508C14.211 13.7216 14.0615 13.8844 13.788 13.9281C13.5734 13.8331 13.5333 13.5882 13.3588 13.4406C13.1045 13.2251 12.8391 13.003 12.6473 12.7167C12.4965 12.4914 12.2507 12.3652 12.0709 12.1591C11.7086 11.743 11.2589 11.404 10.8917 10.9914C10.488 10.5373 9.99813 10.1707 9.62427 9.68806C9.46143 9.47753 9.23614 9.32365 9.04921 9.13007C8.33049 8.38429 7.55332 7.69427 6.84264 6.94091C6.43398 6.50781 6.00346 6.09433 5.58633 5.67149C5.17767 5.25712 4.77437 4.83026 4.3376 4.43909C3.90262 4.0497 3.52118 3.60098 3.10762 3.18661C2.71636 2.79499 2.31796 2.41051 1.91555 2.03048C1.70587 1.83244 1.54392 1.59515 1.31327 1.41004C1.10939 1.24635 1.00098 1.25973 0.872941 1.45732C0.853757 1.32396 0.889002 1.2013 0.946107 1.0831L0.94566 1.0822Z" fill="#008B94"/>
<path d="M29.0091 13.0606C28.8422 12.9022 28.6713 12.747 28.5085 12.5846C24.5098 8.58813 20.5116 4.59074 16.5142 0.592457C16.4072 0.485408 16.2599 0.397987 16.2854 0.209759C16.351 0.117875 16.4625 0.218677 16.5339 0.150879L16.5977 0.153558C16.7132 0.236521 16.843 0.219569 16.9724 0.20708L17.034 0.214218C17.2169 0.600933 17.5595 0.846251 17.8415 1.14822C18.3581 1.70131 18.906 2.22406 19.4391 2.75931C19.9352 3.25753 20.4362 3.75487 20.9336 4.25265C21.4315 4.75042 21.9307 5.24909 22.4282 5.74643C22.9256 6.24376 23.4239 6.74377 23.9227 7.24065C24.4139 7.7304 24.9051 8.22328 25.3954 8.71302C25.9299 9.24693 26.4688 9.77994 27.0015 10.3161C27.4391 10.7563 27.9263 11.1502 28.3109 11.643C28.3559 11.7006 28.4068 11.755 28.4697 11.7916C28.7213 11.9392 28.8949 12.1422 28.9457 12.4365C28.9966 12.6413 29.0251 12.8487 29.0082 13.0606H29.0091Z" fill="#00DDAD"/>
<path d="M11.6062 0.461817C11.8056 0.38376 12.0121 0.336926 12.2263 0.328005C12.6693 0.198208 12.9352 0.430597 13.2225 0.737917C13.9033 1.46674 14.6073 2.17728 15.3358 2.85838C16.9464 4.36421 18.4744 5.95255 20.0229 7.51992C20.1474 7.64615 20.3678 7.55605 20.4186 7.76078C20.1251 7.96596 19.8293 8.16846 19.4835 8.27997C18.3044 6.97085 17.0378 5.74558 15.769 4.52701C14.527 3.33385 13.3251 2.1019 12.1005 0.892244C11.943 0.736577 11.7257 0.655843 11.6057 0.461817H11.6062Z" fill="#00C6A6"/>
<path d="M14.8487 12.8669C14.7581 12.8535 14.6533 12.9262 14.5962 12.7643C14.5547 12.6466 14.4347 12.5533 14.3401 12.4588C10.3972 8.51491 6.4534 4.57194 2.50959 0.628962C2.29544 0.414864 2.11119 0.146797 1.74536 0.207012C1.8734 0.107992 2.02196 0.0754338 2.17989 0.0763259C2.67465 0.0464414 2.99498 0.304695 3.30727 0.664647C3.68559 1.10043 4.11343 1.49651 4.53101 1.89794C4.95618 2.30696 5.35814 2.73828 5.7842 3.14596C6.21695 3.56077 6.64077 3.98585 7.05657 4.41761C7.46567 4.84224 7.89128 5.25036 8.30529 5.66964C8.73358 6.10363 9.15963 6.5412 9.6022 6.96181C10.0068 7.3463 10.3878 7.75531 10.7858 8.14738C11.2056 8.56085 11.6272 8.97344 12.0354 9.39762C12.4445 9.82225 12.8723 10.2277 13.2846 10.6488C13.7115 11.0845 14.1461 11.5132 14.5788 11.9432C14.7871 12.1501 15.0459 12.3232 15.1383 12.6278C15.0901 12.7665 15.0379 12.9004 14.8483 12.8673L14.8487 12.8669Z" fill="#009496"/>
<path d="M15.0983 12.6175C14.9132 12.3994 14.7454 12.1644 14.5148 11.9891C14.2337 11.7754 14.0419 11.4748 13.7715 11.2469C13.4672 10.9904 13.1768 10.708 12.927 10.3994C12.691 10.1081 12.3698 9.91187 12.1453 9.60856C11.9892 9.39714 11.7777 9.22051 11.5832 9.04165C11.2723 8.75574 11.0113 8.41987 10.6936 8.14868C10.2618 7.78026 9.91067 7.33555 9.48417 6.964C9.21381 6.7285 8.98272 6.44839 8.73065 6.19192C8.5 5.9573 8.26846 5.72179 8.03468 5.49297C7.58052 5.04783 7.15357 4.57369 6.68647 4.14683C6.26845 3.76502 5.90262 3.33594 5.48102 2.95814C5.01526 2.5411 4.59634 2.07097 4.16716 1.61423C4.0128 1.44964 3.8406 1.29799 3.67954 1.14634C3.43015 0.91172 3.20753 0.65614 2.97331 0.409927C2.80378 0.231958 2.59812 0.126694 2.34739 0.165499C2.25326 0.179772 2.21132 0.152118 2.1792 0.0762916C2.55395 -0.0320956 2.88632 0.0977016 3.20486 0.271656C3.39313 0.374691 3.56801 0.500919 3.74914 0.616889C3.86513 0.769434 4.04314 0.842138 4.19616 0.93982C4.52585 1.15035 4.75383 1.459 5.02285 1.72797C8.33939 5.04247 11.655 8.35788 14.9703 11.6733C15.1603 11.8633 15.3615 12.0466 15.4481 12.3147C15.3874 12.4806 15.3178 12.6363 15.0978 12.618L15.0983 12.6175Z" fill="#009797"/>
<path d="M17.842 0.348877C18.0093 0.388128 18.177 0.42738 18.3443 0.466632C18.488 0.60981 18.7169 0.550928 18.8645 0.684739C18.9444 0.844421 19.059 0.976006 19.1848 1.10179C22.1235 4.03761 25.0613 6.97387 27.9964 9.91326C28.1441 10.0613 28.3136 10.1787 28.4738 10.3089C28.5746 10.5101 28.546 10.7549 28.6884 10.9418C28.778 11.2683 28.8574 11.5966 28.8789 11.9365C28.7093 12.0101 28.7075 11.866 28.6933 11.7768C28.6527 11.5252 28.5286 11.3343 28.323 11.1889C28.2556 11.1412 28.2025 11.0747 28.1436 11.0163C24.7874 7.66077 21.4311 4.30523 18.0749 0.949689C17.987 0.861819 17.8844 0.78287 17.829 0.670468C17.7786 0.566988 17.6832 0.449235 17.8415 0.348877H17.842Z" fill="#00E4AF"/>
<path d="M0.868469 2.20665C0.997401 2.10228 0.893899 1.94706 0.954573 1.82217C1.07547 1.82038 1.12187 1.92788 1.19013 1.99567C5.07817 5.87933 8.96443 9.76432 12.848 13.652C13.0506 13.8545 13.2254 14.0846 13.4133 14.3019C13.4311 14.5177 13.2834 14.5891 13.1157 14.6435C12.9877 14.6074 12.9136 14.5017 12.8266 14.4147C12.1271 13.718 11.4302 13.0191 10.7311 12.3223C10.637 12.2287 10.5553 12.1123 10.405 12.0993C10.2654 12.0476 10.1476 11.9695 10.0802 11.8299C10.0914 11.6064 9.94503 11.4726 9.80361 11.3317C7.02688 8.55734 4.25194 5.78209 1.47566 3.00774C1.34494 2.87705 1.22136 2.73833 1.08217 2.62727C0.93182 2.70175 1.09198 2.94663 0.868469 2.9551V2.20665Z" fill="#008391"/>
<path d="M1.06073 16.4915C1.16453 16.2432 1.31354 16.216 1.50775 16.4099C5.24367 20.1445 8.97958 23.8797 12.715 27.6148C12.8908 27.7905 12.8728 27.9334 12.6611 28.0434C12.3416 28.0193 12.028 27.9649 11.7255 27.8561C11.7081 27.658 11.9232 27.8097 11.978 27.6505C8.42682 24.0969 4.85955 20.525 1.25391 16.9308C1.28603 17.0562 1.30521 17.1298 1.18163 17.1159C1.10311 16.9152 1.06385 16.7069 1.06073 16.4915Z" fill="#26387B"/>
<path d="M1.18135 17.1164C1.33973 16.8354 1.50614 17.0366 1.60473 17.145C2.05444 17.6383 2.56035 18.0759 3.01183 18.562C3.40309 18.9835 3.82067 19.3787 4.22219 19.7873C4.65985 20.2324 5.0868 20.6914 5.56014 21.1053C5.98263 21.4751 6.33909 21.9194 6.73704 22.3177C7.14257 22.7236 7.59183 23.0898 7.97015 23.5184C8.3449 23.943 8.783 24.2999 9.15418 24.7263C9.3893 24.9966 9.66991 25.2263 9.92555 25.4796C10.166 25.7183 10.398 25.964 10.6456 26.1969C11.0712 26.5965 11.4593 27.0354 11.8787 27.4426C11.9786 27.5394 12.1169 27.6237 12.083 27.7598C12.0358 27.9498 11.8716 27.7709 11.7681 27.8142C11.7507 27.8213 11.7391 27.8418 11.7248 27.8566C11.4669 27.8276 11.218 27.7656 10.9806 27.6603C11.0583 27.4855 10.9936 27.365 10.862 27.2339C7.85282 24.233 4.84856 21.2271 1.84252 18.223C1.76936 18.1499 1.70021 18.0709 1.5976 18.0286C1.47803 18.087 1.69798 18.281 1.49052 18.3033C1.36025 18.0045 1.28173 17.6914 1.23667 17.3693C1.24917 17.2993 1.22909 17.2369 1.19028 17.1793L1.18091 17.1164H1.18135Z" fill="#27347A"/>
<path d="M17.8425 0.348934C17.7805 0.523781 17.8733 0.642427 17.987 0.756167C21.445 4.21251 24.8994 7.67243 28.3663 11.1194C28.5835 11.3353 28.7575 11.5333 28.7718 11.8442C28.7745 11.9067 28.8258 11.9263 28.8793 11.937C28.9132 12.102 28.9681 12.2639 28.9463 12.4361C28.6581 11.941 28.195 11.6047 27.7952 11.2189C27.3366 10.7755 26.8976 10.3098 26.4435 9.86292C26.0125 9.43874 25.5606 9.02927 25.1608 8.56941C24.9596 8.33836 24.7508 8.10464 24.4921 7.92711C24.2333 7.74914 24.091 7.46011 23.8487 7.25806C23.3352 6.82941 22.8931 6.32138 22.422 5.84813C21.8853 5.30887 21.3495 4.7647 20.807 4.23124C20.3524 3.78431 19.9085 3.32311 19.4548 2.87573C19.0243 2.45111 18.5714 2.04254 18.1722 1.58222C17.9714 1.35073 17.7515 1.13039 17.5065 0.935916C17.275 0.752149 17.0399 0.552325 17.0336 0.212891C17.3089 0.222703 17.5757 0.283366 17.842 0.348041L17.8425 0.348934Z" fill="#00E0AE"/>
<path d="M15.4098 12.3058C15.214 12.0091 14.9592 11.7656 14.7098 11.5163C11.4598 8.26779 8.20747 5.02152 4.96453 1.7659C4.59558 1.39568 4.26143 0.992907 3.8037 0.7235C3.7747 0.70655 3.76711 0.65303 3.74927 0.616455C4.69239 1.18917 5.56146 1.86625 6.45015 2.51613C6.54161 2.58303 6.6411 2.6379 6.73702 2.69856C6.81643 2.83371 6.92528 2.94432 7.03548 3.05449C9.86842 5.8855 12.7009 8.71695 15.5316 11.5502C15.6463 11.6648 15.7962 11.7585 15.8225 11.9413C15.7435 12.1291 15.6565 12.308 15.4098 12.3058Z" fill="#009B99"/>
<path d="M20.4037 7.7544C20.1195 7.77001 19.9821 7.55949 19.8095 7.38598C18.4693 6.03805 17.1456 4.67184 15.7706 3.36004C14.877 2.50722 14.012 1.62629 13.1309 0.761424C12.8935 0.528592 12.716 0.202539 12.2961 0.382738C12.2836 0.388091 12.2506 0.346609 12.227 0.326983C12.5955 0.22038 12.9711 0.161499 13.3544 0.149902C13.4324 0.21324 13.5297 0.145445 13.6109 0.186927C14.3555 0.938055 15.0943 1.69409 15.8692 2.41622C16.6656 3.15843 17.4182 3.94792 18.186 4.7209C18.9315 5.47158 19.6801 6.21914 20.4323 6.96268C20.654 7.18213 20.8115 7.48232 21.1461 7.57732C21.1889 7.58937 21.1523 7.64736 21.118 7.67456C20.8824 7.72497 20.6562 7.85699 20.4037 7.7544Z" fill="#00CCA8"/>
<path d="M2.67125 21.0504C2.24831 20.3635 1.91639 19.6346 1.67682 18.8643C1.78255 18.7274 1.90212 18.7394 2.02792 18.8322C2.06986 18.863 2.10689 18.8996 2.14347 18.9361C4.80019 21.5914 7.45736 24.2462 10.1109 26.9042C10.2533 27.0464 10.3862 27.2008 10.2296 27.4171C9.54213 27.2061 8.88899 26.9171 8.27244 26.5469C8.43438 26.4041 8.55484 26.6111 8.77701 26.5893C6.67885 24.4915 4.61415 22.4273 2.53205 20.3456C2.54633 20.5419 2.64403 20.6757 2.70649 20.8238C2.73638 20.8947 2.84613 21.0017 2.6708 21.0499L2.67125 21.0504Z" fill="#292C77"/>
<path d="M2.67129 21.0504C2.69806 20.781 2.45447 20.6057 2.42859 20.3537C2.42368 20.3064 2.36881 20.2658 2.40985 20.2065C2.52674 20.1744 2.56868 20.2805 2.62757 20.3394C4.66505 22.3724 6.70031 24.4077 8.73378 26.4448C8.79356 26.5045 8.92428 26.559 8.86628 26.6598C8.79445 26.7842 8.68381 26.6905 8.59235 26.6522C8.48841 26.6085 8.3974 26.5282 8.27292 26.5474C7.01706 25.918 5.92493 25.0661 4.94032 24.0745C4.04493 23.1726 3.26331 22.182 2.67173 21.0508L2.67129 21.0504Z" fill="#2A2776"/>
<path d="M27.9367 8.63544C28.0772 8.92849 28.2075 9.22555 28.2726 9.54625C28.2904 9.58862 28.298 9.63233 28.2878 9.67828C28.2637 9.70325 28.2164 9.71307 28.2088 9.69077C28.0888 9.34107 27.7502 9.197 27.5142 8.95971C25.3014 6.73532 23.0783 4.52164 20.8637 2.29903C20.592 2.02605 20.2761 1.80348 20.016 1.51891C19.925 1.41944 19.8188 1.33247 19.7787 1.19598C19.7983 1.10499 19.6373 0.917652 19.9045 0.957349C20.1905 1.02649 20.4559 1.14691 20.7151 1.28206C20.7486 1.30704 20.6986 1.28608 20.7352 1.3057C21.3696 1.64246 21.7608 2.24283 22.2694 2.71607C22.8387 3.24597 23.3758 3.80753 23.9233 4.35928C24.7187 5.16125 25.5249 5.95297 26.3185 6.75718C26.687 7.13096 27.0315 7.54042 27.4767 7.8357C27.5967 7.91509 27.6293 8.05559 27.6882 8.17424C27.7658 8.3308 27.8117 8.50386 27.9362 8.635L27.9367 8.63544Z" fill="#00EBB1"/>
<path d="M0.869385 2.95507C0.91489 2.92207 0.925151 2.87434 0.936305 2.82171C0.960842 2.70797 0.860462 2.53669 1.00813 2.49119C1.10896 2.45997 1.18569 2.61341 1.26466 2.69236C4.16496 5.58982 7.06393 8.48817 9.9629 11.3874C10.0825 11.507 10.2524 11.614 10.0941 11.8192C9.78668 11.8491 9.55112 11.664 9.29147 11.5511C9.23258 11.4869 9.15674 11.4427 9.08937 11.3883C9.01308 11.2648 8.93278 11.1461 8.82838 11.0417C6.28721 8.50334 3.74694 5.96315 1.20666 3.42386C1.17008 3.38728 1.13662 3.34714 1.08308 3.32305C0.946566 3.31101 1.03758 3.56124 0.869831 3.51708V2.95552L0.869385 2.95507Z" fill="#008090"/>
<path d="M7.02653 2.50722C7.13315 2.39883 7.25182 2.30829 7.39771 2.25922C7.49184 2.22755 7.58196 2.18875 7.66048 2.12675C7.739 2.06029 7.82377 2.00677 7.92994 1.99829C8.06825 2.05895 8.15569 2.17893 8.25741 2.28063C10.555 4.57594 12.8499 6.87393 15.1497 9.16701C15.59 9.60591 16.0741 9.99976 16.4984 10.4561C16.6322 10.5997 16.7812 10.7335 16.8209 10.94C16.754 11.1421 16.6313 11.287 16.4145 11.3348C13.6043 8.51445 10.783 5.70442 7.96876 2.88724C7.89559 2.81365 7.81752 2.74451 7.74926 2.66645C7.59356 2.48804 7.43162 2.36449 7.1916 2.53532C7.14118 2.57145 7.07203 2.56966 7.02563 2.50766L7.02653 2.50722Z" fill="#00A69C"/>
<path d="M7.92396 2.01844C7.84054 2.05992 7.75756 2.10185 7.67413 2.14333C7.64335 2.17277 7.61569 2.16965 7.59204 2.13397C7.94805 1.88285 8.3237 1.66696 8.73102 1.50996C8.84969 1.48855 8.92018 1.55992 8.99602 1.63663C10.789 3.44576 12.6017 5.23527 14.3938 7.04573C15.2785 7.93959 16.2283 8.76655 17.0942 9.67914C17.2579 9.85176 17.4359 10.0146 17.5078 10.2536C17.4422 10.4557 17.3182 10.5989 17.1036 10.6484C16.8131 10.4147 16.5941 10.1105 16.3327 9.8473C15.924 9.43605 15.4971 9.04398 15.088 8.63363C13.0009 6.53948 10.9077 4.45113 8.81712 2.36011C8.56996 2.113 8.3585 1.77535 7.92396 2.01799V2.01844Z" fill="#00AD9E"/>
<path d="M27.9371 8.6354C27.9077 8.63853 27.8546 8.64968 27.8528 8.64388C27.5882 7.84057 26.8338 7.46902 26.319 6.88738C25.8193 6.32225 25.2688 5.80975 24.7357 5.28031C24.2752 4.82312 23.8202 4.35924 23.3558 3.90607C22.9596 3.5198 22.5608 3.12996 22.1829 2.72184C21.9375 2.45644 21.6431 2.23343 21.4173 1.95421C21.2094 1.69684 20.9609 1.49478 20.716 1.28247C23.0337 2.30211 24.9132 3.86236 26.4011 5.90119C27.0207 6.7509 27.5481 7.65546 27.9371 8.63585V8.6354Z" fill="#00EFB2"/>
<path d="M15.7842 11.9311C15.7012 11.8392 15.6218 11.7433 15.5339 11.6559C12.6568 8.77757 9.77789 5.90107 6.90301 3.02056C6.81914 2.93626 6.64827 2.87872 6.73705 2.69852C6.77185 2.67711 6.80664 2.6557 6.84189 2.63429C7.0538 2.50226 7.19121 2.56872 7.37546 2.73911C7.96837 3.28774 8.52425 3.87338 9.09307 4.44476C9.51556 4.86939 9.94206 5.29312 10.3623 5.71953C10.9062 6.27128 11.4616 6.81455 12.0085 7.36452C12.4458 7.80431 12.8914 8.23697 13.3255 8.68033C13.7297 9.09381 14.1478 9.49658 14.5537 9.90917C15.0971 10.4614 15.6829 10.9707 16.1928 11.5564C16.1277 11.7584 16.0327 11.9284 15.7846 11.9311H15.7842Z" fill="#009F9A"/>
<path d="M10.2301 27.4176C10.2649 27.2138 10.1797 27.0697 10.0351 26.9261C7.38732 24.286 4.74309 21.6423 2.10199 18.9955C1.97439 18.8675 1.86063 18.773 1.67682 18.8644C1.58537 18.6869 1.53094 18.4978 1.49123 18.3033C1.58224 18.1864 1.38595 18.008 1.52157 17.9465C1.69601 17.868 1.78791 18.0656 1.89231 18.1695C4.91842 21.1909 7.94231 24.2146 10.9657 27.2383C11.0978 27.3708 11.3146 27.5068 10.9814 27.6598C10.7186 27.6183 10.4683 27.5363 10.2305 27.4176H10.2301Z" fill="#283078"/>
<path d="M17.4695 10.2469C16.8855 9.51717 16.2163 8.87131 15.5118 8.25979C15.4806 8.23258 15.4516 8.2027 15.4222 8.17326C13.2392 5.98455 11.0563 3.79629 8.87248 1.60848C8.83233 1.56833 8.7788 1.54247 8.73151 1.50946C8.80155 1.44166 8.88498 1.40107 8.98134 1.38591C9.23787 1.26815 9.41632 1.36851 9.60503 1.55808C11.444 3.40824 13.2847 5.25662 15.1389 7.09206C15.9486 7.89359 16.7547 8.69869 17.5779 9.48684C17.6956 9.59969 17.8174 9.71745 17.8786 9.87757C17.8076 10.0729 17.7162 10.2456 17.4695 10.246V10.2469Z" fill="#00B0A0"/>
<path d="M16.1595 11.5568C15.6536 11.1197 15.2008 10.6264 14.7158 10.1687C14.2755 9.75303 13.899 9.27265 13.4154 8.9011C13.2039 8.7383 13.0553 8.51037 12.8586 8.32571C12.2541 7.75746 11.7111 7.12409 11.108 6.55405C10.5186 5.9974 9.9498 5.41978 9.37696 4.8484C8.8193 4.29175 8.23665 3.75561 7.72092 3.15658C7.55942 2.9688 7.31806 2.87111 7.1869 2.64319C7.10481 2.50001 6.95893 2.66014 6.84204 2.63472C6.88799 2.56915 6.94822 2.52499 7.02674 2.50715C7.46975 2.19314 7.70843 2.51294 7.98726 2.7935C10.391 5.20746 12.8015 7.61473 15.2128 10.0211C15.4689 10.2767 15.7419 10.5162 16.0114 10.758C16.1845 10.9132 16.3192 11.0934 16.4085 11.3079C16.4209 11.4868 16.3384 11.5706 16.1591 11.5573L16.1595 11.5568Z" fill="#00A29B"/>
<path d="M9.54322 1.13892C9.92332 0.951142 10.3159 0.79815 10.7313 0.708496C10.7687 0.730798 10.8129 0.743737 10.8424 0.778974C10.9427 0.912339 11.0619 1.02831 11.1796 1.14606C12.5256 2.49131 13.8484 3.8602 15.2238 5.17467C16.3289 6.23089 17.3978 7.32235 18.4882 8.39239C18.6354 8.53691 18.7947 8.67429 18.8763 8.87367C18.8464 9.06056 18.7219 9.16047 18.5564 9.22381C18.386 9.24789 18.2874 9.13147 18.1897 9.02576C17.5486 8.33083 16.8669 7.67739 16.1888 7.01859C14.34 5.22284 12.5211 3.39632 10.713 1.56043C10.3784 1.22055 10.0777 0.990392 9.60166 1.23214C9.55571 1.21832 9.51868 1.19825 9.54322 1.13937V1.13892Z" fill="#00BAA2"/>
<path d="M10.794 0.770818C10.7731 0.749855 10.7525 0.72889 10.7316 0.708372C11.0108 0.582589 11.304 0.506316 11.606 0.462158C11.8233 0.518805 11.974 0.668677 12.1271 0.822114C13.2188 1.91803 14.2877 3.03847 15.4142 4.09737C16.7227 5.32709 17.9571 6.62997 19.2469 7.87798C19.3611 7.9886 19.4561 8.10056 19.4695 8.2647C19.457 8.46542 19.3361 8.55953 19.1505 8.59031C18.8133 8.36015 18.5581 8.04034 18.2739 7.75488C15.9866 5.45778 13.676 3.18344 11.3963 0.878761C11.2892 0.770374 11.1835 0.726213 11.0354 0.769032C10.9578 0.791334 10.8743 0.818099 10.7931 0.771711L10.794 0.770818Z" fill="#00C1A4"/>
<path d="M9.54382 1.13887C9.56568 1.16162 9.58709 1.18437 9.60895 1.20757C9.89537 1.10185 10.0314 1.34137 10.1769 1.48857C11.0143 2.33648 11.8695 3.16701 12.706 4.01537C13.5938 4.91592 14.4754 5.82361 15.3864 6.69918C16.2104 7.49135 17.0098 8.30759 17.8298 9.10422C17.9699 9.24026 18.1225 9.37095 18.1912 9.56542C18.1381 9.73849 18.0654 9.88925 17.8446 9.87274C17.4636 9.45837 17.0357 9.09128 16.6556 8.67335C16.2621 8.24069 15.8057 7.86602 15.3904 7.4521C13.4622 5.53056 11.538 3.60546 9.61609 1.67769C9.43585 1.49659 9.27614 1.3048 8.98169 1.38643C9.15256 1.26644 9.34663 1.1982 9.54382 1.13843V1.13887Z" fill="#00B3A1"/>
<path d="M9.10989 11.3757C9.19957 11.3757 9.29058 11.3735 9.29682 11.4993C9.24284 11.5599 9.16923 11.5742 9.09696 11.5608C8.77529 11.5001 8.45497 11.5439 8.13465 11.5657C7.93969 11.5398 7.7822 11.4698 7.70681 11.2637C7.67156 11.1683 7.57698 11.1036 7.50382 11.03C5.43287 8.95907 3.36148 6.88812 1.2892 4.81806C1.21781 4.74669 1.15803 4.65659 1.05542 4.6267C0.955042 4.66149 1.03222 4.85463 0.869385 4.82653V4.07808C0.945227 3.73641 1.04248 3.70965 1.32221 3.95587C1.39984 4.02456 1.47122 4.10038 1.54438 4.17353C3.72285 6.35154 5.90176 8.52954 8.08022 10.708C8.14625 10.774 8.22209 10.8329 8.27518 10.9087C8.42553 11.1237 8.6129 11.266 8.88683 11.2771C8.96802 11.2803 9.04922 11.3124 9.11034 11.3757H9.10989Z" fill="#007A8E"/>
<path d="M9.10942 11.3758C8.7717 11.3481 8.50179 11.2665 8.22921 10.9891C5.93207 8.64959 3.60415 6.33956 1.28382 4.02284C1.03934 3.77841 1.00945 3.78778 0.868469 4.0786C0.868469 3.89126 0.868469 3.70437 0.868469 3.51703C1.00945 3.43719 0.850624 3.1941 1.00365 3.18117C1.15489 3.16823 1.24233 3.35869 1.34985 3.46619C3.86157 5.97381 6.37151 8.48322 8.88056 10.9935C8.98718 11.1006 9.13441 11.188 9.10898 11.3758H9.10942Z" fill="#007E8F"/>
<path d="M13.6019 0.209289C13.5167 0.200368 13.4208 0.237387 13.3539 0.150856C13.6577 0.0959929 13.9615 0.0223991 14.268 0.136585C14.3786 0.140153 14.4893 0.143721 14.6004 0.147289C14.8176 0.16067 14.9796 0.271288 15.1304 0.421157C17.4168 2.69773 19.697 4.98056 21.9785 7.26159C22.074 7.35704 22.1672 7.45428 22.235 7.57293C22.3189 7.71967 22.2886 7.80843 22.1119 7.82895C21.9241 7.81334 21.73 7.82092 21.5792 7.67685C21.6024 7.564 21.6671 7.59835 21.6903 7.60816C21.3932 7.72993 21.2897 7.44804 21.1161 7.26204C20.7347 6.85258 20.3292 6.46586 19.9339 6.06978C19.3191 5.45336 18.7057 4.83559 18.0869 4.22318C17.49 3.63263 16.8984 3.03672 16.3019 2.44572C15.6898 1.83911 15.0443 1.2664 14.4549 0.637038C14.2582 0.426954 14.0601 0.235603 13.7389 0.273962C13.6867 0.280207 13.6403 0.245864 13.6015 0.208843L13.6019 0.209289Z" fill="#00D2AA"/>
<path d="M25.1515 23.8091C25.1434 23.9331 25.0729 24.0058 24.9592 24.0419C24.4381 23.219 23.6645 22.6311 23.0002 21.942C21.9 20.8006 20.7593 19.6989 19.6439 18.5717C19.2362 18.1596 18.8329 17.7421 18.4086 17.3465C18.3693 17.2818 18.3917 17.2095 18.3832 17.1404C18.5447 16.8772 18.7343 16.6435 19.0319 16.5231C19.0805 16.5342 19.109 16.5628 19.1122 16.6141C18.981 16.8222 19.0054 17.0164 19.1853 17.1966C21.1166 19.1279 23.0484 21.0584 24.9792 22.9906C25.1394 23.1512 25.3183 23.3006 25.3709 23.5392C25.3491 23.6708 25.2175 23.7128 25.1519 23.8091H25.1515Z" fill="#009096"/>
<path d="M0.868915 4.82662C0.986694 4.74588 0.899698 4.60895 0.95725 4.50636C1.10447 4.48183 1.17452 4.59913 1.25705 4.68209C3.3851 6.80702 5.50958 8.93551 7.64209 11.056C7.78575 11.1987 7.80003 11.4574 8.04808 11.5002C7.87944 11.7125 7.63228 11.7447 7.38958 11.787C6.89036 10.9083 6.07349 10.3182 5.38734 9.61215C4.04761 8.233 2.67218 6.88865 1.31594 5.52555C1.18255 5.3913 1.05808 5.30298 0.868469 5.38862V4.82706L0.868915 4.82662Z" fill="#00778D"/>
<path d="M18.389 17.1716C18.4702 17.2055 18.4175 17.2568 18.4064 17.3027C18.3966 17.3964 18.2997 17.4459 18.2881 17.5382C18.3212 17.6948 18.4541 17.7733 18.554 17.8732C20.5197 19.842 22.488 21.8086 24.4546 23.7761C24.6005 23.9219 24.7789 24.0584 24.6522 24.3069C24.5643 24.554 24.3377 24.6664 24.1534 24.8203C24.3368 24.4255 24.0254 24.2435 23.8077 24.0254C21.8947 22.1106 19.9799 20.1975 18.066 18.2827C17.9638 18.1805 17.85 18.0878 17.7733 17.962C17.7479 17.8986 17.7849 17.8308 17.759 17.7671C17.9129 17.5097 18.095 17.2813 18.3881 17.1711L18.389 17.1716Z" fill="#008B94"/>
<path d="M17.7831 17.9268C17.8759 18.0093 17.9731 18.0869 18.0606 18.1743C20.0539 20.1654 22.0437 22.1597 24.041 24.1463C24.2542 24.3582 24.467 24.5357 24.1547 24.8207C24.0441 24.942 23.925 25.0531 23.7804 25.1334C23.9643 24.7378 23.6515 24.5549 23.4334 24.3368C21.4726 22.3764 19.5145 20.413 17.5502 18.4567C17.3182 18.2256 17.4039 18.0302 17.7831 17.9268Z" fill="#008793"/>
<path d="M25.1518 23.8092C25.2125 23.7199 25.2727 23.6307 25.3334 23.5415C25.3606 23.4626 25.4007 23.3903 25.4489 23.3225C25.5355 23.2016 25.5181 23.1013 25.4115 22.9938C24.7199 22.2975 24.0209 21.6084 23.3302 20.9112C22.7632 20.339 22.1926 19.7694 21.6247 19.198C21.2174 18.7881 20.8034 18.3827 20.3987 17.9705C19.9602 17.5231 19.4641 17.1293 19.0933 16.6163C19.067 16.5936 19.0402 16.5704 19.0139 16.5477C19.0982 16.2881 19.2789 16.123 19.5274 16.0249C19.5586 16.032 19.6033 16.065 19.5957 16.0744C19.4364 16.2693 19.6309 16.3318 19.7268 16.4277C21.7509 18.4518 23.7759 20.4741 25.7982 22.5C25.879 22.5808 25.9544 22.6669 25.9865 22.7815C25.9896 22.8123 25.9825 22.8404 25.966 22.8662L25.9687 22.8582C25.9125 23.0058 25.7782 23.1017 25.7135 23.2436C25.5462 23.4514 25.4213 23.7017 25.1522 23.8087L25.1518 23.8092Z" fill="#009797"/>
<path d="M22.2168 26.174C22.0588 26.3894 21.8126 26.4701 21.5886 26.5848C21.54 26.5219 21.5721 26.4737 21.6167 26.4278C21.9611 26.194 21.9652 26.1753 21.6703 25.88C19.7907 23.9991 17.9094 22.1199 16.0298 20.2381C15.9009 20.1088 15.7327 19.9972 15.755 19.7751C15.7992 19.6333 15.8875 19.5383 16.0378 19.5093C16.1953 19.5195 16.3028 19.6194 16.4059 19.722C18.3809 21.6931 20.3537 23.6663 22.3256 25.6405C22.4193 25.7342 22.5304 25.8243 22.5045 25.9831C22.451 26.1106 22.2984 26.0883 22.2168 26.1735V26.174Z" fill="#00778D"/>
<path d="M0.868884 5.38777C0.960787 5.19062 1.05715 5.15939 1.22847 5.33156C3.22669 7.33784 5.22804 9.341 7.23876 11.3343C7.3784 11.4731 7.30211 11.622 7.36368 11.755C7.33646 11.936 7.19459 11.9454 7.05629 11.9606C6.78281 11.7077 6.53432 11.4294 6.27021 11.1662C4.6155 9.51629 2.96214 7.86461 1.31457 6.20803C1.16913 6.06173 1.05269 5.94532 0.868884 6.13667C0.843008 5.88688 0.844346 5.63755 0.868884 5.38777Z" fill="#00738C"/>
<path d="M20.4037 27.1481C20.1418 27.2748 19.8746 27.3863 19.5922 27.459C19.544 27.3935 19.5775 27.348 19.6283 27.306C19.9555 27.1514 19.9884 26.9434 19.7269 26.682C18.2712 25.2266 16.8208 23.7658 15.3553 22.3198C15.0242 21.9928 14.7146 21.6391 14.3399 21.3599C14.1574 21.2239 14.2542 21.119 14.3296 20.9955C14.4166 20.8831 14.5197 20.801 14.6727 20.8126C15.0863 21.0477 15.3776 21.4228 15.7082 21.7471C17.3026 23.3131 18.873 24.9037 20.4563 26.4809C20.5005 26.525 20.5465 26.5674 20.5857 26.616C20.7611 26.8332 20.7414 26.9309 20.496 27.067C20.4581 27.0879 20.43 27.1165 20.4037 27.1481Z" fill="#006888"/>
<path d="M27.2766 20.8799C27.2726 20.9143 27.2691 20.9491 27.265 20.9834C27.1937 21.049 27.1602 21.1516 27.0625 21.1922C26.9345 21.1846 26.8635 21.0878 26.7846 21.0084C24.7747 18.9972 22.7587 16.9927 20.7542 14.9762C20.7243 14.941 20.7015 14.9017 20.6926 14.8558C20.7359 14.6747 20.8528 14.5667 21.0295 14.5186C21.1994 14.5302 21.3105 14.643 21.4203 14.7527C23.3235 16.6533 25.2253 18.5548 27.1259 20.4575C27.2195 20.5512 27.332 20.64 27.3141 20.7974C27.303 20.8255 27.2905 20.8527 27.2762 20.8795L27.2766 20.8799Z" fill="#00AA9D"/>
<path d="M21.6513 26.4737C21.6044 26.496 21.5906 26.537 21.5883 26.5847C21.4219 26.669 21.2555 26.7529 21.0891 26.8372C21.032 26.6445 20.9169 26.4951 20.7746 26.3528C19.0075 24.5923 17.2444 22.8277 15.4804 21.0641C15.4215 21.0052 15.3621 20.9468 15.3041 20.8875C14.9923 20.5695 15.0101 20.4633 15.4099 20.2492C15.5856 20.2438 15.6918 20.3612 15.8016 20.4727C16.7549 21.4437 17.7266 22.3969 18.6863 23.3612C19.6316 24.3108 20.5854 25.2524 21.5219 26.2109C21.5915 26.2819 21.6869 26.3479 21.6508 26.4737H21.6513Z" fill="#00708B"/>
<path d="M17.7828 17.9268C17.5395 18.1207 17.5223 18.3218 17.7311 18.5303C19.7088 20.5076 21.6843 22.4866 23.6669 24.459C23.8797 24.6704 24.0916 24.8489 23.7802 25.1334C23.608 25.2962 23.4273 25.4483 23.2176 25.5616C23.1685 25.5014 23.2011 25.4483 23.2314 25.3952C23.281 25.327 23.3501 25.2797 23.4161 25.2298C23.5241 25.1486 23.5214 25.0612 23.4358 24.9662C23.3938 24.9198 23.3497 24.8756 23.306 24.8319C21.3224 22.8488 19.3394 20.8657 17.3563 18.8827C17.2756 18.8019 17.1864 18.7301 17.1047 18.6503C17.0592 18.59 17.0882 18.5178 17.0735 18.4518C17.2528 18.1788 17.4469 17.921 17.7659 17.7957C17.8471 17.8296 17.7944 17.8809 17.7828 17.9268Z" fill="#008391"/>
<path d="M17.0791 18.4816C17.1603 18.5155 17.1077 18.5668 17.0961 18.6128C16.8962 18.8483 16.9952 19.0106 17.1915 19.2056C19.1452 21.1449 21.0898 23.0932 23.0336 25.0424C23.1367 25.1455 23.3013 25.2208 23.2737 25.4131C23.2549 25.4626 23.2362 25.5121 23.2175 25.5616C22.9016 25.7944 22.6143 26.0741 22.2168 26.174C22.2614 26.0616 22.4064 26.0728 22.4626 25.9746C22.6681 25.7299 22.6529 25.4895 22.4171 25.2534C20.5081 23.3448 18.5991 21.4362 16.6905 19.5276C16.5518 19.3889 16.3823 19.2604 16.4978 19.0236C16.6468 18.7952 16.7972 18.5677 17.0787 18.4812L17.0791 18.4816Z" fill="#007E8F"/>
<path d="M28.8261 16.6163C28.8225 16.6569 28.8185 16.6979 28.8149 16.7385C28.6864 16.8817 28.7436 17.0864 28.6472 17.2403C28.4959 17.329 28.4134 17.2073 28.3309 17.1252C27.2124 16.0132 26.0828 14.912 24.9902 13.775C24.4875 13.2518 24.0016 12.7135 23.4542 12.2349C23.4145 12.2001 23.3855 12.1577 23.3752 12.1042C23.6001 11.7232 23.7188 11.2879 23.9744 10.9226C24.1636 11.0221 24.0632 11.163 24.0279 11.2946C23.8026 11.5979 24.0114 11.7594 24.2144 11.9592C25.6224 13.3468 26.9791 14.7853 28.3916 16.1689C28.5098 16.2849 28.6253 16.404 28.7578 16.5043C28.7926 16.5342 28.8056 16.5779 28.8261 16.6163Z" fill="#00C6A6"/>
<path d="M18.033 27.8989C18.1998 27.7138 18.1124 27.5649 17.9607 27.4319C17.3847 26.9293 16.8721 26.3615 16.3216 25.8324C14.8721 24.4408 13.4686 23.0006 12.0463 21.5804C11.916 21.4501 11.7804 21.3248 11.7122 21.1446C11.8308 21.0781 11.9241 21.3101 12.0436 21.1678C12.0976 21.1205 12.1409 21.141 12.1806 21.1883C12.2792 21.3364 12.4237 21.245 12.5482 21.2579C12.7646 21.2918 12.9885 21.2409 13.2005 21.3181C13.2281 21.3351 13.2433 21.3605 13.2477 21.3921C13.1036 21.575 12.9029 21.455 12.7222 21.5028C13.3053 22.1094 13.9031 22.708 14.5103 23.2958C15.8679 24.6099 17.2081 25.9413 18.5398 27.2816C18.6415 27.3842 18.7584 27.4904 18.65 27.6585C18.6236 27.6938 18.5902 27.7201 18.5496 27.7366C18.4608 27.77 18.3644 27.7861 18.2837 27.8405C18.2003 27.8601 18.1168 27.8798 18.033 27.8994V27.8989Z" fill="#0D5A84"/>
<path d="M15.4115 20.2975C15.1917 20.4726 15.1805 20.6591 15.378 20.8568C17.233 22.7114 19.088 24.5661 20.9435 26.4207C21.0595 26.5367 21.2094 26.6392 21.0898 26.8373C20.8735 26.968 20.6433 27.0679 20.4037 27.1482C20.4113 27.0938 20.4349 27.0505 20.4876 27.0273C20.7329 26.9189 20.6504 26.7855 20.5148 26.6504C19.9593 26.0951 19.403 25.5402 18.8476 24.9849C17.8027 23.9403 16.761 22.8921 15.7117 21.8515C15.3669 21.5094 15.0042 21.186 14.6495 20.8537C14.8404 20.5526 15.0885 20.3117 15.4039 20.1427C15.5337 20.1882 15.4837 20.2426 15.4115 20.2979V20.2975Z" fill="#006B89"/>
<path d="M0.868884 6.1367C0.916174 6.10503 0.934019 6.05953 0.934465 6.00422C0.935804 5.82001 1.00406 5.80083 1.12987 5.92528C1.1669 5.96185 1.20348 5.99843 1.24007 6.035C3.0875 7.88205 4.93449 9.72909 6.78237 11.5748C6.89345 11.6854 6.99919 11.7974 7.05362 11.9481C7.06655 12.0431 7.00409 12.0761 6.93004 12.1002C6.70296 12.2438 6.55573 12.1524 6.37906 11.974C4.69759 10.2755 3.0005 8.59169 1.31769 6.89452C1.16333 6.73885 1.0402 6.71253 0.868884 6.82315C0.843008 6.59433 0.844346 6.36552 0.868884 6.13715V6.1367Z" fill="#00708B"/>
<path d="M18.5308 27.7212C18.5518 27.7003 18.5728 27.6798 18.5933 27.6588C18.6727 27.6097 18.753 27.5656 18.8422 27.5348C19.1367 27.4327 19.1429 27.4108 18.9127 27.1802C17.7849 26.0504 16.6758 24.9009 15.519 23.8019C14.8351 23.152 14.1717 22.4825 13.498 21.8237C13.3843 21.7127 13.2357 21.6074 13.2825 21.408C13.3289 21.3665 13.395 21.416 13.4414 21.3741C13.3883 21.3933 13.3495 21.3853 13.3397 21.3206C13.4124 21.206 13.519 21.2229 13.627 21.2461C13.9241 21.3625 14.1467 21.5753 14.368 21.7974C16.0834 23.5182 17.8045 25.2332 19.5172 26.9572C19.6105 27.0513 19.8527 27.1343 19.6547 27.3475C19.6074 27.3698 19.594 27.4112 19.5918 27.459C19.2478 27.5977 18.8967 27.7119 18.5313 27.7779C18.5094 27.7654 18.5019 27.7529 18.509 27.7404C18.5161 27.7279 18.5237 27.7217 18.5308 27.7217V27.7212Z" fill="#006186"/>
<path d="M0.868921 6.82266C1.0215 6.50686 1.02328 6.50508 1.27356 6.7553C3.03712 8.51849 4.80648 10.2754 6.55265 12.0551C6.74359 12.2496 6.80605 11.8923 6.92517 12.0502C6.81631 12.2768 6.65704 12.4588 6.4429 12.5917C6.30906 12.6091 6.23768 12.5172 6.15737 12.4343C5.05052 11.296 3.91824 10.1835 2.79577 9.06132C2.28227 8.54793 1.76832 8.03499 1.25839 7.51847C1.1308 7.38912 1.01793 7.36994 0.869813 7.44622C0.844384 7.23836 0.845276 7.03051 0.869813 6.82221L0.868921 6.82266Z" fill="#006A89"/>
<path d="M23.4097 12.1252C23.9821 12.5588 24.4697 13.0779 24.9359 13.6203C25.064 13.7693 25.2099 13.9036 25.3491 14.0427C26.3466 15.0405 27.3437 16.0383 28.3431 17.0343C28.4287 17.1195 28.4961 17.2377 28.6406 17.2399C28.6464 17.2506 28.6522 17.2613 28.658 17.2725C28.642 17.3447 28.6371 17.4174 28.6438 17.491C28.5724 17.9228 28.4524 18.3403 28.2757 18.7408C28.2485 18.7609 28.2208 18.7631 28.1923 18.7444C28.1209 18.5999 28.2164 18.4768 28.2436 18.3448C28.4051 18.0183 28.3145 17.7823 28.0522 17.5249C26.4568 15.9602 24.8891 14.367 23.3058 12.7902C23.2179 12.7028 23.1171 12.6252 23.0667 12.5057C23.0956 12.3023 23.2259 12.189 23.4097 12.1248V12.1252Z" fill="#00C1A4"/>
<path d="M0.868593 7.44679C0.950681 7.23359 1.02831 7.18319 1.22193 7.38034C2.20387 8.38258 3.20142 9.36922 4.19406 10.3608C4.90207 11.0677 5.63641 11.7484 6.30338 12.4959C6.33371 12.5298 6.38591 12.5446 6.42785 12.5682C6.43231 12.8131 6.31185 12.9924 6.12805 13.1382C4.55766 11.4518 2.8802 9.87145 1.26967 8.22513C1.15412 8.10693 1.01983 8.04805 0.868593 8.00791C0.843163 7.82102 0.844055 7.63368 0.868593 7.44679Z" fill="#006888"/>
<path d="M0.868566 8.0078C1.00642 7.91636 1.10948 7.95963 1.22056 8.07114C2.78649 9.64208 4.35554 11.2095 5.92458 12.7773C6.02229 12.875 6.09857 12.982 6.11374 13.1238C6.19182 13.2608 6.13873 13.3625 6.02675 13.4477C5.99106 13.4379 5.93797 13.4379 5.98972 13.3794C5.86123 13.6203 5.77781 13.4222 5.69795 13.3424C4.23731 11.8807 2.77087 10.4244 1.31782 8.95473C1.16435 8.79951 1.04033 8.77052 0.86812 8.88158C0.841798 8.59032 0.843136 8.29906 0.86812 8.0078H0.868566Z" fill="#006487"/>
<path d="M0.868913 10.0666C0.842591 9.87975 0.84393 9.69241 0.868913 9.50552C0.94654 9.15627 1.05629 9.12505 1.34226 9.40471C2.08284 10.1286 2.80959 10.8668 3.54258 11.5983C4.15111 12.2058 4.74892 12.8236 5.37083 13.4173C5.65368 13.6871 5.87229 13.9632 5.83883 14.3754C5.85623 14.428 5.88478 14.4735 5.92225 14.5145C5.94144 14.5355 5.95616 14.5591 5.96687 14.5854C5.97936 14.6278 5.97936 14.6702 5.96687 14.7126C5.8821 14.8678 5.81429 14.8187 5.71302 14.7135C4.26487 13.2032 2.77434 11.7339 1.29943 10.25C1.17407 10.1237 1.04692 10.0475 0.868913 10.0671V10.0666Z" fill="#035D86"/>
<path d="M0.869262 10.0668C0.985702 9.90665 1.08965 9.9352 1.21948 10.0659C2.41868 11.2715 3.64108 12.4549 4.81352 13.6859C5.14455 14.0334 5.5251 14.3376 5.81107 14.7301C5.8771 14.8206 5.89985 14.7105 5.93197 14.6712C6.12158 14.7404 6.0609 14.9183 6.09972 15.0535C6.12604 15.1324 6.01272 15.2453 6.16039 15.2952C6.20813 15.3336 6.22463 15.3769 6.18314 15.4299C6.07161 15.5602 5.96945 15.5084 5.87576 15.4099C5.29846 14.8024 4.66763 14.2484 4.11934 13.6105C3.92125 13.3804 3.69952 13.1618 3.45594 12.9665C3.20967 12.7689 3.0156 12.5075 2.79075 12.2822C2.24647 11.7372 1.69773 11.197 1.15077 10.6542C1.03924 10.5436 0.951796 10.5967 0.869262 10.6917C0.84294 10.4838 0.843832 10.2755 0.869262 10.0677V10.0668Z" fill="#0D5A84"/>
<path d="M28.8254 16.6163C28.8054 16.5958 28.7848 16.5748 28.7648 16.5543C28.75 16.5396 28.7268 16.5217 28.7286 16.5052C28.7723 16.1074 28.4846 15.9066 28.2455 15.6702C27.1109 14.5489 25.9853 13.4191 24.8678 12.2813C24.5586 11.9668 24.1888 11.7045 23.9599 11.3138C23.9577 11.1889 24.1009 11.0653 23.9621 10.9396C23.9425 10.915 23.9322 10.8869 23.9309 10.8553C23.9416 10.7478 23.9447 10.6403 23.9394 10.5319C23.938 10.4342 23.9349 10.3365 23.938 10.2384C23.951 10.1523 23.938 10.0328 24.0424 10.0158C24.1473 9.99888 24.1401 10.1153 24.1607 10.1875C24.1111 10.5529 24.2432 10.8066 24.5238 11.0725C25.9688 12.4418 27.3063 13.9191 28.7246 15.3161C28.8459 15.4356 28.9298 15.573 28.9535 15.7434C28.9508 16.04 28.9187 16.3326 28.825 16.6158L28.8254 16.6163Z" fill="#00CCA8"/>
<path d="M5.92101 14.5577C5.90183 14.5577 5.88265 14.5577 5.86346 14.5573C5.82108 14.3633 5.80636 14.1692 5.87015 13.9761L5.84383 13.9743C5.80279 14.1237 5.8706 14.2861 5.80145 14.4329C5.78762 14.4177 5.76041 14.4003 5.76264 14.3874C5.83937 13.8981 5.48693 13.6483 5.19783 13.3601C3.93617 12.1014 2.67629 10.8405 1.41597 9.5804C1.3718 9.53625 1.32897 9.49165 1.28391 9.44883C1.03363 9.21198 1.0091 9.21554 0.86812 9.50547C0.841798 9.29761 0.843136 9.08932 0.86812 8.88146C0.953331 8.66959 1.02694 8.5563 1.25581 8.78779C2.7615 10.311 4.2846 11.8173 5.7836 13.3472C5.86435 13.4297 5.98927 13.3097 5.99686 13.452C6.06333 13.8271 6.07047 14.1978 5.92101 14.5577Z" fill="#006086"/>
<path d="M28.9542 15.7438C28.8003 15.4691 28.5648 15.2657 28.3479 15.0453C27.093 13.7697 25.8376 12.494 24.5826 11.2183C24.5317 11.1666 24.4889 11.0975 24.4273 11.0676C24.0727 10.8941 24.0495 10.5876 24.086 10.2536C24.3243 10.1777 24.451 10.3619 24.5781 10.4922C25.0921 11.0181 25.6176 11.5328 26.14 12.0502C26.9944 12.8963 27.7992 13.7911 28.6638 14.627C28.8093 14.7675 28.923 14.9164 28.9529 15.1198C28.9725 15.1198 28.9917 15.1198 29.0113 15.1198C29.0131 15.3299 29.0359 15.5418 28.9542 15.7443V15.7438Z" fill="#00CFA9"/>
<path d="M18.2198 17.4901C18.2604 17.4058 18.3229 17.3438 18.4072 17.3027C18.7271 17.4232 18.8855 17.726 19.1139 17.9459C19.8438 18.6493 20.546 19.3813 21.2647 20.0967C22.0494 20.8782 22.8436 21.6494 23.6265 22.4322C24.028 22.834 24.4068 23.2587 24.811 23.6574C24.9297 23.7743 24.9266 23.9081 24.9596 24.0419C24.8784 24.1097 24.7972 24.1775 24.716 24.2453C24.7289 24.0214 24.6022 23.876 24.4532 23.7279C22.3894 21.6779 20.3443 19.6092 18.2743 17.5655C18.252 17.5436 18.2332 17.5186 18.2207 17.4901H18.2198Z" fill="#008D95"/>
<path d="M18.2195 17.4902C18.3761 17.496 18.447 17.6267 18.5394 17.719C20.5554 19.7311 22.567 21.7481 24.588 23.7548C24.7455 23.9114 24.8209 24.0429 24.7152 24.2459C24.6947 24.2664 24.6737 24.2869 24.6532 24.3074C24.679 24.1081 24.5622 23.9841 24.4328 23.8547C22.4113 21.8377 20.3913 19.8194 18.377 17.7953C18.302 17.7199 18.1008 17.6771 18.2195 17.4897V17.4902Z" fill="#008D95"/>
<path d="M19.905 0.957242C19.7127 0.997385 19.8943 1.13164 19.8417 1.20702C19.822 1.21639 19.7962 1.22754 19.7832 1.21683C19.5048 0.981771 19.1542 0.881412 18.8428 0.708349C18.6938 0.592825 18.4372 0.698535 18.344 0.467041C18.8794 0.581673 19.4049 0.72887 19.9046 0.957242H19.905Z" fill="#00E8B1"/>
<path d="M28.2663 9.69204C28.2686 9.64342 28.2713 9.59525 28.2735 9.54663C28.4734 9.99356 28.5943 10.4646 28.6893 10.9427C28.617 10.9744 28.588 10.9583 28.5737 10.8731C28.5421 10.6858 28.4948 10.5016 28.4537 10.316C28.2619 10.147 28.1905 9.94182 28.2663 9.69204Z" fill="#00E8B1"/>
<path d="M27.2764 20.88C27.2737 20.8519 27.2706 20.8243 27.2679 20.7962C27.3143 20.6169 27.3852 20.4478 27.4718 20.2841C27.5668 20.1396 27.5989 19.9554 27.751 19.8475C27.7809 19.839 27.8086 19.8443 27.834 19.8617C27.6846 20.2212 27.5824 20.6062 27.2768 20.88H27.2764Z" fill="#00B3A1"/>
<path d="M16.5339 0.150412C16.467 0.23739 16.3706 0.200372 16.2854 0.209292C16.1614 0.167811 15.9812 0.306083 15.9116 0.0924307C16.1226 0.0759273 16.3305 0.0901972 16.5339 0.150412Z" fill="#00E0AE"/>
<path d="M28.2039 18.7377C28.228 18.739 28.2521 18.7399 28.2762 18.7412C28.2333 18.9848 28.141 19.21 28.0219 19.4255C27.9964 19.4464 27.9697 19.4487 27.942 19.4299C27.9148 19.3907 27.909 19.3474 27.9166 19.3015C27.9737 19.1538 28.0299 19.0053 28.0812 18.855C28.1071 18.8001 28.141 18.7533 28.2039 18.7377Z" fill="#00BEA3"/>
<path d="M15.8482 28.1567C16.0151 28.1531 16.1851 27.9261 16.3488 28.1633C16.1449 28.2303 15.9344 28.2182 15.7247 28.2142C15.7657 28.195 15.8072 28.1758 15.8482 28.1567Z" fill="#1A4E81"/>
<path d="M27.0805 21.1708C27.1256 21.0923 27.1439 20.987 27.2648 20.9839C27.1853 21.2207 27.0591 21.4313 26.8998 21.6226C26.8757 21.6021 26.8615 21.5762 26.8557 21.5454C26.8762 21.388 26.9297 21.2502 27.0805 21.1708Z" fill="#00AD9E"/>
<path d="M26.7868 21.8003C26.6717 22.0371 26.5222 22.2503 26.3433 22.4435C26.3179 22.4265 26.3019 22.4029 26.2952 22.373C26.3068 22.1999 26.441 22.0906 26.5156 21.9501C26.5669 21.8774 26.6182 21.8047 26.7069 21.7722C26.7377 21.7695 26.764 21.7789 26.7868 21.8003Z" fill="#00A69C"/>
<path d="M28.6399 17.2403C28.6774 17.0659 28.6091 16.8545 28.8143 16.7385C28.7898 16.9089 28.7813 17.0829 28.7006 17.2403C28.6805 17.2689 28.66 17.2702 28.6399 17.2403Z" fill="#00C9A7"/>
<path d="M26.331 22.3564C26.3351 22.3854 26.3386 22.4144 26.3426 22.4439C26.2418 22.6071 26.1704 22.7967 25.9652 22.8667C25.9621 22.8422 25.9594 22.8176 25.9563 22.7936C26.0219 22.6218 26.1383 22.4845 26.2543 22.3462C26.282 22.3337 26.3078 22.3373 26.331 22.3564Z" fill="#00A29B"/>
<path d="M16.9725 0.206586C16.8342 0.281074 16.6954 0.360025 16.5977 0.153063C16.7262 0.147711 16.8538 0.146817 16.9725 0.206586Z" fill="#00E0AE"/>
<path d="M27.954 19.4241C27.9763 19.4245 27.9991 19.4254 28.0214 19.4259C27.9884 19.5838 27.9379 19.7345 27.8336 19.8621C27.8112 19.8621 27.7889 19.8616 27.7666 19.8612C27.7483 19.8371 27.7408 19.8103 27.7416 19.7805C27.7791 19.6422 27.7956 19.4905 27.954 19.4245V19.4241Z" fill="#00B7A2"/>
<path d="M25.7131 23.2435C25.7203 23.0638 25.8679 22.9764 25.9683 22.8582C25.971 23.0446 25.8291 23.1356 25.7131 23.2435Z" fill="#009B99"/>
<path d="M28.6397 17.2402C28.6598 17.2402 28.6803 17.2402 28.7004 17.2402C28.7049 17.3294 28.7062 17.4173 28.6429 17.4909C28.5242 17.4088 28.6081 17.3241 28.6393 17.2402H28.6397Z" fill="#00C6A6"/>
<path d="M26.7869 21.8001C26.7602 21.7983 26.7334 21.796 26.7066 21.7943C26.6754 21.7358 26.7066 21.689 26.7339 21.6408C26.7771 21.5931 26.8026 21.5137 26.8936 21.5449C26.8958 21.5708 26.898 21.5962 26.9007 21.6221C26.8864 21.6961 26.8481 21.7554 26.7874 21.8001H26.7869Z" fill="#00AA9D"/>
<path d="M18.531 27.7213C18.531 27.74 18.531 27.7587 18.531 27.7775C18.4529 27.8172 18.3739 27.8542 18.2825 27.8399C18.332 27.7311 18.4266 27.7155 18.531 27.7213Z" fill="#035D86"/>
<path d="M1.19057 17.1787C1.25749 17.2296 1.36233 17.271 1.23697 17.3687C1.18165 17.3152 1.18521 17.247 1.19057 17.1787Z" fill="#26387B"/>
<path d="M7.59212 2.13391C7.61933 2.13703 7.64655 2.14015 7.67421 2.14328C7.60238 2.22936 7.51003 2.26727 7.3985 2.2588C7.44802 2.19368 7.51226 2.15175 7.59257 2.13391H7.59212Z" fill="#00AA9D"/>
<path d="M23.83 9.39233C23.4838 8.61979 22.9159 8.07919 22.1302 7.76518C22.1856 7.75091 22.2743 7.75358 22.2047 7.65858C22.1258 7.55064 22.0477 7.43957 21.9536 7.34546C19.8938 5.28298 17.8376 3.21649 15.7639 1.16828C15.494 0.901995 15.2232 0.633033 14.9564 0.36318C14.8458 0.25167 14.707 0.235614 14.6 0.147299C15.2429 0.019286 15.6551 0.372992 16.0682 0.797174C17.1652 1.92253 18.2873 3.0238 19.399 4.13488C20.3934 5.1291 21.387 6.12465 22.3819 7.11887C23.3986 8.13494 24.4189 9.14745 25.4338 10.1658C26.5068 11.242 27.5789 12.3206 28.6603 13.3879C28.9703 13.6939 28.9396 13.9771 28.9516 14.309C28.6585 14.255 28.4684 14.0356 28.2944 13.8358C27.6538 13.0998 26.9373 12.4401 26.2516 11.7496C25.4927 10.9856 24.7486 10.2059 23.954 9.47751C23.9174 9.44362 23.888 9.39589 23.8296 9.39277L23.83 9.39233Z" fill="#00D6AB"/>
<path d="M23.8302 9.39218C23.849 9.36408 23.8173 9.25971 23.907 9.33776C24.0466 9.45953 24.1889 9.57907 24.3201 9.70976C25.5403 10.9266 26.7662 12.1371 27.9708 13.3691C28.2884 13.6938 28.5896 14.0319 28.9518 14.308C28.9518 14.5783 28.9518 14.8486 28.9518 15.1189C28.876 14.9458 28.7435 14.8182 28.6141 14.6858C27.9516 14.0069 27.3074 13.3088 26.627 12.6483C26.0315 12.0693 25.4658 11.4605 24.8505 10.9002C24.602 10.6741 24.4298 10.3641 24.0845 10.2526C24.0711 10.1897 24.1149 10.1148 24.0314 10.051C24.0256 10.1317 24.0212 10.2004 24.0163 10.2695C23.9538 9.97694 23.8914 9.68478 23.8293 9.39218H23.8302Z" fill="#00D2AA"/>
<path d="M14.4104 13.2946C14.3524 13.3428 14.2949 13.3905 14.2369 13.4387C14.2124 13.4373 14.1878 13.436 14.1633 13.4351C13.9808 13.3272 13.8684 13.1474 13.723 13.002C9.69929 8.98454 5.67874 4.96395 1.65909 0.942477C1.55113 0.834536 1.41194 0.747562 1.37134 0.583866C1.53105 0.405005 1.66132 0.46254 1.81122 0.613747C2.68074 1.492 3.55694 2.36311 4.43091 3.2369C7.46372 6.26906 10.497 9.30123 13.5298 12.3338C13.8372 12.6412 14.1593 12.936 14.4104 13.2951V13.2946Z" fill="#008D95"/>
<path d="M1.37168 0.583454C1.45689 0.658389 1.54701 0.72886 1.62732 0.809147C5.70675 4.88638 9.78574 8.9645 13.8652 13.0422C13.983 13.1599 14.1047 13.2732 14.1641 13.4351C14.1097 13.5043 14.0543 13.6376 13.9798 13.4592C13.9285 13.3366 13.8317 13.2603 13.7447 13.1738C9.6867 9.11481 5.62778 5.05677 1.56798 0.999159C1.46091 0.89211 1.37347 0.744471 1.18475 0.770342C1.22535 0.68604 1.28781 0.623597 1.37213 0.583008L1.37168 0.583454Z" fill="#008D95"/>
<path d="M28.2655 9.69194C28.3279 9.8998 28.3904 10.1081 28.4529 10.3159C28.2856 10.299 28.1736 10.1933 28.0621 10.0818C25.0507 7.07013 22.0388 4.05893 19.027 1.04817C18.932 0.953168 18.82 0.86753 18.8432 0.70874C19.2402 0.746653 19.5646 0.929978 19.8416 1.20786C20.0901 1.55934 20.4551 1.79038 20.7544 2.08967C23.0667 4.40059 25.3786 6.71197 27.6895 9.02422C27.8979 9.23252 28.2267 9.33779 28.265 9.69239L28.2655 9.69194Z" fill="#00E7B0"/>
<path d="M13.1005 14.6141C12.9475 14.6913 12.9122 14.536 12.8467 14.4714C12.0347 13.6685 11.2294 12.8594 10.4219 12.0521C10.5013 11.9686 10.5527 12.0405 10.6008 12.0895C11.4347 12.9303 12.2671 13.7724 13.1001 14.6141H13.1005Z" fill="#007F8E"/>
<path d="M21.5717 7.64074C21.4316 7.63717 21.2915 7.6336 21.1514 7.63004C20.6834 7.56491 20.5068 7.13137 20.2181 6.85616C19.2273 5.91234 18.2725 4.93061 17.3062 3.96093C16.8677 3.52114 16.4523 3.05592 15.9928 2.63887C15.2384 1.95465 14.5326 1.22181 13.809 0.506809C13.7229 0.421616 13.6051 0.353821 13.602 0.208859C13.9892 0.138831 14.2551 0.309215 14.5224 0.584866C15.1688 1.25214 15.8683 1.86767 16.513 2.53628C17.0912 3.13576 17.6841 3.72141 18.2703 4.31196C18.849 4.89449 19.4352 5.47299 20.0223 6.04883C20.4622 6.4797 20.9386 6.88203 21.3013 7.38516C21.4312 7.56536 21.5971 7.57696 21.7974 7.58097C21.7185 7.65858 21.6395 7.62111 21.5721 7.64074H21.5717Z" fill="#00CFA9"/>
<path d="M17.0943 10.6221C17.0082 10.7443 16.9051 10.8495 16.782 10.9343C16.4206 10.4227 15.9647 10.0021 15.4886 9.60153C15.4333 9.55469 15.3807 9.50474 15.3294 9.45344C12.9136 7.0386 10.4977 4.62374 8.08328 2.208C8.02528 2.15002 7.97665 2.08222 7.92401 2.01888C8.20835 1.86634 8.46651 1.90604 8.6985 2.13798C10.918 4.35702 13.1348 6.57873 15.3593 8.79331C15.8759 9.30759 16.4179 9.796 16.9055 10.3397C16.9832 10.4267 17.0461 10.5186 17.0947 10.6221H17.0943Z" fill="#00AA9D"/>
<path d="M18.5291 9.18679C18.4233 9.33086 18.2989 9.45619 18.1543 9.5619C17.3597 8.7577 16.587 7.9303 15.7635 7.15732C15.1264 6.55963 14.513 5.93829 13.8946 5.32321C13.2982 4.72998 12.7115 4.12426 12.1168 3.53013C11.5734 2.98731 11.0501 2.42084 10.471 1.91325C10.2618 1.72992 10.1141 1.48683 9.88435 1.32135C9.79691 1.25846 9.72196 1.19513 9.60864 1.20762C9.76836 1.13848 9.92941 1.07247 10.0873 0.999762C10.2529 0.92349 10.3104 1.07113 10.3898 1.15008C11.9633 2.7179 13.5306 4.29197 15.1059 5.85845C15.7064 6.4557 16.3283 7.03108 16.9306 7.62654C17.407 8.09756 17.8724 8.57973 18.331 9.06814C18.3939 9.13549 18.4644 9.14664 18.5295 9.18679H18.5291Z" fill="#00B7A2"/>
<path d="M19.1536 8.56308C19.0684 8.68618 18.9649 8.791 18.8409 8.8753C17.8023 7.82756 16.7914 6.75083 15.7193 5.73877C14.1168 4.22581 12.5977 2.63033 11.0233 1.09016C10.9301 0.998727 10.8003 0.926913 10.794 0.7708C11.092 0.618701 11.3026 0.663751 11.5618 0.926913C12.9234 2.3074 14.2899 3.68298 15.6778 5.03805C16.8583 6.19061 17.9964 7.38688 19.1536 8.56352V8.56308Z" fill="#00BEA3"/>
<path d="M19.093 16.6167C19.4955 16.9521 19.8608 17.3241 20.2222 17.7032C20.6532 18.156 21.1265 18.5681 21.5642 19.015C21.7507 19.2055 21.9581 19.3799 22.125 19.5833C22.3882 19.904 22.7362 20.1342 22.9967 20.4491C23.2207 20.7202 23.4932 20.9388 23.7279 21.1971C23.9559 21.4477 24.183 21.7047 24.4417 21.921C24.8455 22.2582 25.1765 22.665 25.5495 23.0307C25.765 23.2421 25.4785 23.3978 25.3327 23.5419C25.2175 23.3429 25.0636 23.1766 24.9012 23.0151C22.953 21.0704 21.007 19.1234 19.06 17.1774C18.8619 16.979 18.8728 16.7923 19.0926 16.6171L19.093 16.6167Z" fill="#009496"/>
<path d="M19.5144 16.0477C19.6834 15.8425 19.8717 15.6561 20.0765 15.4862C20.2304 15.483 20.1456 15.5718 20.1336 15.6334C19.9763 15.8189 19.9859 16.0004 20.1626 16.178C22.11 18.1254 24.0578 20.0714 26.0034 22.0202C26.1042 22.121 26.2336 22.203 26.2693 22.3565C26.2139 22.5371 26.1229 22.6919 25.957 22.7932C25.8454 22.6714 25.7388 22.5447 25.6224 22.4283C23.596 20.4015 21.5746 18.3698 19.5295 16.3622C19.3591 16.1949 19.6544 16.1374 19.5148 16.0477H19.5144Z" fill="#009B99"/>
<path d="M16.0191 19.5409C16.1668 19.3563 16.3341 19.1908 16.5183 19.0427C16.4996 19.2082 16.5777 19.3175 16.6941 19.4335C18.6571 21.3871 20.6143 23.3465 22.5724 25.3042C22.948 25.6798 22.9418 25.7172 22.4626 25.9746C22.4626 25.8421 22.3573 25.7774 22.2788 25.6985C20.31 23.7288 18.3403 21.76 16.372 19.7898C16.2676 19.6855 16.1565 19.5958 16.0187 19.5409H16.0191Z" fill="#007A8E"/>
<path d="M15.3958 20.165C15.501 20.0214 15.6273 19.8983 15.7696 19.7913C15.8147 19.9309 15.9195 20.0259 16.0194 20.1253C17.8856 21.9902 19.7509 23.8556 21.6166 25.7209C21.6608 25.765 21.705 25.8088 21.7487 25.8529C22.1056 26.2111 22.102 26.232 21.6519 26.4738C21.2767 26.088 20.9037 25.6995 20.5254 25.3168C19.5921 24.373 18.6623 23.4256 17.7192 22.4916C17.0344 21.8131 16.3371 21.1481 15.6782 20.4438C15.6126 20.3738 15.5283 20.2953 15.4118 20.2975C15.4239 20.2511 15.4756 20.2003 15.3958 20.165Z" fill="#00738C"/>
<path d="M13.6644 21.2939C13.6796 21.2779 13.6979 21.273 13.7193 21.2792C13.7844 21.2797 13.8621 21.3225 13.8995 21.227C14.0472 21.1655 14.1949 21.1039 14.3425 21.0424C14.2805 21.2011 14.3488 21.2743 14.4844 21.3738C14.7909 21.5981 15.0327 21.8996 15.3035 22.1664C16.8199 23.6588 18.3185 25.1695 19.8233 26.6736C20.2855 27.1357 20.2837 27.1419 19.6546 27.3471C19.7345 27.2178 19.623 27.1607 19.5543 27.092C17.7149 25.2516 15.8714 23.4153 14.0419 21.5651C13.9241 21.446 13.7095 21.4911 13.6644 21.2939Z" fill="#006487"/>
<path d="M26.8927 21.545C26.8512 21.5865 26.8097 21.628 26.7682 21.6699C26.3716 21.3046 26.0018 20.9125 25.6203 20.5321C23.9527 18.8683 22.2891 17.201 20.6214 15.5373C20.3203 15.2371 20.3484 15.1216 20.7776 14.9325C20.8704 15.0146 20.9672 15.0922 21.0546 15.1796C22.9712 17.094 24.8865 19.0093 26.8026 20.9237C26.89 21.0111 26.9873 21.0887 27.0796 21.1708C27.0172 21.2957 26.9547 21.4206 26.8923 21.545H26.8927Z" fill="#00A69C"/>
<path d="M21.0118 14.5503C21.1577 14.4049 21.3031 14.2591 21.449 14.1136C21.6167 14.1618 21.6743 14.3273 21.7836 14.4361C23.6194 16.2622 25.4499 18.0932 27.2777 19.9269C27.3808 20.0303 27.5449 20.1057 27.5173 20.298C27.4704 20.4822 27.3928 20.6512 27.2679 20.7971C27.2679 20.6646 27.1626 20.6004 27.0841 20.5214C25.1778 18.6137 23.2701 16.7078 21.3642 14.7997C21.2598 14.6953 21.1487 14.6061 21.0118 14.5508V14.5503Z" fill="#00AD9E"/>
<path d="M20.7777 14.9321C20.5344 15.126 20.517 15.3269 20.7255 15.5347C22.664 17.4728 24.6029 19.4103 26.54 21.3502C26.6323 21.4425 26.7626 21.5134 26.7684 21.6695C26.7474 21.711 26.7269 21.7525 26.7059 21.7944C26.6645 21.8569 26.6225 21.9193 26.581 21.9818C26.4499 22.0255 26.3539 21.9537 26.2803 21.868C25.7668 21.2712 25.1806 20.7453 24.6261 20.1896C24.2031 19.7658 23.7829 19.3376 23.3528 18.9197C22.9317 18.5102 22.5083 18.099 22.1068 17.6672C21.7195 17.2511 21.2774 16.8876 20.9049 16.4576C20.6488 16.1623 20.2874 15.9701 20.0916 15.6181C20.1036 15.5722 20.1554 15.5213 20.0764 15.4857C20.2656 15.2595 20.4748 15.053 20.6997 14.8625C20.726 14.8857 20.7519 14.9089 20.7782 14.9317L20.7777 14.9321Z" fill="#00A29B"/>
<path d="M23.2741 25.4131C23.192 25.3208 23.1144 25.2236 23.0269 25.1361C21.0399 23.1477 19.0515 21.1602 17.0635 19.1726C16.8657 18.9749 16.8767 18.7884 17.0965 18.6133C17.2531 18.6191 17.3236 18.7493 17.4159 18.8417C19.3936 20.8154 21.3696 22.7909 23.3441 24.7673C23.7015 25.125 23.7809 25.0831 23.2737 25.4136L23.2741 25.4131Z" fill="#008090"/>
<path d="M23.9602 11.3138C24.2725 11.5502 24.5273 11.8469 24.8043 12.1203C25.1545 12.466 25.4972 12.8197 25.8465 13.1662C26.795 14.1083 27.7385 15.0561 28.7008 15.9843C28.9083 16.1841 28.6861 16.3733 28.7651 16.5548C28.6326 16.5548 28.5679 16.4495 28.4889 16.371C27.6212 15.5057 26.7468 14.6462 25.8907 13.7697C25.2273 13.0909 24.5915 12.3857 23.8733 11.7612C23.6912 11.6029 23.9161 11.4619 23.9607 11.3147L23.9602 11.3138Z" fill="#00C9A7"/>
<path d="M13.2901 21.4206C13.3463 21.5709 13.4547 21.6811 13.5663 21.7913C15.3673 23.5696 17.167 25.3489 18.9671 27.1277C19.0189 27.1785 19.0697 27.2307 19.1211 27.282C19.258 27.4185 19.2406 27.513 19.0457 27.5585C18.8953 27.5933 18.7445 27.6259 18.5937 27.6593C18.6834 27.5345 18.6093 27.4546 18.5223 27.3681C17.5136 26.3627 16.5295 25.3315 15.4931 24.3555C14.6053 23.5197 13.7719 22.6298 12.8859 21.7931C12.7766 21.69 12.6918 21.5611 12.5763 21.4206H13.2281C13.2491 21.3943 13.2696 21.3943 13.2901 21.4206Z" fill="#035D86"/>
<path d="M12.1897 21.22C12.2861 21.2454 12.3824 21.2708 12.4783 21.2967C12.2896 21.3872 12.2182 21.3681 12.1897 21.22Z" fill="#005681"/>
<path d="M13.2901 21.4206C13.2696 21.4206 13.2486 21.4206 13.2281 21.4206C13.2281 21.3992 13.2281 21.3774 13.2277 21.356C13.2625 21.3528 13.2977 21.3502 13.3325 21.347C13.3811 21.3564 13.4298 21.3662 13.4855 21.3769C13.4257 21.451 13.3521 21.4073 13.2901 21.4206Z" fill="#00547E"/>
<path d="M28.2039 18.7377C28.1829 18.7792 28.1619 18.8211 28.1414 18.8626C27.9616 18.8942 27.8889 18.7417 27.793 18.6458C26.0941 16.9526 24.3984 15.2563 22.7026 13.5601C22.3555 13.2126 22.3586 13.1903 22.7713 12.891C22.9208 12.8718 23.0341 12.945 23.1287 13.0453C24.7463 14.7603 26.4524 16.3879 28.108 18.0659C28.1967 18.1556 28.269 18.2542 28.3292 18.3634C28.2877 18.4883 28.2463 18.6128 28.2048 18.7377H28.2039Z" fill="#00BAA2"/>
<path d="M28.3281 18.3633C28.2504 18.296 28.1679 18.2331 28.0956 18.1604C26.6221 16.6889 25.1471 15.2188 23.6798 13.7411C23.4777 13.5377 23.2533 13.3534 23.0936 13.1077C23.0244 13.0011 22.904 12.9507 22.7751 12.9355C22.7478 12.9132 22.7072 12.9065 22.6965 12.8664C22.8215 12.7415 22.9464 12.6166 23.0708 12.4917C23.5384 12.8695 23.9368 13.3178 24.3602 13.7411C25.6013 14.9819 26.8308 16.2348 28.0921 17.4548C28.3878 17.7407 28.4918 17.9967 28.3281 18.3633Z" fill="#00BEA3"/>
<path d="M5.80225 14.4329V13.9463H5.86426C5.86426 14.1497 5.86426 14.3535 5.86426 14.5574C5.81429 14.5306 5.80403 14.4838 5.80225 14.4329Z" fill="#005580"/>
<path d="M6.05161 15.1194C6.07436 15.1783 6.09711 15.2367 6.11987 15.2956C5.98201 15.2813 5.9713 15.2184 6.05161 15.1194Z" fill="#125583"/>
<path d="M23.9701 10.874C23.9683 10.762 23.9612 10.6496 24.0169 10.5461C24.0111 10.6568 24.0615 10.7754 23.9701 10.874Z" fill="#00CFA9"/>
<path d="M27.5178 20.2974C27.4357 20.2046 27.3576 20.1078 27.2702 20.0204C25.4133 18.1622 23.5557 16.3053 21.698 14.4485C21.5985 14.349 21.4923 14.2549 21.4495 14.1135C21.6605 13.8668 21.8902 13.6389 22.1365 13.4275C22.3083 13.5038 22.1722 13.576 22.1347 13.6501C21.95 13.7906 21.9322 13.9034 22.12 14.0894C23.9799 15.9262 25.8162 17.7871 27.6748 19.6252C27.7221 19.672 27.806 19.7041 27.7676 19.7987C27.7676 19.8197 27.7676 19.8402 27.7676 19.8611C27.681 20.0048 27.6436 20.1765 27.5182 20.2978L27.5178 20.2974Z" fill="#00B2A0"/>
<path d="M22.0883 13.622C22.0852 13.5525 22.2391 13.5212 22.1356 13.4271C22.3225 13.2402 22.5095 13.0533 22.6964 12.8665C22.7227 12.8896 22.7486 12.9128 22.7749 12.9356C22.5551 13.1107 22.5438 13.297 22.741 13.4945C24.4483 15.2015 26.1557 16.9089 27.8644 18.6154C27.9518 18.7029 28.0486 18.7805 28.141 18.8625C28.0968 19.016 28.0821 19.1815 27.9541 19.2992C27.7676 19.3947 27.6904 19.2274 27.5971 19.136C27.0256 18.5753 26.4635 18.0057 25.896 17.441C24.6433 16.1943 23.4039 14.9347 22.1418 13.6979C22.1195 13.676 22.1012 13.6506 22.0883 13.622Z" fill="#00B7A2"/>
<path d="M22.0878 13.6221C22.2444 13.6279 22.3149 13.7581 22.4077 13.8504C24.1507 15.5895 25.8911 17.3313 27.6341 19.0709C27.7265 19.1632 27.7974 19.2934 27.954 19.2992V19.4241C27.8915 19.549 27.8291 19.6739 27.7666 19.7984C27.6377 19.6797 27.5039 19.5655 27.3798 19.4415C25.5578 17.623 23.7358 15.805 21.9183 13.9825C21.6738 13.7371 22.0352 13.7447 22.0883 13.6225L22.0878 13.6221Z" fill="#00B3A1"/>
<path d="M20.0914 15.6185C20.5219 15.9691 20.8935 16.3817 21.2942 16.7617C21.718 17.1636 22.1061 17.6003 22.5424 17.9906C22.977 18.3791 23.3633 18.8215 23.7747 19.2368C24.149 19.615 24.5344 19.9817 24.9029 20.3653C25.3428 20.8229 25.8367 21.2283 26.2378 21.7239C26.3314 21.8399 26.4448 21.9255 26.5817 21.9822C26.4987 22.107 26.4153 22.2315 26.3323 22.3564H26.2699C26.1847 22.2814 26.0945 22.211 26.0142 22.1307C24.0214 20.14 22.0298 18.1485 20.0379 16.1569C19.854 15.9731 19.872 15.7937 20.0918 15.6185H20.0914Z" fill="#009F9A"/>
<path d="M13.9 21.2271C13.9294 21.2391 13.9954 21.2636 13.9745 21.2712C13.8959 21.2998 13.8058 21.4104 13.7197 21.2792C13.7701 21.2284 13.8348 21.2275 13.9 21.2271Z" fill="#006186"/>
</svg>
