<svg width="29" height="29" viewBox="0 0 29 29" fill="none" xmlns="http://www.w3.org/2000/svg">
<path d="M21.2639 28.2683H7.68541C7.49669 28.2121 7.31155 28.1353 7.11882 28.1023C3.61222 27.5029 0.799801 24.3681 0.746265 20.8373C0.681576 16.554 0.715039 12.2689 0.716377 7.9847C0.716377 7.46685 0.723069 6.93651 0.827017 6.43248C1.63407 2.52742 4.72845 0.043885 8.82572 0.0229213C12.55 0.00374164 16.2748 0.0153386 19.9995 0.0229213C20.5184 0.0238133 21.0453 0.0322891 21.5548 0.11882C24.9561 0.696439 27.5289 3.12735 28.0527 6.54712C28.3168 8.27061 28.1669 10.0583 28.1861 11.8175C28.1874 11.9491 28.0714 12.1088 27.9666 12.2105C26.5724 13.5575 25.1988 14.9268 23.7622 16.2275C22.5349 17.339 21.3014 18.4661 19.9478 19.4104C18.3038 20.5576 16.4082 20.8743 14.4425 20.3721C13.9023 20.2338 13.6868 20.4126 13.5761 20.864C13.3923 21.6143 13.2317 22.3708 13.0546 23.154C12.9913 23.154 12.8904 23.1727 12.799 23.1513C11.1171 22.7517 9.51143 20.9086 9.42354 19.1856C9.39632 18.6557 9.22055 18.3069 8.84312 17.9577C7.83843 17.0268 7.39454 15.8648 7.60377 14.4915C7.74966 13.5343 8.19891 12.7069 8.81814 11.9843C10.8726 9.58775 13.4963 8.25053 16.6335 8.03376C18.3417 7.91556 19.8889 8.41155 20.9815 9.86296C21.4298 10.4589 21.4013 10.8634 20.8802 11.4013C20.7281 11.5583 20.5608 11.7096 20.3765 11.8264C18.5795 12.9674 16.6103 13.487 14.492 13.3131C13.043 13.1944 12.4974 12.5182 12.5201 11.0762C12.5219 10.966 12.4929 10.8558 12.4684 10.6734C11.5699 11.0008 11.0372 11.6172 10.6812 12.4014C10.1128 13.6525 10.4764 14.7306 11.3843 15.6418C9.68676 18.1347 10.2208 21.2338 12.4934 22.0028C12.7196 19.0438 14.8235 17.7186 17.1894 16.6236C17.9518 16.2707 18.7031 15.8934 19.4727 15.5571C22.0178 14.4451 23.4263 12.5258 23.6458 9.74788C23.8644 6.98245 22.9025 4.45832 20.2271 3.17195C18.2592 2.22545 16.2396 2.2937 14.2257 3.06579C7.94194 5.47484 3.70859 13.1311 4.53036 18.9372C4.84355 21.1499 5.79158 23.0108 7.62161 24.3605C11.2638 27.0479 16.323 26.787 20.0152 23.733C21.8385 22.2249 23.2527 20.36 24.65 18.4764C25.4607 17.3836 26.2838 16.2997 27.1283 15.2333C27.4022 14.8876 27.7609 14.6088 28.1968 14.1877C28.1968 16.1405 28.199 17.8974 28.1954 19.6544C28.1946 20.2548 28.2535 20.8667 28.1593 21.4528C27.5981 24.9368 25.0948 27.4757 21.6467 28.1188C21.5146 28.1434 21.3919 28.2183 21.2648 28.2696L21.2639 28.2683Z" fill="#E5770B"/>
</svg>
