<svg width="46" height="53" viewBox="0 0 46 53" fill="none" xmlns="http://www.w3.org/2000/svg">
<path d="M15.0286 41.0585C15.75 39.4188 18.6687 35.3523 19.259 34.5324C18.9639 34.3685 18.6031 33.9421 18.472 33.7454C16.9634 35.877 15.2581 38.4021 13.7168 41.616C14.0775 41.4848 14.6678 41.2224 15.0286 41.0585Z" fill="white"/>
<path d="M14.2399 29.1542C14.5678 28.7935 15.2565 28.0064 15.5845 27.5473C17.4537 25.1534 19.5198 22.825 22.1761 21.3492C23.4879 20.6278 25.6195 20.1358 26.6033 21.2508C26.8001 21.4804 26.8985 21.7756 27.1608 21.7428C27.2592 21.7428 27.3248 21.6772 27.3904 21.6116C28.0462 20.7917 28.9645 18.2338 29.4236 17.1516C29.686 16.5285 29.2268 16.0366 28.3742 15.3151C27.3248 14.4296 25.7179 14.9216 24.4717 15.4463C20.1756 17.2499 17.1914 21.4476 13.9775 24.8582C14.0759 26.6619 14.1743 27.7769 14.2399 29.1542Z" fill="white"/>
<path d="M45.3634 30.6952C45.1995 30.6296 45.0355 30.6296 44.8715 30.5641C43.035 30.0394 42.9694 30.3017 40.3131 28.6948C40.1164 28.5636 39.854 28.6292 39.7228 28.8588C39.3949 29.4491 38.8046 30.5313 38.3783 31.1216C37.7552 31.9742 37.2633 33.0892 37.624 34.073C37.7224 34.3354 38.1815 34.4994 38.1815 34.7617C38.1815 35.0241 37.2305 36.5326 36.2794 37.0901C35.394 37.6148 34.2134 37.6804 33.4263 37.0901C33.328 37.0245 33.164 37.0245 33.0984 37.1557L31.7538 39.3201C31.5899 39.5497 31.3931 40.0744 30.8356 40.3039C30.6388 40.3695 30.4421 40.3695 30.2453 40.2711C29.0647 39.5825 28.9007 40.1072 28.6056 40.9926C28.376 41.6813 27.6873 42.6979 26.9659 42.7635C26.6379 42.7963 26.2116 42.6979 25.9493 42.5012C24.3095 41.3534 22.801 41.8125 21.5548 43.485C20.4398 44.9935 19.5216 46.83 17.6195 47.3547C16.6357 47.617 15.1928 47.3219 14.6025 46.502C13.717 47.1251 12.1429 47.781 11.3886 48.0434C11.1919 49.1584 11.2574 50.9293 12.6348 51.9787C15.0944 53.8479 17.39 52.6674 17.9147 52.2082C18.9969 51.29 19.3904 50.0438 20.5054 48.896C21.0957 48.2729 21.8828 47.6498 22.7354 47.781C23.1617 47.8466 23.5553 48.0762 24.0144 48.1745C25.7525 48.6665 27.3266 45.8134 27.425 45.8134C29.1631 45.7478 30.7372 43.7801 30.9996 43.157C31.1307 42.8291 31.3275 42.7963 31.4259 42.7963C31.885 42.8291 33.164 42.9931 33.9182 42.7635C34.443 42.5995 36.0499 40.9598 37.0665 39.6808C38.0831 38.4019 39.1325 38.0739 39.5588 37.9428C40.5099 37.6804 41.3953 38.3035 42.2808 37.8444C42.8711 37.5492 43.2646 36.9589 43.6253 36.4342C44.4124 35.188 45.1339 33.9091 45.7242 32.5645C45.9209 31.8758 46.1505 31.056 45.3634 30.6952Z" fill="white"/>
<path d="M11.3227 47.9451H11.3555C12.7329 47.4532 14.307 46.5678 14.5366 46.4366L14.6022 46.4038C14.635 46.4038 14.6678 46.371 14.6678 46.371C19.095 43.7147 23.0959 40.2057 25.2931 34.893L25.3259 34.8603C33.9835 33.6469 41.7886 27.6455 45.232 19.6109C45.7239 18.4959 46.1174 17.217 45.6911 16.0692C45.2647 14.9214 44.0842 14.1671 42.838 13.9703C41.6246 13.7736 40.3784 14.0687 39.1978 14.4622C37.3613 15.0525 35.5249 16.1348 33.8852 17.217C33.8524 17.2498 33.8196 17.217 33.8196 17.1514C35.1313 9.18239 33.1637 7.08355 34.0163 0.459117C34.0491 0.163969 33.7212 0 33.4916 0.163971C31.1304 2.03324 30.3434 6.69002 30.8025 9.80547C31.5896 15.1181 31.2288 18.7583 31.2288 19.0206V19.0534C29.0644 21.0867 26.5721 23.6446 26.0145 24.2021C26.3097 24.3661 27.064 24.7924 27.3919 25.7435C28.015 25.0876 30.9993 22.0705 34.5738 20.1684C38.0172 18.332 40.6736 18.7911 41.6574 19.5126C42.4772 20.1028 42.9692 21.5786 42.7724 21.8081C41.4934 23.2839 36.2135 27.7439 28.7037 29.2524C28.4741 29.2852 27.5559 29.4492 27.3263 29.482C27.2935 29.482 27.2607 29.4492 27.2607 29.4164C27.2607 29.0557 27.3263 26.9568 27.2607 25.9074C27.1951 25.3827 26.5065 24.5629 25.8506 24.3333C25.6538 24.2677 24.7356 24.0382 23.9485 24.0382C22.8991 24.0382 21.4562 24.2677 20.6363 25.4155C19.9476 26.3993 19.3901 27.3832 18.767 28.8261C18.6031 29.1868 17.1929 31.7448 18.5047 33.5485C18.6359 33.7452 18.8982 34.0732 19.3573 34.4011C19.5213 34.4995 20.2428 34.893 20.9642 34.9586C21.6201 35.0242 23.0303 34.9586 23.4566 34.9586C23.4894 34.9586 23.5222 34.9914 23.4894 35.0242C23.1942 35.4178 21.8497 36.9919 19.7836 38.4348C18.1439 39.5498 17.652 39.8778 16.0779 40.6976C15.8483 40.8288 15.2908 41.0911 15.0285 41.1895C14.7661 41.3207 13.9463 41.6814 13.52 41.8454C13.3888 41.911 12.4377 42.2717 12.0442 42.4029C9.91259 43.1572 7.35464 42.6981 5.64934 41.2223C3.91125 39.7466 3.02581 37.2214 3.38655 35.1226L3.71449 34.106C3.71449 34.0732 3.74728 34.0732 3.78007 34.0732C4.10802 34.1388 6.07567 34.4339 7.35465 34.106C8.92877 33.7124 9.847 33.2205 10.2405 32.9582C10.2077 30.3346 10.011 28.9901 9.91259 27.9407C9.61744 28.0391 9.09273 28.2358 8.53523 28.367C6.82993 28.7933 6.23964 28.4982 5.55096 28.3342C4.86228 28.1702 4.37037 27.8095 3.81287 27.3504C3.22257 26.8913 2.89463 26.0058 2.79625 25.3171C2.69787 24.4645 2.10757 20.9883 4.46875 15.2165C6.17405 11.0844 8.1417 8.65768 8.60082 8.13297C8.63362 8.10018 8.6992 8.13296 8.6992 8.16576C8.732 12.5602 8.99435 17.1186 9.42068 20.6604C9.65024 22.628 10.1094 27.3176 10.1422 27.7767C10.3061 29.5476 10.5029 31.4169 10.4701 32.8598C10.3389 36.0408 9.45348 38.3364 8.83039 40.96C8.79759 41.1567 8.89597 41.5175 9.09274 41.3863C11.2572 38.5988 12.8313 35.3194 13.6183 31.876C13.7823 31.1217 14.0119 29.6788 14.0447 29.318C14.0119 28.0063 13.9463 27.2192 13.7495 24.8252C13.0936 15.2493 11.7819 9.77267 12.6017 0.491913C12.6345 0.295148 12.5689 0 12.3394 0C12.241 0 12.1426 0.0328002 12.1098 0.0983886C11.7163 0.524713 10.5029 2.03325 10.5029 2.06604C6.37081 7.18194 2.92743 12.8881 1.15654 19.1846C0.664625 20.9883 -0.0896415 25.1532 0.00874111 28.5638C0.107124 31.4496 2.40272 33.2533 2.69787 33.4829C2.73066 33.4829 2.73066 33.5157 2.69787 33.5485C2.63228 33.7125 2.40272 34.3027 2.36992 34.4667C1.9108 36.0736 1.77963 36.2704 1.3533 37.8773C1.09095 38.7956 0.730214 41.0911 0.828596 42.0422C0.959773 43.1572 1.18933 44.1082 1.81242 45.0265C2.40272 45.9119 3.15699 46.6334 4.04243 47.1909C5.78052 48.3059 7.94494 48.4043 8.66642 48.3387C8.96156 48.4043 10.4045 48.2731 11.3227 47.9451Z" fill="white"/>
</svg>
