<svg width="52" height="60" viewBox="0 0 52 60" fill="none" xmlns="http://www.w3.org/2000/svg">
<path d="M17.0132 46.4814C17.83 44.6251 21.1341 40.0216 21.8024 39.0934C21.4683 38.9078 21.0599 38.4251 20.9114 38.2024C19.2036 40.6156 17.2731 43.4742 15.5282 47.1125C15.9366 46.964 16.6048 46.667 17.0132 46.4814Z" fill="#3B9869"/>
<path d="M16.1203 33.0047C16.4915 32.5963 17.2711 31.7053 17.6424 31.1855C19.7585 28.4754 22.0975 25.8395 25.1046 24.1688C26.5896 23.3521 29.0028 22.7952 30.1166 24.0574C30.3393 24.3173 30.4507 24.6515 30.7477 24.6143C30.8591 24.6143 30.9333 24.5401 31.0076 24.4658C31.7501 23.5377 32.7896 20.6419 33.3094 19.4168C33.6064 18.7114 33.0866 18.1545 32.1213 17.3377C30.9333 16.3353 29.1142 16.8922 27.7034 17.4862C22.84 19.5281 19.4615 24.2802 15.8232 28.1413C15.9346 30.1832 16.046 31.4454 16.1203 33.0047Z" fill="#3B9869"/>
<path d="M51.3547 34.7495C51.169 34.6753 50.9834 34.6753 50.7978 34.601C48.7187 34.007 48.6445 34.304 45.6373 32.4849C45.4146 32.3364 45.1176 32.4106 44.9691 32.6705C44.5978 33.3388 43.9295 34.5639 43.4469 35.2322C42.7415 36.1974 42.1846 37.4597 42.593 38.5734C42.7044 38.8705 43.2242 39.0561 43.2242 39.3531C43.2242 39.6501 42.1475 41.3579 41.0709 41.989C40.0685 42.583 38.732 42.6573 37.841 41.989C37.7296 41.9148 37.544 41.9148 37.4697 42.0633L35.9476 44.5135C35.7619 44.7734 35.5392 45.3674 34.908 45.6273C34.6853 45.7015 34.4625 45.7016 34.2398 45.5902C32.9033 44.8105 32.7176 45.4045 32.3835 46.4069C32.1236 47.1866 31.344 48.3375 30.5272 48.4117C30.156 48.4488 29.6733 48.3375 29.3763 48.1147C27.5201 46.8153 25.8123 47.3351 24.4015 49.2285C23.1393 50.9363 22.0997 53.0153 19.9465 53.6093C18.8327 53.9063 17.1992 53.5722 16.5309 52.644C15.5285 53.3494 13.7465 54.0919 12.8926 54.3889C12.6699 55.6512 12.7441 57.656 14.3034 58.844C17.0878 60.9601 19.6866 59.6236 20.2806 59.1039C21.5057 58.0644 21.9512 56.6536 23.2135 55.3542C23.8818 54.6488 24.7728 53.9434 25.738 54.0919C26.2207 54.1662 26.6662 54.426 27.1859 54.5374C29.1536 55.0943 30.9356 51.8644 31.047 51.8644C33.0146 51.7901 34.7967 49.5626 35.0937 48.8572C35.2422 48.486 35.4649 48.4488 35.5763 48.4488C36.0961 48.486 37.544 48.6716 38.3979 48.4117C38.9919 48.2261 40.811 46.3698 41.9619 44.9219C43.1128 43.474 44.3008 43.1028 44.7834 42.9543C45.8601 42.6573 46.8625 43.3626 47.8649 42.8429C48.5331 42.5088 48.9786 41.8405 49.387 41.2465C50.278 39.8357 51.0948 38.3878 51.763 36.8657C51.9858 36.086 52.2457 35.1579 51.3547 34.7495Z" fill="#3B9869"/>
<path d="M12.8182 54.2775H12.8553C14.4146 53.7206 16.1966 52.7182 16.4565 52.5697L16.5307 52.5326C16.5679 52.5326 16.605 52.4955 16.605 52.4955C21.6169 49.4883 26.1463 45.5159 28.6337 39.5015L28.6708 39.4644C38.4719 38.0908 47.3078 31.2968 51.206 22.2011C51.7629 20.9388 52.2084 19.4909 51.7257 18.1915C51.2431 16.8921 49.9066 16.0382 48.4958 15.8155C47.1222 15.5927 45.7114 15.9268 44.3749 16.3724C42.2958 17.0406 40.2168 18.2658 38.3606 19.4909C38.3234 19.528 38.2863 19.4909 38.2863 19.4167C39.7713 10.3952 37.5438 8.01911 38.5091 0.519755C38.5462 0.185625 38.1749 0 37.915 0.185628C35.242 2.30178 34.351 7.5736 34.8708 11.1005C35.7618 17.1149 35.3534 21.2358 35.3534 21.5328V21.5699C32.9031 23.8717 30.0816 26.7675 29.4504 27.3986C29.7846 27.5843 30.6384 28.0669 31.0097 29.1435C31.7151 28.401 35.0935 24.9855 39.1402 22.8322C43.0384 20.7532 46.0455 21.2729 47.1593 22.0897C48.0874 22.7579 48.6443 24.4286 48.4216 24.6885C46.9737 26.3591 40.9965 31.4082 32.4947 33.116C32.2348 33.1531 31.1953 33.3387 30.9354 33.3758C30.8983 33.3758 30.8612 33.3387 30.8612 33.3016C30.8612 32.8932 30.9354 30.5172 30.8612 29.3292C30.7869 28.7351 30.0073 27.807 29.2648 27.5471C29.042 27.4729 28.0025 27.213 27.1115 27.213C25.9235 27.213 24.29 27.4729 23.3618 28.7723C22.5822 29.886 21.9511 30.9998 21.2457 32.6333C21.0601 33.0417 19.4637 35.9375 20.9487 37.9794C21.0972 38.2022 21.3942 38.5734 21.9139 38.9447C22.0996 39.056 22.9163 39.5016 23.7331 39.5758C24.4756 39.6501 26.072 39.5758 26.5546 39.5758C26.5918 39.5758 26.6289 39.6129 26.5918 39.6501C26.2576 40.0956 24.7355 41.8776 22.3966 43.5111C20.5403 44.7734 19.9834 45.1446 18.2014 46.0728C17.9415 46.2213 17.3104 46.5183 17.0134 46.6297C16.7164 46.7782 15.7882 47.1865 15.3056 47.3722C15.1571 47.4464 14.0805 47.8548 13.635 48.0033C11.2218 48.8572 8.32601 48.3374 6.39548 46.6668C4.42783 44.9961 3.42544 42.1375 3.83382 39.7614L4.20508 38.6105C4.20508 38.5734 4.2422 38.5734 4.27933 38.5734C4.65058 38.6477 6.87812 38.9818 8.32601 38.6105C10.108 38.165 11.1475 37.6081 11.5931 37.3111C11.5559 34.3411 11.3332 32.819 11.2218 31.6309C10.8877 31.7423 10.2937 31.9651 9.66252 32.1136C7.732 32.5962 7.06374 32.2621 6.28411 32.0764C5.50447 31.8908 4.94759 31.4824 4.31645 30.9627C3.64819 30.4429 3.27694 29.4405 3.16556 28.6609C3.05419 27.6956 2.38593 23.7603 5.05896 17.2262C6.98949 12.5484 9.21702 9.80114 9.73678 9.20714C9.7739 9.17001 9.84815 9.20713 9.84815 9.24425C9.88528 14.2191 10.1823 19.3795 10.6649 23.3891C10.9248 25.6166 11.4446 30.9256 11.4817 31.4453C11.6673 33.4501 11.8901 35.5662 11.8529 37.1998C11.7044 40.8009 10.702 43.3997 9.99666 46.3698C9.95954 46.5925 10.0709 47.0009 10.2937 46.8524C12.7439 43.6967 14.526 39.9842 15.417 36.086C15.6026 35.2321 15.8625 33.5986 15.8996 33.1902C15.8625 31.7052 15.7882 30.8142 15.5655 28.104C14.823 17.2634 13.338 11.0634 14.2661 0.556883C14.3032 0.33413 14.229 0 13.9691 0C13.8577 0 13.7463 0.0371323 13.7092 0.111383C13.2637 0.594015 11.8901 2.30179 11.8901 2.33891C7.21224 8.1305 3.31407 14.5903 1.30929 21.7184C0.752406 23.7603 -0.101481 28.4753 0.00989559 32.3363C0.121272 35.6034 2.72006 37.6453 3.05419 37.9052C3.09131 37.9052 3.09131 37.9423 3.05419 37.9794C2.97994 38.165 2.72006 38.8333 2.68293 39.0189C2.16317 40.8381 2.01467 41.0608 1.53204 42.88C1.23503 43.9195 0.826657 46.5183 0.938033 47.5949C1.08654 48.8572 1.34641 49.9338 2.0518 50.9733C2.72006 51.9757 3.57395 52.7925 4.57633 53.4236C6.54399 54.6859 8.99427 54.7973 9.81104 54.723C10.1452 54.7973 11.7787 54.6488 12.8182 54.2775Z" fill="#3B9869"/>
</svg>
