<svg width="26" height="29" viewBox="0 0 26 29" fill="none" xmlns="http://www.w3.org/2000/svg">
<path d="M10.8661 0.800758C11.5598 0.415381 12.3062 0.0630078 13.1124 0.0335693C13.1173 1.68703 13.1128 3.34094 13.1142 4.99441C13.107 5.56935 13.1293 6.14518 13.1021 6.71923L13.0946 6.72325C12.2393 6.21566 11.3564 5.75579 10.4905 5.26604C9.22792 4.56442 7.96135 3.86816 6.70013 3.16342C8.08582 2.37081 9.47687 1.58668 10.8666 0.800758H10.8661Z" fill="#B6CC41"/>
<path d="M13.1127 0.0340576C14.0563 0.0478848 14.8977 0.541206 15.7016 0.985013C16.9718 1.71027 18.2535 2.41813 19.5138 3.15811C17.7302 4.13805 15.9524 5.13004 14.171 6.11534C13.8163 6.31918 13.4473 6.49982 13.1029 6.72017H13.1025C13.1297 6.14611 13.1074 5.57028 13.1145 4.99534C13.1132 3.34187 13.1176 1.68797 13.1127 0.0345041V0.0340576Z" fill="#7BB236"/>
<path d="M19.5139 3.15772L19.5327 3.1488L19.547 3.16575C19.5318 5.59621 19.5501 8.02667 19.538 10.4567L19.5148 10.4714C17.3823 9.21224 15.2324 7.9834 13.1035 6.71933C13.4479 6.49899 13.8168 6.31835 14.1715 6.11451C15.9529 5.12966 17.7307 4.13767 19.5144 3.15728L19.5139 3.15772Z" fill="#51AA9B"/>
<path d="M2.35017 5.66092C3.78136 4.8237 5.22238 4.00299 6.66249 3.18005C6.66606 5.61007 6.65802 8.03964 6.66739 10.4688C6.00801 10.144 5.3803 9.75733 4.73118 9.41343C3.38029 8.65606 2.01556 7.92277 0.671814 7.15336C1.04701 6.48475 1.69657 6.03023 2.3506 5.66047L2.35017 5.66092Z" fill="#EC742F"/>
<path d="M6.66205 3.18044L6.69995 3.16394C7.96117 3.86868 9.22731 4.56495 10.4903 5.26656C11.3563 5.75631 12.2396 6.21617 13.0944 6.72377C10.9784 7.95706 8.8646 9.19437 6.74681 10.4241C6.72673 10.4352 6.68703 10.4576 6.66695 10.4696C6.65758 8.04003 6.66562 5.6109 6.66205 3.18089V3.18044Z" fill="#F1A73D"/>
<path d="M19.5465 3.16589C20.9491 3.96162 22.346 4.7685 23.7388 5.58163C24.4357 5.9795 25.1807 6.41706 25.5621 7.15525C23.5679 8.26678 21.567 9.36626 19.5733 10.4787L19.538 10.4568C19.5496 8.02681 19.5318 5.59635 19.547 3.16589H19.5465Z" fill="#61D4BB"/>
<path d="M13.094 6.72313L13.1016 6.71912H13.1021C15.231 7.98319 17.3809 9.21202 19.5135 10.4712C17.3863 11.6746 15.2399 12.8441 13.1043 14.0324C12.0581 13.4659 11.0227 12.8785 9.97871 12.308C8.90353 11.7036 7.81586 11.1197 6.74693 10.5064C6.74648 10.4855 6.74648 10.444 6.74603 10.423C8.86382 9.19329 10.9776 7.95598 13.0936 6.72269L13.094 6.72313Z" fill="white"/>
<path d="M0.314102 8.27053C0.385038 7.88604 0.472044 7.49397 0.670573 7.1532C2.01432 7.92261 3.37903 8.6559 4.72992 9.41327C5.37904 9.75717 6.00674 10.1439 6.66613 10.4686L6.66079 10.4717C4.5082 11.7197 2.36051 12.9749 0.21283 14.2314C0.221752 12.9901 0.213737 11.7478 0.21686 10.5061C0.219983 9.75985 0.194985 9.00961 0.314102 8.27008V8.27053Z" fill="#E54B50"/>
<path d="M19.5726 10.4791C21.5664 9.36665 23.5673 8.26717 25.5615 7.15564C25.8578 7.70471 25.947 8.33496 25.9965 8.94648C26.0005 10.7123 25.9965 12.4787 25.9987 14.2445L25.9653 14.2494C25.8417 14.1098 25.6664 14.0407 25.5111 13.9466C23.5325 12.7882 21.549 11.6388 19.5722 10.4791H19.5726Z" fill="#7A4385"/>
<path d="M6.66716 10.4687C6.68723 10.4571 6.72694 10.4344 6.74702 10.4232C6.74746 10.4442 6.74746 10.4857 6.74791 10.5066C7.81684 11.1195 8.90451 11.7038 9.97969 12.3082C11.0236 12.8787 12.0591 13.4656 13.1053 14.0326C13.1071 16.4742 13.1156 18.9162 13.1008 21.3583C10.9558 20.1736 8.8135 18.9845 6.67073 17.7962L6.65912 17.7904C6.66626 15.3506 6.66136 12.9112 6.66136 10.4718L6.6667 10.4687H6.66716Z" fill="#E2E2E2"/>
<path d="M19.5145 10.4711L19.5377 10.4564C19.5409 12.9034 19.5386 15.3508 19.5386 17.7982L19.5297 17.8022C17.3825 18.9793 15.246 20.1769 13.1005 21.358C13.1152 18.916 13.1068 16.4739 13.105 14.0323C15.2402 12.8441 17.387 11.6745 19.5141 10.4711H19.5145Z" fill="#EFEFEF"/>
<path d="M19.538 10.4564L19.5733 10.4783C21.5501 11.638 23.5331 12.7879 25.5122 13.9458C25.6674 14.0399 25.8428 14.109 25.9663 14.2486C23.8195 15.4239 21.6884 16.6278 19.5394 17.7982C19.5394 15.3508 19.5411 12.9034 19.5385 10.4564H19.538Z" fill="#4C3682"/>
<path d="M0.213806 14.2317C2.36149 12.9752 4.5096 11.7201 6.66175 10.472C6.66175 12.9114 6.66666 15.3508 6.65952 17.7906C5.37645 17.1131 4.11969 16.3838 2.8442 15.6907C1.97335 15.2085 1.10338 14.725 0.232976 14.2424L0.213806 14.2317Z" fill="#7A4385"/>
<path d="M0.232332 14.2426C1.10318 14.7252 1.97315 15.2087 2.84356 15.6908C4.11905 16.384 5.37536 17.1132 6.65888 17.7908L6.67047 17.7966C4.68964 18.9433 2.71729 20.1035 0.737803 21.2525C0.371974 20.6691 0.283652 19.9621 0.236362 19.2886C0.194425 17.9728 0.226538 16.6543 0.216277 15.3371C0.226092 14.9727 0.196205 14.6021 0.231896 14.2426H0.232332Z" fill="#4C3682"/>
<path d="M19.5391 17.799C21.6882 16.6286 23.8198 15.4247 25.9661 14.2494L25.9996 14.2445C25.9978 15.7459 25.9991 17.2472 25.9987 18.749C26.0112 19.605 25.9407 20.514 25.4861 21.2634C23.7827 20.2776 22.087 19.2803 20.3859 18.291C20.0995 18.1299 19.8233 17.9511 19.5302 17.803L19.5391 17.799Z" fill="#E54B50"/>
<path d="M0.73822 21.2527C2.71771 20.1037 4.69006 18.9435 6.67089 17.7968C6.65349 20.2352 6.66555 22.6751 6.66466 25.1145C5.54263 24.4704 4.41525 23.837 3.29368 23.192C2.83059 22.9249 2.35993 22.6688 1.91335 22.3744C1.4632 22.0711 1.02642 21.7201 0.73822 21.2527Z" fill="#2C699E"/>
<path d="M6.67055 17.7957C8.81332 18.984 10.9552 20.1736 13.1006 21.3578L13.1123 21.364C10.9583 22.5955 8.82447 23.8641 6.67634 25.1063L6.66432 25.113C6.66521 22.6736 6.65315 20.2342 6.67055 17.7953V17.7957Z" fill="#57BBC9"/>
<path d="M13.1015 21.3589C15.2465 20.1778 17.3835 18.9802 19.5307 17.8031C19.553 20.2434 19.5312 22.6841 19.5419 25.1239L19.5272 25.115C17.3951 23.8549 15.2479 22.6216 13.1131 21.3652L13.1015 21.3589Z" fill="#F1A73D"/>
<path d="M19.5302 17.8031C19.8233 17.9512 20.0995 18.1305 20.3859 18.2911C22.087 19.2799 23.7832 20.2777 25.4861 21.2635C25.2282 21.7273 24.7888 22.0507 24.3618 22.3487C23.7029 22.7795 23.0074 23.1502 22.3275 23.5458C21.3991 24.0731 20.4716 24.6012 19.5414 25.1244C19.5307 22.6841 19.5525 20.2434 19.5302 17.8035V17.8031Z" fill="#EC742F"/>
<path d="M6.6767 25.1069C8.82482 23.8647 10.9587 22.5961 13.1126 21.3646C13.1148 23.6595 13.1171 25.9539 13.1113 28.2483C12.5661 28.2314 12.0223 28.082 11.5431 27.8215C9.92053 26.9178 8.2859 26.032 6.6767 25.1069Z" fill="#7BB236"/>
<path d="M13.1126 21.3651C15.2469 22.6216 17.3946 23.8549 19.5266 25.1149C18.8142 25.532 18.0829 25.9196 17.3624 26.3241C16.3876 26.8625 15.4164 27.4066 14.4394 27.9406C14.0254 28.1324 13.5699 28.255 13.1113 28.2483C13.1171 25.9539 13.1153 23.6595 13.1126 21.3646V21.3651Z" fill="#B6CC41"/>
</svg>
