<svg width="107" height="135" viewBox="0 0 107 135" fill="none" xmlns="http://www.w3.org/2000/svg">
<path d="M53.6791 98.3983C41.2964 98.3983 31.5205 94.8379 23.0931 87.7625C15.0702 81.0272 9.92382 72.3871 8.12597 61.978C5.78876 48.4168 9.24963 36.375 18.2389 26.034C25.0932 18.1421 33.7679 13.2664 43.9482 11.5203C57.9715 9.11643 70.6688 12.4954 81.5683 21.7706C89.7935 28.778 94.8724 37.7583 96.3782 48.5529C97.9962 60.2318 95.2545 70.913 88.1979 80.3696C81.5908 89.2365 72.8038 94.7699 62.1515 97.3098C58.9378 98.1262 55.6567 98.5344 53.6791 98.3983ZM95.1646 54.9933C94.9623 52.7029 94.85 50.4124 94.5129 48.1447C93.2768 40.2302 89.9958 33.2454 84.6471 27.3039C74.7589 16.3279 62.3987 11.679 47.8361 12.7675C42.465 13.1757 37.386 14.7632 32.5543 17.1443C18.0591 24.2878 8.55296 39.7086 9.29457 55.9231C9.45188 59.4608 9.96877 62.9532 11.0025 66.3548C13.0026 72.9994 16.5309 78.7368 21.3627 83.6352C29.3856 91.7538 39.1839 95.9718 50.4879 96.5614C55.5444 96.8336 60.511 96.0625 65.3202 94.5431C73.433 91.9805 80.2424 87.377 85.636 80.7551C91.7262 73.2942 94.9399 64.722 95.1646 54.9933Z" fill="black"/>
<path d="M32.4872 119.761C32.667 119.579 32.8018 119.353 33.0041 119.194C34.4424 118.151 35.2739 116.677 36.0604 115.135C36.7346 113.819 37.1167 113.66 38.4875 114.182C40.8023 115.044 43.2069 115.044 45.6116 114.908C49.5893 114.704 53.4322 113.933 57.0279 112.141C57.5673 111.869 58.0842 111.551 58.601 111.257C58.8483 111.121 59.073 110.939 59.3651 110.735C58.7359 110.168 58.9381 109.578 59.2977 109.012C59.7022 108.377 60.1292 107.742 60.6461 107.175C60.8484 106.948 61.3653 106.721 61.5675 106.834C61.8597 106.971 62.1518 107.424 62.1518 107.742C62.1518 108.354 61.9496 108.966 61.8372 109.533C63.1182 109.216 63.7025 108.513 63.7249 107.039C63.7474 105.474 63.9946 104 64.7587 102.616C64.8486 102.458 64.9834 102.299 65.2531 102.208C64.8935 104.204 64.6014 106.2 64.1744 108.172C63.8598 109.692 62.7811 110.508 61.3428 110.939C60.9832 111.053 60.6236 111.234 60.3315 111.461C56.3987 114.794 51.7917 116.586 46.7577 117.357C44.3081 117.742 41.8585 117.81 39.4314 117.198C38.5774 116.994 37.7459 116.631 36.9819 116.2C36.4425 115.906 36.1953 116.019 35.9481 116.518C35.5885 117.244 35.2065 117.969 34.8469 118.695C34.375 119.647 33.521 119.851 32.5996 119.919C32.5546 119.897 32.5097 119.829 32.4872 119.761ZM61.6799 109.057C60.8484 108.15 60.2641 108.127 59.7921 108.83C59.6798 109.012 59.5899 109.306 59.6573 109.465C59.7247 109.624 60.0618 109.805 60.2191 109.76C60.7135 109.578 61.1405 109.329 61.6799 109.057Z" fill="black"/>
<path d="M16.801 110.984C17.1831 108.875 18.6888 107.651 20.172 106.403C22.0373 104.839 23.97 103.319 25.8352 101.777C26.3072 101.392 26.6892 100.938 27.1387 100.507C27.2061 100.575 27.296 100.621 27.3634 100.689C26.9139 101.301 26.5768 102.049 26.0375 102.548C23.7452 104.589 21.3631 106.539 19.0259 108.512C18.509 108.943 18.0146 109.397 17.3179 110.009C18.891 110.123 19.5877 111.211 20.5091 112.027C20.8237 112.3 21.4754 112.662 21.6777 112.526C22.0373 112.3 22.3519 111.71 22.3744 111.279C22.4643 109.782 22.4643 108.263 23.2059 106.902C23.3182 106.676 23.4531 106.471 23.5879 106.267C23.6553 106.29 23.7452 106.313 23.8126 106.335C23.498 108.286 23.3182 110.281 22.8238 112.186C22.3519 113.955 21.3406 114.114 20.0147 112.844C19.9023 112.73 19.8574 112.572 19.7899 112.413C19.363 113.32 19.0933 114.136 18.6438 114.817C18.3292 115.293 17.8573 115.792 17.3404 116.019C16.2392 116.472 15.6099 117.289 15.138 118.332C14.3739 120.078 12.7558 120.985 10.6658 120.804C10.9355 120.554 11.0928 120.35 11.3176 120.191C12.1715 119.579 13.0929 119.035 13.8795 118.355C14.3739 117.924 14.8009 117.334 15.0706 116.744C15.6549 115.52 16.4639 114.59 17.7224 114.091C17.8572 114.046 18.0146 113.978 18.1494 113.887C19.1382 113.365 19.2281 112.526 18.3067 111.846C17.8573 111.506 17.3179 111.279 16.801 110.984Z" fill="black"/>
<path d="M23.3628 114.567C23.1156 115.157 22.8459 115.747 22.6437 116.359C22.4639 116.926 22.2841 117.515 22.2616 118.128C22.1942 119.488 22.756 120.259 24.037 120.645C26.8462 121.507 30.5318 119.556 31.1161 116.812C31.3183 115.86 31.206 114.817 31.206 113.819C31.2284 112.867 31.8127 111.347 32.442 110.803C32.5319 115.361 31.7453 119.511 27.9249 122.459C26.8012 123.344 25.4978 123.774 24.0145 123.57C22.6661 123.389 21.6324 122.573 21.3852 121.235C20.9357 118.717 21.992 116.586 23.1156 114.477C23.2055 114.499 23.2729 114.522 23.3628 114.567Z" fill="black"/>
<path d="M67.6578 114.93C67.3882 115.679 67.0735 116.427 66.8263 117.198C66.0847 119.557 67.0286 120.94 69.4557 121.167C71.6581 121.371 74.3099 119.874 75.1414 117.81C75.4336 117.107 75.456 116.268 75.4336 115.497C75.3886 114.205 75.456 112.957 76.0403 111.801C76.1527 111.551 76.31 111.325 76.4898 111.12C76.6921 115.633 76.0628 119.829 72.2424 122.799C71.1412 123.661 69.8602 124.115 68.4219 123.888C66.6465 123.616 65.5454 122.233 65.6802 120.26C65.7926 118.4 66.4218 116.654 67.3432 115.044C67.3882 114.953 67.4331 114.862 67.478 114.749C67.5455 114.817 67.6129 114.862 67.6578 114.93Z" fill="black"/>
<path d="M17.3622 106.063C16.9801 107.968 14.8676 108.15 13.9912 109.579C14.4182 109.76 14.8901 109.873 15.2497 110.168C15.4744 110.35 15.6991 110.826 15.6093 111.075C15.2497 112.232 14.6204 113.139 13.3395 113.434C12.5978 113.592 11.9012 113.887 11.182 114.159C9.06956 114.953 8.23805 116.631 8.05826 118.763C7.85601 121.507 7.65375 124.228 7.45149 126.972C7.40654 127.471 7.38407 127.97 7.18181 128.469C7.11439 127.29 7.0245 126.133 6.97955 124.954C6.86719 121.87 7.20429 118.854 8.26052 115.928C8.91225 114.182 9.99096 112.821 11.609 111.892C11.9012 111.733 12.1484 111.393 12.2832 111.098C13.3619 108.762 15.2497 107.311 17.3622 106.063Z" fill="black"/>
<path d="M89.4115 108.218C89.2092 109.601 88.9396 110.984 88.8272 112.39C88.7373 113.434 88.6699 114.522 88.8721 115.52C89.1868 117.198 90.9397 117.765 92.2656 116.722C92.7375 116.359 93.1196 115.747 93.8837 116.064C93.9286 116.087 94.0634 116.041 94.0859 115.973C94.6927 115.157 96.0411 115.066 96.1984 113.819C96.1984 113.796 96.2883 113.774 96.4681 113.66C96.4231 114.726 96.0636 115.52 95.3444 116.155C94.9174 116.54 94.4904 116.926 94.0185 117.266C93.7488 117.447 93.3668 117.697 93.1196 117.629C92.5577 117.47 92.2881 117.765 92.0184 118.128C91.7936 118.423 91.6139 118.74 91.3667 119.012C90.8498 119.625 90.2205 120.033 89.389 119.851C88.6025 119.67 88.0856 119.126 87.9507 118.355C87.7934 117.493 87.6361 116.586 87.7035 115.701C87.8159 114.091 87.9957 112.504 88.2878 110.916C88.4676 109.964 88.8946 109.057 89.2092 108.127C89.2767 108.172 89.3441 108.195 89.4115 108.218Z" fill="black"/>
<path d="M80.0855 108.24C79.7933 110.213 79.4787 112.186 79.209 114.182C79.1416 114.703 79.0517 115.248 79.1416 115.747C79.209 116.223 79.4787 116.654 79.6585 117.107C79.7484 117.085 79.8383 117.085 79.9282 117.062C80.1304 116.654 80.3552 116.268 80.5574 115.86C80.6473 115.837 80.7147 115.837 80.8046 115.815C80.9395 116.177 81.1867 116.518 81.2316 116.88C81.3215 117.878 80.8945 118.74 80.2653 119.466C79.6135 120.214 78.8045 120.101 78.4225 119.171C78.2427 118.695 78.1078 118.15 78.1303 117.629C78.3551 114.545 78.6247 111.483 79.7484 108.58C79.7933 108.444 79.8832 108.308 79.9506 108.195C79.9731 108.218 80.0405 108.24 80.0855 108.24Z" fill="black"/>
<path d="M42.2628 101.029C41.701 101.732 41.2291 102.503 40.5773 103.115C39.0267 104.544 37.2738 105.315 35.0714 104.884C34.4871 104.771 33.7904 105.179 33.1837 105.338C33.2061 104.113 35.004 102.639 36.3074 102.866C38.2176 103.206 39.8357 102.548 41.2965 101.346C41.5212 101.165 41.7459 100.961 41.9707 100.757C42.0606 100.848 42.1729 100.938 42.2628 101.029Z" fill="black"/>
<path d="M16.4186 122.822C15.1152 124.387 15.5422 124.523 13.8342 123.072C14.1264 122.573 14.4635 122.074 14.7556 121.552C15.0703 120.963 15.4074 120.963 15.8793 121.348C16.104 121.529 16.3063 121.734 16.531 121.938C16.6883 121.711 16.8232 121.484 17.0029 121.303C17.2951 121.008 17.4075 120.328 18.0592 120.758C18.8008 121.235 19.0255 121.802 18.6884 122.459C18.621 122.573 18.5536 122.686 18.4862 122.799C17.8794 123.775 17.7221 123.797 16.8681 123.094C16.7333 123.004 16.5984 122.935 16.4186 122.822Z" fill="black"/>
<path d="M49.7236 108.399C50.1956 107.651 50.6226 106.97 51.0945 106.222C51.5664 106.585 51.971 106.88 52.4429 107.243C52.5777 107.038 52.7126 106.789 52.8924 106.608C53.1396 106.358 53.1845 105.723 53.8138 106.063C54.4655 106.403 54.8475 107.061 54.6228 107.583C54.443 107.991 54.1958 108.376 53.8812 108.671C53.7239 108.807 53.3418 108.807 53.1171 108.717C52.8474 108.603 52.6451 108.331 52.4204 108.15C51.971 108.581 51.5889 109.193 51.0945 109.306C50.7799 109.397 50.2855 108.785 49.7236 108.399Z" fill="black"/>
<path d="M71.0508 111.937C71.8598 111.234 72.534 110.69 73.1633 110.055C73.8824 109.352 73.8375 109.147 73.1857 108.422C72.2419 107.401 72.2419 107.401 72.8262 106.154C72.961 105.882 73.0958 105.587 73.2307 105.315C74.4892 105.882 75.051 106.948 74.8487 108.286C74.4892 110.372 73.1633 111.733 71.0508 111.937Z" fill="black"/>
<path d="M34.1504 115.089C34.3976 112.957 34.5999 110.962 34.892 108.966C35.0718 107.787 35.7235 106.812 36.4651 105.882C35.6111 108.898 36.3528 112.322 34.1504 115.089Z" fill="black"/>
<path d="M27.1165 104.272C26.3075 107.084 27.0041 110.327 24.7793 112.821C25.049 110.848 25.2962 108.989 25.5883 107.129C25.7456 105.995 26.4198 105.134 27.1165 104.272Z" fill="black"/>
<path d="M70.0168 105.315C69.2527 108.104 69.9943 111.256 67.8818 113.796C68.1066 111.891 68.2864 110.1 68.5111 108.331C68.6684 107.175 69.2752 106.222 70.0168 105.315Z" fill="black"/>
<path d="M61.0051 112.096C60.4657 117.448 60.0163 119.035 58.8252 119.988C59.0275 118.377 59.2297 116.722 59.4769 115.066C59.6342 113.955 60.286 113.116 61.0051 112.096Z" fill="black"/>
<path d="M60.084 120.078C61.2751 119.012 62.4661 118.219 63.2977 117.153C64.1067 116.11 64.5562 114.794 65.3202 113.638C65.2303 113.978 65.2079 114.318 65.073 114.636C64.5337 115.996 64.0617 117.402 63.3651 118.672C62.7358 119.897 61.4998 120.01 60.084 120.078Z" fill="black"/>
<path d="M81.1864 120.124C82.355 119.08 83.5011 118.309 84.3102 117.266C85.1192 116.223 85.5912 114.908 86.2204 113.683C86.2429 113.728 86.3103 113.819 86.2878 113.865C85.7035 115.475 85.2091 117.107 84.49 118.65C83.9057 119.919 82.6022 120.033 81.1864 120.124Z" fill="black"/>
<path d="M72.7371 116.246C72.4899 116.654 72.1977 117.13 71.8831 117.606C71.8381 117.674 71.7033 117.742 71.6134 117.742C70.8718 117.833 70.0403 116.744 70.3324 116.064C70.4223 115.815 70.5347 115.565 70.6695 115.361C70.8943 114.998 71.0291 114.431 71.6359 114.726C72.2202 114.976 72.6472 115.406 72.7371 116.246Z" fill="black"/>
<path d="M28.4872 115.837C28.24 116.245 27.9928 116.88 27.5433 117.266C27.3636 117.425 26.7118 117.13 26.3523 116.903C26.1275 116.767 25.8803 116.404 25.9028 116.155C25.9253 115.792 26.1051 115.384 26.3523 115.089C26.577 114.771 26.9815 114.34 27.2512 114.363C27.9029 114.454 28.3074 114.975 28.4872 115.837Z" fill="black"/>
<path d="M85.6582 107.764C86.265 107.719 87.1415 108.694 86.9617 109.261C86.8044 109.737 86.4673 110.191 86.1751 110.599C86.1077 110.69 85.7032 110.69 85.5908 110.576C85.2313 110.281 84.647 109.873 84.6919 109.601C84.7593 109.011 85.1863 108.467 85.4785 107.923C85.4785 107.832 85.6133 107.81 85.6582 107.764Z" fill="black"/>
<path d="M95.1646 54.9933C94.9399 64.722 91.7262 73.2942 85.6585 80.7551C80.2649 87.3997 73.4555 91.9805 65.3427 94.5431C60.511 96.0625 55.5444 96.8336 50.5104 96.5614C39.2064 95.9718 29.4081 91.7538 21.3852 83.6352C16.5534 78.7368 13.0252 72.9994 11.025 66.3548C9.99128 62.9532 9.49687 59.4835 9.31708 55.9231C8.57547 39.6859 18.0591 24.2878 32.5768 17.1443C37.4086 14.7632 42.4875 13.1531 47.8586 12.7675C62.4212 11.679 74.7814 16.3279 84.6696 27.3039C90.0183 33.2455 93.2769 40.2302 94.5354 48.1447C94.85 50.4124 94.9399 52.7029 95.1646 54.9933ZM90.1531 66.4682C90.3329 66.3775 90.5352 66.3095 90.7149 66.2187C91.3891 65.9466 91.479 65.6291 91.0296 65.0395C90.6026 64.4726 90.0632 64.4953 89.2317 65.1302C89.5688 65.5838 89.8834 66.0373 90.1531 66.4682C89.7036 66.5816 89.2317 66.6723 88.6699 66.7857C88.9396 67.2619 89.1193 67.5567 89.2766 67.8515C89.6587 68.5545 90.1306 68.1237 90.5352 67.9196C91.052 67.6474 90.8048 67.2619 90.5801 66.9218C90.4677 66.763 90.3104 66.6269 90.1531 66.4682ZM46.645 48.9611C46.9372 48.7116 47.2518 48.5302 47.4316 48.2581C47.6563 47.9406 47.8811 47.5324 47.8811 47.1695C47.9035 43.7679 47.8811 40.3436 47.8811 36.9419C47.8811 36.5564 47.8136 36.1709 47.7912 35.7173C47.072 35.9441 46.4428 36.1255 45.836 36.3296C37.431 39.2324 31.5655 46.9881 31.2958 55.9231C31.1385 61.2297 32.869 65.9693 36.4647 69.9379C40.0829 73.9291 44.555 76.2876 49.8587 76.7412C56.5782 77.3081 62.4437 75.2218 67.2305 70.3688C72.2645 65.289 74.287 59.1206 73.096 52.0906C71.9498 45.2419 68.062 40.2755 61.8594 37.214C60.5559 36.5791 59.1176 36.1482 57.8367 35.672C57.8367 38.9829 57.8142 42.1351 57.8591 45.31C57.8816 46.5799 57.5445 48.054 59.2075 48.7116C58.7581 49.2785 58.376 49.7548 57.994 50.2537C58.7356 51.0247 59.4323 51.7731 60.1739 52.5215C60.893 51.6597 61.5447 50.8433 62.1965 50.0496C61.7695 49.596 61.3874 49.2105 60.9604 48.7343C62.0167 48.122 62.1066 47.2149 62.0616 46.1944C61.9942 44.7203 62.0392 43.269 62.0392 41.7496C62.174 41.8403 62.3538 41.931 62.5336 42.0444C67.9721 45.6048 70.6913 52.4534 69.3429 58.8712C68.2642 63.951 65.4551 67.7155 61.0953 70.3461C60.8706 70.4821 60.4436 70.5048 60.2188 70.3914C58.4434 69.5524 56.713 68.6453 54.9601 67.7835C54.8028 67.6928 54.6455 67.5794 54.4208 67.4433C58.8704 65.289 63.2078 63.1799 67.5676 61.0709C66.9158 60.7534 66.3315 60.572 65.7248 60.4813C65.4101 60.436 65.0506 60.4586 64.7809 60.5947C60.893 62.4316 56.9827 64.2911 53.1173 66.1734C52.5779 66.4455 52.151 66.4455 51.6116 66.1507C47.926 64.2685 44.2179 62.4769 40.5548 60.5493C39.3412 59.8917 38.3524 60.4813 37.2737 60.5947C37.2737 60.6627 37.2512 60.7308 37.2512 60.7988C41.5886 63.0212 45.9484 65.2436 50.3756 67.4887C48.1732 68.5319 46.1281 69.507 44.0606 70.4595C43.8134 70.5729 43.3864 70.5955 43.1617 70.4368C38.5772 67.5794 35.7905 63.4521 35.2511 58.0094C34.6893 52.2947 36.6669 47.487 40.8694 43.6545C41.7009 42.8835 42.6673 42.2485 43.5662 41.5682C43.6336 41.6135 43.701 41.6589 43.7685 41.7042C43.7685 43.1783 43.7909 44.6523 43.7685 46.1264C43.746 47.2149 43.701 48.3034 44.7348 49.0291C44.7573 49.0518 44.7573 49.1198 44.7798 49.2105C44.4427 49.6187 44.0831 50.0269 43.701 50.4578C44.4427 51.2742 45.1169 52.0452 45.836 52.8389C46.2405 52.3854 46.5776 51.9999 46.9147 51.637C47.2518 51.2515 47.6114 50.866 47.926 50.5031C47.4541 49.9135 47.072 49.4826 46.645 48.9611ZM70.0171 33.7897C70.4217 33.4722 70.6913 33.3362 70.8486 33.1321C71.2756 32.5198 71.9049 31.9075 71.9948 31.2271C72.197 29.8892 70.4891 28.0296 69.1182 28.1203C67.9946 28.211 66.8484 28.5285 65.8371 28.9821C64.7359 29.481 63.7471 30.252 62.6909 30.9097C61.7695 30.4561 61.4773 29.5944 61.5447 28.5965C60.7582 29.2088 60.1065 29.8438 59.3424 30.2747C57.7917 31.1364 56.286 30.2293 56.1512 28.4378C56.1287 28.211 56.1512 27.9616 56.1737 27.7348C56.2411 25.6938 56.3984 23.6755 56.3984 21.6345C56.3984 19.6162 56.2411 17.6206 56.1512 15.6023C56.0613 15.5796 55.9714 15.5796 55.8815 15.5569C55.5669 16.3506 54.8477 16.9176 54.9601 17.9381C55.1174 19.3214 55.2523 20.7274 55.2523 22.1107C55.2523 24.0837 55.0275 26.0566 55.0725 28.0523C55.0949 29.0501 55.3197 30.1159 55.7467 31.0004C56.3534 32.293 57.6794 32.5651 58.8929 31.8394C59.4772 31.4766 59.9716 30.9777 60.511 30.5241C60.6233 31.7034 61.3425 32.5198 62.3088 33.1094C63.0055 33.5176 63.7471 33.9258 64.5112 34.1072C66.8934 34.6968 69.3205 35.1504 71.6127 35.6493C71.2082 35.8307 70.6239 36.0575 70.107 36.375C68.6687 37.2367 68.6238 38.4613 69.9722 39.4591C71.6577 40.7064 73.5229 41.3414 75.6354 41.16C76.377 41.0919 77.1187 40.9559 77.9502 40.8425C77.8153 40.9785 77.7704 41.0692 77.6805 41.1373C75.7927 43.1102 75.7029 44.8564 77.4558 46.9201C78.1749 47.7818 79.0963 48.4622 79.9053 49.2559C80.175 49.528 80.3773 49.9135 80.4672 50.2764C80.7593 51.2742 80.8941 52.34 81.2537 53.3152C81.411 53.746 81.8605 54.2223 82.31 54.381C83.546 54.8346 84.9843 54.313 85.6585 53.1338C86.1304 52.272 86.4001 51.2969 86.7821 50.3671C86.8945 50.0949 86.917 49.7321 87.0967 49.596C87.8608 49.0291 87.6811 48.2354 87.7934 47.3963C87.4563 47.487 87.2316 47.5324 87.0293 47.6004C86.445 47.8272 85.8832 47.8499 85.254 47.6231C83.8157 47.0788 82.3774 47.1015 80.9616 48.2127C80.22 47.351 79.4109 46.5572 78.7592 45.6501C77.9052 44.4482 77.703 42.4299 79.2087 41.0466C80.175 40.1848 81.0964 39.3004 81.9953 38.3706C83.0291 37.3048 83.8157 36.0802 84.0854 34.4927C83.119 34.8556 82.2201 35.105 81.7257 36.0802C81.3661 36.7832 80.8717 37.3955 80.3773 38.0304C79.7256 38.8695 79.0064 39.7086 77.9502 39.958C75.5231 40.525 73.3432 39.7313 71.3655 38.3706C70.6689 37.8944 70.6913 37.146 71.2532 36.511C71.7476 35.9668 72.2869 35.4679 73.0285 35.1957C73.5679 35.0143 74.0848 34.5834 74.4219 34.1299C75.4557 32.7465 75.3208 31.1364 75.2309 29.4356C75.0511 29.549 74.9612 29.5944 74.8938 29.6624C73.7477 30.5015 73.7702 31.7487 73.8825 32.9506C73.9499 33.7217 73.6129 33.9711 72.9611 33.9711C72.0397 33.9258 71.1408 33.8578 70.0171 33.7897ZM22.3965 26.0566C22.3291 26.102 22.2841 26.1247 22.2167 26.17C22.3515 26.873 22.4864 27.5987 22.6437 28.3017C22.6886 28.4605 22.8459 28.6192 22.9808 28.7099C25.9023 30.3881 28.1721 32.7919 30.307 35.3545C30.9363 36.1028 31.7004 36.5337 32.5993 36.7832C34.487 37.3048 35.7231 36.5337 36.0826 34.5834C36.2175 33.8804 36.24 33.1547 36.3298 32.4291C37.2512 33.1321 37.7457 33.2228 38.3524 32.8146C39.6334 31.9075 40.0379 30.7282 39.2738 29.0274C39.6559 29.3449 39.8132 29.5036 39.993 29.6397C41.2739 30.6602 42.7347 30.252 43.3415 28.7099C43.8359 27.4627 43.5437 26.2607 42.7572 25.2856C41.4537 23.6528 40.0379 22.0881 38.6221 20.5233C38.2401 20.1151 37.7906 19.7976 37.903 19.14C37.9254 19.0266 37.7681 18.7998 37.6333 18.7318C37.0715 18.437 36.4647 18.1648 35.8579 17.8927C35.813 19.0493 36.0826 19.9564 36.9591 20.682C37.6558 21.249 38.2625 21.9066 38.8693 22.5643C40.0604 23.8569 41.2065 25.1949 42.3751 26.5102C42.6673 26.8277 42.6448 27.1225 42.4425 27.4853C41.7908 28.6192 40.3975 28.7099 39.5885 27.6894C38.4423 26.2607 37.3187 24.7867 36.0602 23.4487C34.8241 22.1334 33.4533 20.9769 32.1498 19.7523C32.0375 19.8203 31.9476 19.8883 31.8352 19.9564C32.0599 20.5913 32.1049 21.4531 32.5543 21.8159C34.914 23.7889 36.6445 26.2381 38.33 28.7553C38.7569 29.3903 38.8244 29.9572 38.3524 30.5241C37.858 31.1364 37.2512 31.4086 36.4872 31.1138C36.1051 30.9777 35.768 30.7736 35.4534 30.6375C35.2961 31.5673 35.2736 32.4744 35.0039 33.2908C34.3297 35.4225 32.4645 35.808 30.8913 34.2206C28.8687 32.1796 26.8237 30.184 24.7786 28.1883C24.0145 27.44 23.183 26.7597 22.3965 26.0566ZM21.4076 40.525C22.1043 41.3641 22.6437 42.2258 23.8797 41.7496C24.1719 41.6362 24.509 41.6815 24.8236 41.6815C26.0371 41.6362 26.7787 42.1351 26.9361 43.3143C27.2956 45.8769 27.0484 48.3714 25.9472 50.7299C25.3629 51.9999 24.3966 52.7936 22.9134 52.6802C21.3627 52.5441 20.1491 51.8184 19.3851 50.4351C18.9581 49.6867 18.4187 49.1425 17.4748 48.8477C17.6996 49.2332 17.8794 49.5053 17.9917 49.8001C18.2389 50.4578 18.0367 50.7753 17.385 50.5939C16.7557 50.4351 16.1489 50.163 15.6096 49.8001C15.0253 49.4146 14.5084 48.893 13.969 48.4395C14.6882 49.6414 15.4972 50.7753 16.7557 51.4556C17.6322 51.9318 18.5311 52.2493 19.1603 51.637C19.6997 52.0452 20.2166 52.3854 20.711 52.7936C21.8346 53.7007 23.0482 54.3583 24.5314 53.9955C26.6214 53.4739 27.6777 51.9092 28.1946 49.9589C28.4867 48.893 28.5541 47.7818 28.644 46.6706C28.8238 43.9947 28.1496 41.7496 25.4528 40.5703C25.2955 40.5023 25.0933 40.3662 25.0708 40.2302C24.891 39.3911 24.7786 38.552 24.6213 37.6903C26.1045 37.5089 26.7787 36.8512 26.6214 35.6946C26.4416 34.2433 24.8685 33.0187 23.5201 33.2455C23.8797 34.3113 23.8797 34.3113 24.8685 34.7875C25.3629 35.037 25.3405 35.3545 25.0034 35.7173C24.5988 36.1255 23.7449 36.1255 23.183 35.7854C22.9808 35.6493 22.7336 35.5813 22.5088 35.4905C22.9134 36.5337 23.4752 37.4635 23.61 38.4386C23.7898 39.5272 22.8909 40.2302 21.4076 40.525ZM55.2298 56.5127C54.5106 56.7622 54.1511 56.4447 53.7915 55.9911C52.6229 54.5398 51.4093 53.1337 50.3082 51.7958C49.9261 52.0906 49.589 52.3627 49.207 52.6575C50.3082 53.9728 51.3419 55.1974 52.3532 56.422C52.9825 57.193 52.8926 58.0321 51.9487 58.395C51.3419 58.6217 50.5778 58.5991 49.9261 58.4857C49.3868 58.395 49.162 57.9414 49.1845 57.2838C49.2519 55.8324 49.207 54.3583 49.207 53.2471C47.499 54.8119 45.7012 56.4447 43.7909 58.1909C45.2067 58.1909 46.4203 58.1909 47.6339 58.1909C47.7237 58.395 47.7912 58.531 47.8811 58.6671C48.5103 59.9824 49.5216 60.6627 51.0048 60.64C52.4881 60.6174 53.4319 59.8237 54.0162 58.5084C54.1286 58.2816 54.4882 58.0548 54.7354 58.0321C55.8815 57.9868 57.0501 58.0094 58.1962 58.0094C58.2187 57.9187 58.2187 57.828 58.2412 57.76C56.0838 55.1974 53.9263 52.6575 51.8363 50.2083C51.4318 50.5485 51.0722 50.8433 50.6902 51.1381C52.2409 52.9523 53.7241 54.7212 55.2298 56.5127ZM39.6334 59.166C39.6109 59.2567 39.6109 59.3474 39.5885 59.4381C39.6109 59.4835 39.6334 59.5515 39.6559 59.5742C43.746 61.6152 47.8136 63.6789 51.9262 65.6972C52.151 65.8106 52.533 65.7879 52.7802 65.6745C55.3871 64.4726 57.9715 63.248 60.5559 62.0007C62.1066 61.275 63.6348 60.504 65.1854 59.7556C65.1629 59.6649 65.1629 59.5969 65.1405 59.5062C64.6011 59.5515 63.9719 59.4381 63.4999 59.6422C61.4324 60.504 59.2974 60.7988 57.0951 60.9349C55.3197 61.0482 53.5892 61.4338 52.3083 62.9305C51.2071 61.5245 49.6564 61.0709 48.0608 60.9122C45.791 60.6627 43.5662 60.4133 41.4313 59.4835C40.9144 59.2567 40.2402 59.2794 39.6334 59.166ZM53.6342 49.2332C52.5105 49.6641 52.3982 48.6663 51.8363 48.2581C51.3644 48.757 50.8925 49.2559 50.2857 49.9362C50.87 49.9362 51.2071 49.9816 51.5442 49.9362C52.2633 49.8455 52.7577 50.1176 53.2297 50.6619C55.0275 52.7482 56.8928 54.8119 58.6907 56.8982C59.702 58.0775 59.9042 58.1682 61.3874 57.692C59.0727 55.0613 56.7804 52.4307 54.3983 49.7321C54.8702 49.7321 55.2298 49.7321 55.8141 49.7321C55.2298 49.0971 54.7354 48.6209 54.3309 48.0993C54.0836 47.7591 53.814 47.3283 53.814 46.9201C53.7466 43.337 53.7016 39.7313 53.6791 36.1482C53.6791 35.4225 53.2746 35.4452 52.7802 35.4225C52.1285 35.3772 52.1285 35.74 52.151 36.2162C52.1959 39.2097 52.2633 42.1804 52.2858 45.1739C52.2858 46.6479 52.0835 48.19 53.6342 49.2332ZM39.5435 34.7649C39.8132 34.7875 39.8806 34.8102 39.9256 34.8102C42.1953 34.5154 44.2629 33.6763 46.1057 32.3157C47.4765 31.3179 48.78 30.2067 49.9711 29.0047C50.87 28.0976 51.4543 26.8957 51.0273 25.5577C50.7576 24.7413 50.9374 24.2198 51.4768 23.5621C52.6678 22.1788 52.2858 20.2512 50.7576 19.4121C50.6003 20.2738 50.2632 21.2036 51.3419 21.7479C50.443 22.9952 50.061 23.0405 48.5553 22.1107C48.1507 23.29 48.2856 23.7208 49.0946 24.4919C49.5216 24.9001 49.9261 25.3763 50.2183 25.8752C50.3531 26.0793 50.3306 26.5556 50.1733 26.7597C49.634 27.4627 49.0946 28.2337 48.3979 28.7553C46.3754 30.2747 44.2853 31.7261 42.1953 33.1547C41.4088 33.7444 40.5323 34.1752 39.5435 34.7649ZM29.8126 68.7813C28.3069 68.2824 27.0259 67.8742 25.7675 67.4207C25.4304 67.3073 24.9584 67.0805 24.9135 66.8084C24.7337 65.992 23.9471 65.8332 23.4977 65.3343C22.1268 63.7696 21.1155 62.0234 20.5312 60.0051C20.2615 59.1206 19.9469 58.2135 21.1155 57.4198C20.666 57.4425 20.4188 57.4425 20.2166 57.4879C18.7783 57.76 18.3962 58.2816 18.6884 59.7329C19.0255 61.4111 19.7896 62.9078 20.8234 64.2458C21.3627 64.9488 22.0144 65.5611 22.7111 66.1054C23.1606 66.4455 23.6325 66.6496 23.8572 67.2846C23.9471 67.5794 24.464 67.7608 24.8236 67.8969C25.2281 68.0556 25.8124 67.9422 26.0821 68.2144C27.0259 69.0988 28.1721 68.872 29.2508 69.0308C29.3407 69.0308 29.498 68.9174 29.8126 68.7813ZM49.3868 47.6231C49.6789 47.6684 49.8362 47.6911 49.9935 47.7138C51.0722 47.8045 51.1172 47.7818 51.0947 46.716C51.0947 44.3348 51.0498 41.9764 51.0273 39.5952C51.0048 38.3706 51.0273 37.1687 50.9824 35.9441C50.9824 35.7627 50.7801 35.4452 50.6228 35.4225C50.1958 35.3545 49.7688 35.3998 49.3868 35.3998C49.3868 39.5272 49.3868 43.5411 49.3868 47.6231ZM57.8367 93.9762C58.0614 94.0442 58.1063 94.0896 58.1513 94.0669C58.2637 94.0215 58.3985 93.9762 58.5109 93.9081C60.3537 93.0464 61.5223 91.5497 62.5336 89.8489C63.1179 88.851 63.9269 88.1707 65.1854 88.148C65.5 88.148 65.9045 87.8305 66.1068 87.5584C66.4439 87.1275 67.4103 86.2885 67.8822 86.0163C70.107 84.7237 71.0509 83.4991 70.579 80.9139C70.4891 80.483 70.3767 80.0748 70.2643 79.6439C70.1295 79.6666 70.0171 79.6893 69.8823 79.7119C69.9272 80.4603 69.8823 81.2087 70.0171 81.9343C70.1969 82.7507 70.0621 83.4084 69.4328 84.1341C69.5227 83.6805 69.7025 83.3177 69.6351 83.0229C69.5452 82.66 69.3429 82.1611 69.0508 82.0477C68.7811 81.9343 68.2193 82.1838 68.0395 82.4333C67.7249 82.8868 67.59 83.4764 67.3878 84.0207C67.3204 84.1794 67.208 84.4969 67.1406 84.4743C66.1068 84.2928 66.399 85.1773 66.2416 85.6308C66.0843 86.1297 65.927 86.4018 65.3202 86.4926C64.7135 86.5606 64.0168 86.81 63.5673 87.2182C62.9381 87.8079 62.3987 88.5562 61.9717 89.3273C61.1852 90.756 60.2413 92.0259 58.9828 93.0464C58.6682 93.3412 58.2861 93.6133 57.8367 93.9762ZM55.05 47.6004C55.5894 47.6004 55.9714 47.6684 56.3085 47.5777C56.5108 47.5324 56.7804 47.2602 56.7804 47.0788C56.7804 44.8111 56.713 42.5433 56.6905 40.2755C56.6681 38.7108 56.6905 37.1233 56.6905 35.5132C55.9939 35.5132 55.4995 35.5132 55.05 35.5132C55.05 39.5725 55.05 43.5411 55.05 47.6004ZM32.0824 85.2906C31.0037 86.107 29.498 86.1297 28.3069 85.3587C27.2956 84.701 27.1158 83.6352 27.9473 82.7734C28.3519 82.3426 28.8687 81.9797 29.3632 81.6622C29.925 81.2767 30.5318 80.9365 31.206 80.5283C31.0262 80.483 30.9363 80.415 30.8689 80.4376C29.1384 81.2313 27.4754 82.0931 26.3742 83.7259C25.4753 85.0639 25.9472 86.4018 27.4529 86.9234C29.1384 87.513 31.6554 86.6059 32.9813 84.9732C33.3859 84.4743 33.5432 84.066 33.0038 83.5445C32.6892 83.2497 32.6892 82.9095 33.1387 82.7507C34.0151 82.4559 34.8466 82.0477 35.8354 82.5466C36.1725 82.7054 36.7793 82.3199 37.2288 82.1385C37.2962 82.1158 37.3187 81.7076 37.2962 81.6849C36.9141 81.5715 36.5096 81.3674 36.1501 81.4128C34.7118 81.5715 33.3184 81.9797 32.1723 82.9095C31.2734 83.6352 30.9363 83.998 31.8577 84.9278C31.97 84.9958 32.015 85.1319 32.0824 85.2906ZM52.5779 86.1297C52.5105 86.1524 52.4431 86.1751 52.3757 86.1751C52.2858 86.6286 52.1734 87.0822 52.1285 87.5357C52.0611 88.4655 52.3757 89.0325 53.2521 89.2592C56.0163 89.9622 58.6907 89.6674 61.1178 88.1254C62.0167 87.5584 62.4212 86.6286 62.3987 85.5401C61.8144 86.5152 60.9155 86.9688 59.9042 87.309C58.2412 87.8532 56.5332 88.012 54.8028 87.8532C53.8364 87.7398 52.6678 87.6491 52.5779 86.1297ZM81.5908 68.2824C81.456 68.4185 81.3436 68.5545 81.2088 68.6906C82.0628 69.8472 83.0066 70.913 84.3775 71.48C85.636 71.9789 86.872 71.48 87.4788 70.2554C88.153 68.872 87.8608 67.5114 86.9394 66.4002C86.0855 65.357 85.0067 64.5179 83.9505 63.6562C83.5235 63.316 83.1639 63.0666 83.1415 62.4316C83.119 61.6832 82.3549 61.0709 81.7257 60.9802C81.883 61.5018 82.265 62.1141 82.1976 62.6584C82.1527 63.2026 82.265 63.4294 82.692 63.6335C82.9617 63.7469 83.2314 63.8376 83.4786 63.9737C84.8719 64.654 86.018 65.5384 86.3102 67.1939C86.5124 68.3278 85.8832 69.8245 85.0067 70.3007C84.1303 70.777 83.2763 70.5275 82.265 69.4163C82.0178 69.0988 81.838 68.6679 81.5908 68.2824ZM74.8713 74.6322C75.2309 75.8794 75.995 76.7865 76.9613 77.5802C78.4671 78.8048 78.7367 80.8458 77.6131 82.4559C77.0288 83.3177 76.2197 83.93 75.141 83.8619C74.0398 83.7939 73.5454 82.9775 73.1859 82.0704C73.0735 81.7756 72.9836 81.4808 72.8712 81.186C72.7813 80.9592 72.6465 80.7324 72.5341 80.5057C72.4667 80.5283 72.4218 80.5737 72.3544 80.5964C72.624 81.8663 73.0061 83.1136 73.8151 84.1794C75.0062 85.7442 76.5793 85.8803 77.9951 84.5423C78.6918 83.8846 78.9839 83.0002 79.0064 82.0477C79.1412 78.7141 77.2086 76.5598 74.8713 74.6322ZM82.5347 28.2564C82.4673 28.1883 82.3774 28.143 82.31 28.075C81.7032 28.5285 80.9391 28.846 80.4896 29.4356C78.8266 31.6353 77.2984 33.9258 75.6804 36.1482C74.9837 37.1007 74.1972 37.9397 73.4555 38.8468C73.5005 38.9149 73.5679 39.0056 73.6128 39.0736C74.3545 38.5747 75.2534 38.2119 75.7927 37.5542C77.3209 35.7627 78.7143 33.8578 80.1076 31.9528C80.5346 31.3632 80.8267 30.6829 81.6358 30.5015C81.7481 30.4788 81.883 30.3654 81.9054 30.252C82.1302 29.5944 82.3324 28.914 82.5347 28.2564ZM45.8585 87.5584C47.5889 85.1999 47.7912 84.5196 47.0046 83.4764C46.7574 84.0661 46.3304 84.5876 46.3978 85.0639C46.4877 85.7669 46.3978 86.2885 45.9484 86.81C45.6562 87.1502 45.3865 87.5131 45.1169 87.8532C44.8022 88.2841 44.7348 88.715 45.2292 89.1005C45.7236 89.486 45.5214 89.7808 45.1393 90.0983C44.3752 90.7333 42.7572 90.756 42.0605 90.1437C41.4762 89.6221 41.611 88.6923 42.3976 87.6491C42.6898 87.2636 43.0044 86.9234 43.2741 86.5379C43.3864 86.3792 43.4763 86.1977 43.5887 86.0163C42.4875 86.9915 41.4762 88.0346 41.0267 89.4633C40.802 90.189 40.802 90.9601 41.4313 91.527C42.0156 92.0713 42.7347 92.1393 43.4763 91.8898C44.6224 91.5043 45.3416 90.6652 45.9484 89.6901C46.3754 88.9871 46.7125 88.2387 45.8585 87.5584ZM70.6239 21.1583C70.6913 21.2263 70.7363 21.2717 70.8037 21.3397C70.9161 21.0222 71.0284 20.7047 71.1633 20.3872C70.8037 20.2965 70.4666 20.1151 70.107 20.1151C68.6013 20.1151 67.0731 20.2738 65.5674 20.1378C63.6348 19.9564 61.747 19.4801 61.0953 16.9629C60.7807 17.4391 60.466 17.7566 60.3761 18.1195C60.2413 18.7544 60.2413 19.4348 60.1964 20.0697C61.1852 19.0719 62.0616 20.2738 63.0729 20.546C65.0955 21.0902 67.1181 21.2263 69.2081 21.0222C69.68 20.9542 70.152 21.1129 70.6239 21.1583ZM18.7558 37.1914C18.194 37.3048 17.6322 37.3501 17.1602 37.5542C16.913 37.6676 16.8231 38.1212 16.6658 38.3933C16.958 38.552 17.3175 38.8922 17.5423 38.8242C18.4637 38.552 18.621 39.1416 18.6434 39.7766C18.6884 41.1373 18.6434 42.5206 18.6434 43.8813C18.6434 44.675 18.7109 45.4687 18.7558 46.2624C18.8907 46.2624 19.003 46.2624 19.1379 46.2624C19.8795 45.0152 19.6323 43.6545 19.43 42.3165C19.2278 40.9559 18.9356 39.5952 18.6884 38.2119C19.3176 38.2119 19.9918 38.2119 20.6885 38.2119C20.5537 37.8037 20.3289 37.5542 20.0817 37.3728C19.6547 37.0553 19.1828 36.8285 18.8008 36.4884C18.6435 36.3296 18.6659 35.9668 18.6434 35.6946C18.5985 35.4225 18.5985 35.1504 18.576 34.8782C18.2614 34.9236 17.8794 34.8782 17.6771 35.037C17.5423 35.1504 17.5198 35.6493 17.6322 35.8307C17.9243 36.3296 18.3513 36.7378 18.7558 37.1914ZM33.6555 77.8977C32.3746 78.8048 31.0262 78.1925 29.7227 78.2379C29.5654 78.2379 29.4081 78.2832 29.2508 78.3059C27.6552 78.4874 26.0371 78.6915 24.4415 78.8502C24.037 78.8956 23.61 78.8502 23.183 78.8048C22.801 78.7822 22.4189 78.7141 22.0369 78.6688C22.1493 78.9182 22.3066 79.0089 22.4639 79.0543C24.037 79.5305 25.6326 79.5759 27.2507 79.2584C28.7564 78.9636 30.2621 78.8048 31.4756 80.1201C31.7004 80.3469 32.2622 80.3923 32.6218 80.3242C33.6331 80.0521 33.678 79.7346 33.6555 77.8977ZM82.1077 78.0791C82.1751 77.9658 82.265 77.8524 82.2875 77.739C82.3549 76.5597 82.4673 75.3805 81.7706 74.292C81.2313 73.4302 81.0065 72.4778 81.1863 71.4346C81.3886 70.1193 80.7593 69.0308 79.9053 68.101C79.3885 67.534 78.4446 67.5794 77.9052 68.0783C77.231 68.6906 77.9951 69.0308 78.1749 69.4843C78.1749 69.507 78.1974 69.5297 78.2198 69.5524C78.512 69.7338 78.7817 69.9379 79.0738 70.1193C79.2311 69.8245 79.4109 69.507 79.6357 69.0988C80.175 68.9854 80.3548 69.1442 80.2424 70.0286C80.1076 70.981 80.0177 71.9335 80.4896 72.8179C81.3212 74.4281 82.0178 76.1289 82.1077 78.0791ZM17.6546 73.9745C17.9018 73.8611 18.149 73.7704 18.3962 73.657C19.2502 73.2035 20.1042 72.7726 20.9582 72.319C22.7336 71.3666 24.3516 71.5707 25.8349 72.9767C26.4641 73.589 27.2507 73.589 28.0372 73.2942C28.644 73.0674 28.6665 72.5685 28.5092 72.0469C28.3743 71.5707 28.1047 71.2759 27.5204 71.48C27.1608 71.5933 26.6888 71.7294 26.3967 71.5933C24.6438 70.6862 22.9358 71.0718 21.2279 71.6841C19.8795 72.1603 18.621 72.8406 17.6546 73.9745ZM51.0273 84.4743C50.6003 84.5196 50.1958 84.6783 50.0834 84.565C49.8812 84.3609 49.7463 83.9753 49.7913 83.6805C49.8362 83.2723 50.0385 82.8868 50.1958 82.5013C50.3306 82.1838 50.5104 81.889 50.6677 81.5715C50.5778 81.5262 50.4879 81.4808 50.398 81.4354C49.9261 82.2972 49.4317 83.1363 49.0047 83.998C48.5553 84.8824 48.5552 85.7215 49.2744 86.1977C49.0047 87.4223 48.735 88.4882 48.5777 89.5994C48.5328 89.8262 48.78 90.2797 49.0047 90.3478C49.2519 90.4385 49.7014 90.3251 49.9036 90.1437C50.2632 89.8035 50.5104 89.3499 50.7576 88.9417C51.0498 88.4655 50.9599 88.012 50.4879 87.6038C50.2183 87.9893 49.9935 88.3294 49.7688 88.6469C49.6789 88.6243 49.6115 88.6243 49.5216 88.6016C49.589 88.148 49.589 87.6945 49.7014 87.2409C49.8362 86.742 50.061 86.2658 50.2857 85.7896C50.443 85.336 50.7351 84.9505 51.0273 84.4743ZM69.2081 26.2607C69.2531 26.3741 69.2755 26.4875 69.3205 26.6009C69.4104 26.6009 69.5003 26.6236 69.6126 26.6236C72.669 26.9411 75.7253 27.2586 78.7817 27.508C79.2311 27.5534 79.7031 27.2359 80.175 27.0771C80.1525 26.9864 80.1301 26.9184 80.1076 26.8277C79.5458 26.737 78.9839 26.6009 78.4221 26.5329C75.7703 26.2607 73.1409 25.9886 70.4891 25.8072C70.0621 25.7845 69.6126 26.102 69.2081 26.2607ZM45.2966 19.5255C45.3865 19.5482 45.4989 19.5708 45.5888 19.5935C45.5214 19.276 45.4764 18.9359 45.3641 18.6411C45.1843 18.2329 44.982 17.8473 44.7348 17.4618C44.5326 17.167 44.2629 16.6908 44.0157 16.6908C43.701 16.6908 43.2516 17.0083 43.0718 17.3258C42.4425 18.437 42.937 19.1853 44.5326 19.6162C44.3078 20.2512 44.0606 20.8861 43.8359 21.5211C43.6112 22.1334 42.9819 22.6323 43.4089 23.4487C43.9482 22.3829 44.3752 21.2717 44.8247 20.1831C44.8921 19.9564 45.1169 19.7523 45.2966 19.5255ZM24.9359 47.7591C24.9584 47.6684 24.9584 47.5777 24.9809 47.4643C24.0595 47.0335 23.1381 46.6026 22.1942 46.1717C22.3066 45.9449 22.374 45.8769 22.4189 45.7635C22.4864 45.5141 22.5313 45.2646 22.5763 45.0378C22.2616 45.0378 21.8796 44.9244 21.6549 45.0605C21.138 45.3553 21.2054 45.8089 21.6324 46.149C22.1268 46.5119 22.6661 46.8067 23.2505 47.1695C22.5538 47.2602 21.947 47.2829 21.3627 47.419C21.1155 47.487 20.8009 47.7591 20.7335 48.0086C20.6885 48.19 20.9357 48.5755 21.138 48.6663C21.4077 48.7796 21.947 48.825 22.0369 48.6663C22.5538 47.8952 23.2954 47.9859 24.037 47.9406C24.3516 47.9406 24.6438 47.8272 24.9359 47.7591ZM82.0628 43.7452C82.3774 43.1102 82.7145 42.5433 82.9392 41.931C83.0066 41.7722 82.8269 41.3187 82.692 41.296C82.3999 41.228 82.0178 41.2507 81.7481 41.3867C81.5684 41.4774 81.3661 41.9537 81.456 42.0897C81.8605 42.7701 81.411 43.1783 81.1189 43.6545C80.8942 43.9947 80.7144 44.3802 80.5121 44.7203C80.5795 44.7884 80.6469 44.8564 80.7368 44.9244C81.6133 44.4709 82.5122 44.04 83.4336 43.5638C83.5235 43.7679 83.5685 43.9039 83.6584 43.9947C83.8381 44.1988 84.0404 44.3575 84.2202 44.5389C84.4 44.2441 84.6697 43.9493 84.6921 43.6318C84.7371 43.0649 84.2427 43.0422 83.8606 43.1329C83.2089 43.3143 82.6471 43.5411 82.0628 43.7452ZM64.691 81.6395C64.3089 80.619 64.3988 80.3016 65.2079 79.6212C65.5674 79.3264 65.972 79.0543 66.2866 78.7141C67.2529 77.7163 68.1968 76.7185 69.1182 75.698C69.3205 75.4712 69.3205 75.1084 69.4553 74.7002C67.8597 76.1742 66.4214 77.4895 65.0056 78.8502C64.6011 79.2357 64.2415 79.7346 63.9943 80.2335C63.6797 80.9592 63.9718 81.5035 64.691 81.6395ZM74.0848 23.2219C74.3095 23.358 74.3769 23.4487 74.4668 23.4714C74.7365 23.5394 74.9837 23.5848 75.2534 23.6301C75.2309 23.29 75.3208 22.8818 75.1635 22.6323C74.8938 22.1788 74.4893 22.3375 74.1747 22.655C73.7702 23.0632 73.4106 23.5168 73.051 23.9476C73.0061 23.29 73.0061 22.6777 72.9162 22.0881C72.8712 21.884 72.5117 21.5211 72.3768 21.5665C72.0622 21.6345 71.7251 21.8613 71.5453 22.1334C71.4554 22.2695 71.5678 22.7457 71.7251 22.8591C72.242 23.2446 72.2195 23.7208 72.1521 24.2651C72.1071 24.696 72.1521 25.1269 72.1521 25.5577C72.2645 25.5804 72.3768 25.6031 72.4892 25.6258C73.0061 24.8547 73.523 24.061 74.0848 23.2219ZM71.8599 72.5458C72.1746 72.0469 72.3768 71.4573 72.8038 71.1171C73.9724 70.142 73.9275 67.0578 72.7589 65.7879C72.8488 66.2188 72.9162 66.5136 72.9611 66.831C73.1184 67.8289 73.0285 68.7813 72.242 69.5297C71.3431 70.3914 71.2082 71.5026 71.8599 72.5458ZM47.7237 20.2058C50.0834 17.9834 50.0834 17.9834 50.0385 17.1217C49.2969 17.4165 48.7575 18.573 47.544 17.6432C48.0608 17.5072 48.3979 17.4165 48.9148 17.2804C48.8923 17.1217 48.9148 16.7815 48.8249 16.4413C48.8025 16.3279 48.4654 16.2372 48.308 16.2826C47.7912 16.396 47.0046 17.4391 47.072 18.1421C47.117 18.573 47.499 18.9585 47.7237 19.3667C47.7912 19.3214 47.8586 19.2987 47.9035 19.2534C47.8361 19.5708 47.7912 19.8883 47.7237 20.2058ZM28.9586 24.7413C28.9811 25.467 30.2846 26.7823 30.9138 26.737C31.1161 26.7143 31.4082 26.5102 31.4307 26.3515C31.5431 25.8525 31.7903 25.5577 32.2397 25.3083C32.4195 25.1949 32.5319 24.6733 32.442 24.4465C32.0824 23.7208 31.3857 23.3807 30.6666 23.1539C30.5542 23.29 30.4419 23.426 30.3295 23.5394C30.8464 23.9023 31.3857 24.2424 31.9026 24.6053C31.8352 24.696 31.7678 24.7867 31.7004 24.8774C31.0711 24.5372 30.4419 24.2198 29.8126 23.8796C29.7677 23.9249 29.7227 23.9476 29.6778 23.993C30.1048 24.4919 30.5542 24.9681 31.0711 25.5351C30.0149 26.0566 29.6778 25.0362 28.9586 24.7413ZM34.7567 87.3316C35.8804 88.1707 36.9366 87.9893 38.0827 87.0595C38.5322 86.6967 39.094 86.4926 39.6559 86.2885C40.42 86.0163 41.0717 85.6535 41.4762 84.9051C40.7795 85.0865 40.1728 85.2226 39.566 85.404C39.2963 85.4947 38.9592 85.5628 38.8019 85.7669C38.0603 86.674 37.0265 86.7874 35.9927 86.9234C35.6332 86.9915 35.2736 87.1502 34.7567 87.3316ZM30.1722 74.0879C29.7677 74.1332 29.3856 74.1332 29.0485 74.2466C28.8463 74.3147 28.5991 74.5414 28.5541 74.7682C28.3069 75.7434 28.262 75.7887 27.2731 75.4259C26.6888 75.2218 26.1045 74.995 25.318 74.7229C26.2619 76.0608 27.9698 76.5597 29.1609 76.0608C29.9699 75.7207 30.307 75.0857 30.1722 74.0879ZM74.714 65.4477C75.3433 66.9218 75.5455 67.0805 76.2647 66.7177C76.9838 66.3548 76.6692 65.9013 76.4669 65.5384C76.804 65.2436 77.231 64.9942 77.4108 64.654C77.5007 64.4952 77.1411 63.9963 76.8939 63.7922C76.4445 63.4521 75.9725 63.5881 75.5006 63.9737C75.7253 64.4045 75.9276 64.8127 76.1074 65.1302C75.6579 65.2436 75.2084 65.3343 74.714 65.4477ZM25.3854 62.4769C25.4304 62.9758 25.3405 63.4294 25.5202 63.6562C25.7 63.8603 26.3068 63.9963 26.4866 63.8603C26.8686 63.5655 27.0934 63.0666 27.4979 62.4996C26.8012 62.4089 26.3742 62.3409 25.9697 62.2955C26.1045 61.91 26.2169 61.5471 26.3517 61.1843C25.0258 60.8895 24.5988 61.0029 24.464 61.6379C24.2842 62.545 25.0483 62.3635 25.3854 62.4769ZM57.14 83.1816C56.3085 84.633 56.286 84.7917 56.9602 85.1999C57.7468 85.6762 57.8591 84.8371 58.1962 84.4743C58.5109 84.7237 58.7805 84.9732 59.0502 85.1773C60.1514 84.2475 60.039 83.4764 58.7581 82.9775C58.5558 83.363 58.3536 83.7712 58.1738 84.1114C57.8816 83.8393 57.5445 83.5445 57.14 83.1816ZM14.3061 42.4526C14.1263 43.7679 14.3061 44.4255 14.8904 44.8337C15.4523 45.2419 16.1714 45.1059 16.531 44.5389C16.913 43.9039 16.7782 43.4504 16.0366 43.1102C15.4972 42.8608 14.9129 42.6794 14.3061 42.4526ZM29.7677 43.8586C29.8126 43.8359 29.8576 43.7906 29.925 43.7679C30.1048 42.1351 30.307 40.5023 30.4194 38.8468C30.4419 38.552 30.1048 38.2119 29.9475 37.8944C29.8576 37.9171 29.7677 37.9397 29.6553 37.9624C29.498 39.6179 29.3182 41.2733 29.2508 42.9515C29.2058 43.2463 29.5879 43.5638 29.7677 43.8586ZM88.0182 39.8447C87.9957 39.7539 87.9732 39.6859 87.9507 39.5952C87.1192 39.7766 86.2652 39.9127 85.4562 40.1621C85.209 40.2302 84.9169 40.6157 84.8719 40.8651C84.827 41.0919 85.0742 41.4548 85.2989 41.6362C85.8382 42.0217 86.49 42.0671 86.9619 41.6135C87.2765 41.3187 87.299 40.7518 87.4563 40.2982C87.3889 40.2755 87.3215 40.2528 87.2541 40.2302C87.5013 40.0941 87.771 39.9807 88.0182 39.8447ZM54.0612 28.075C53.9713 28.0296 53.9039 27.9842 53.814 27.9162C52.533 28.9367 51.2296 29.9345 49.9935 31.0004C49.7239 31.2271 49.7014 31.7261 49.5665 32.0889C51.0273 31.1364 52.2858 30.1386 53.5668 29.1408C53.6117 29.1181 53.6791 29.0955 53.6791 29.0501C53.814 28.7553 53.9263 28.4151 54.0612 28.075ZM85.3663 45.378C88.1755 45.3553 89.7935 44.1534 90.0857 41.9764C89.2317 41.8176 89.007 41.9083 88.9396 42.4299C88.8047 43.7225 87.9957 44.4255 86.8945 44.8791C86.4001 45.0605 85.8607 45.1966 85.3663 45.378ZM80.3323 58.4403C81.9504 60.2319 84.355 60.5493 86.3327 61.6379C84.7371 59.7783 82.3999 59.3474 80.3323 58.4403ZM39.948 80.619C39.8357 80.6871 39.7008 80.7551 39.5885 80.8231C37.7007 81.9343 37.1838 84.1341 35.768 85.6081C37.903 84.6103 38.5772 82.3199 39.948 80.619ZM33.0488 28.0523C32.3521 28.143 31.7678 28.2337 31.1835 28.3017C31.2958 30.3654 31.4082 30.32 33.3634 29.8211C33.2735 29.2542 33.1611 28.6873 33.0488 28.0523ZM79.9053 77.036C79.5682 75.7887 76.849 72.7726 75.4556 72.0923C75.4556 72.183 75.4557 72.251 75.4781 72.319C76.4445 74.3373 78.4446 75.3578 79.9053 77.036ZM66.3765 38.0304C66.9608 37.6903 67.4777 37.3955 68.0395 37.078C67.7473 36.511 67.4777 36.0121 67.1855 35.4452C66.6012 35.8987 66.1068 36.2843 65.5674 36.6925C65.8596 37.1687 66.1068 37.5542 66.3765 38.0304ZM44.3752 30.0933C44.4427 30.1159 44.5326 30.1386 44.6 30.1613C45.5438 29.1181 46.4877 28.075 47.3866 27.0091C47.544 26.805 47.4765 26.4195 47.5215 26.1247C47.4541 26.102 47.3866 26.0793 47.2968 26.0566C46.7574 26.6463 46.1956 27.2359 45.6562 27.8482C45.2742 28.2791 44.8921 28.7099 44.5775 29.1862C44.4202 29.4356 44.4427 29.7985 44.3752 30.0933ZM29.0261 29.1635C28.8463 26.873 27.0484 25.1269 25.273 25.399C25.273 25.9206 25.3854 26.2607 26.0371 26.3288C27.2282 26.4422 28.0372 27.1452 28.5766 28.1883C28.7339 28.5285 28.8687 28.846 29.0261 29.1635ZM85.3214 32.9053C85.1416 32.2476 84.9843 31.658 84.827 31.0684C83.119 31.7261 83.0516 31.8621 83.7258 33.4496C84.2202 33.2681 84.6921 33.1094 85.3214 32.9053ZM83.5685 38.4386C85.9282 38.1892 87.5013 36.6017 87.0967 34.9236C86.8271 34.9916 86.5574 35.0823 86.2428 35.1731C86.4675 37.146 85.0068 37.781 83.5685 38.4386ZM43.8584 94.0896C44.173 94.271 44.4427 94.5431 44.555 94.4751C44.8247 94.3617 45.1169 94.0896 45.1843 93.8401C45.2292 93.5453 45.027 93.2051 44.9146 92.7969C44.555 93.0918 44.3303 93.2505 44.128 93.4319C43.9258 93.1825 43.7685 93.001 43.5887 92.7969C42.465 93.8174 42.465 93.8401 43.2965 94.4978C43.4988 94.3617 43.7235 94.203 43.8584 94.0896ZM62.0167 26.5782C63.4774 25.331 63.9943 23.0405 62.5111 21.8613C62.3313 22.0881 62.174 22.2922 61.9717 22.5416C63.2752 23.9023 62.7808 25.2403 62.0167 26.5782ZM20.9132 66.4682C19.0929 66.5589 17.6097 67.2392 16.059 68.0556C17.0928 68.3051 19.9244 67.3753 20.9132 66.4682ZM73.905 78.7595C74.0398 79.145 74.1522 79.5305 74.287 79.916C74.4444 80.3923 74.7814 80.2562 75.1185 80.1428C75.4556 80.0521 75.8377 80.0748 75.8377 79.5305C75.8377 78.5327 75.0961 78.2152 73.905 78.7595ZM81.5234 66.4002C81.8156 66.7403 82.0628 67.0578 82.31 67.3526C82.7594 67.8969 83.0741 67.398 83.3437 67.1712C83.5235 67.0125 83.6584 66.5589 83.5685 66.3548C83.2314 65.5611 82.5347 65.5838 81.5234 66.4002ZM67.163 92.1166C67.2979 91.5497 67.5451 91.0281 67.4552 90.5972C67.3878 90.257 66.8934 89.9849 66.5563 89.6447C65.7697 91.1868 65.7697 91.1868 67.163 92.1166ZM30.8464 39.5952C30.779 39.6406 30.7115 39.6859 30.6441 39.7539C31.1385 40.4116 31.5655 41.1146 32.1049 41.7042C32.6442 42.2712 33.2735 42.2485 33.5881 41.7949C33.9027 41.3414 33.6555 40.7518 33.1387 40.4343C33.0263 40.7064 32.9139 41.0012 32.8016 41.296C32.5094 41.1826 32.1498 41.1146 31.9476 40.9105C31.5431 40.525 31.206 40.0488 30.8464 39.5952ZM67.9047 24.9001C67.5001 24.8547 67.2305 24.8321 66.9383 24.7867C66.9833 24.4692 66.9158 24.1064 67.0732 23.8342C67.3204 23.358 67.6799 22.9271 67.9946 22.4736C67.9271 22.4282 67.8372 22.3602 67.7698 22.3148C67.2305 23.0632 66.6462 23.7662 66.1967 24.5599C66.0619 24.7867 66.2866 25.3083 66.4888 25.5804C66.6012 25.7165 67.0956 25.6938 67.3204 25.5804C67.59 25.4444 67.7474 25.1042 67.9047 24.9001ZM59.8368 25.7618C59.5446 25.8072 59.23 25.8525 58.9154 25.8979C58.9154 25.5577 58.8255 25.1722 58.9154 24.8547C59.0502 24.4012 59.3199 23.9703 59.5222 23.5394C59.4547 23.4941 59.3873 23.4714 59.3199 23.426C58.9379 24.061 58.5109 24.6506 58.2187 25.3083C57.9266 25.9433 58.1962 26.6463 58.6682 26.7823C59.1626 26.9411 59.7244 26.3968 59.8368 25.7618ZM64.6011 90.5292C64.4438 90.9601 64.1741 91.3682 64.1966 91.7311C64.2191 92.0486 64.5786 92.3661 64.8708 92.6155C64.9157 92.6609 65.3652 92.4114 65.4551 92.23C65.8821 91.459 65.6798 91.0281 64.6011 90.5292ZM38.5097 88.8057C37.1613 89.4407 37.0715 89.5994 37.3411 90.2344C37.5883 90.7786 37.9479 90.7333 38.3524 90.5065C39.0266 90.1437 39.0716 89.7128 38.5097 88.8057ZM70.8262 87.4223C70.7363 87.8079 70.579 88.1934 70.6239 88.5562C70.6689 88.8284 70.9385 89.1912 71.1857 89.2592C71.3655 89.3273 71.7925 89.0325 71.9049 88.8057C72.197 88.148 71.8824 87.7625 70.8262 87.4223Z" fill="white"/>
<path d="M61.6796 109.057C61.1402 109.329 60.6908 109.579 60.2188 109.737C60.0615 109.783 59.7244 109.601 59.657 109.442C59.5896 109.284 59.6795 108.989 59.7919 108.807C60.2863 108.127 60.8706 108.15 61.6796 109.057Z" fill="white"/>
<path d="M46.6449 48.9609C47.0944 49.4824 47.4765 49.9133 47.9034 50.4122C47.5664 50.7751 47.2293 51.1606 46.8922 51.5461C46.5551 51.909 46.2404 52.2945 45.8134 52.748C45.0943 51.9543 44.3976 51.1833 43.6785 50.3669C44.0605 49.936 44.3976 49.5278 44.7572 49.1196C44.7347 49.0516 44.7347 48.9609 44.7123 48.9382C43.6785 48.2125 43.7234 47.1467 43.7459 46.0354C43.7909 44.5614 43.7459 43.0874 43.7459 41.6133C43.6785 41.568 43.6111 41.5226 43.5436 41.4772C42.6447 42.1802 41.6784 42.7925 40.8469 43.5636C36.6444 47.4188 34.6443 52.2038 35.2286 57.9185C35.7679 63.3612 38.5321 67.4885 43.1391 70.3459C43.3639 70.4819 43.7909 70.4819 44.0381 70.3686C46.1056 69.4161 48.1507 68.441 50.353 67.3978C45.9258 65.13 41.566 62.9303 37.2287 60.7079C37.2287 60.6399 37.2512 60.5718 37.2512 60.5038C38.3299 60.3904 39.3187 59.8008 40.5322 60.4584C44.1954 62.386 47.9034 64.2002 51.5891 66.0598C52.1284 66.3319 52.5554 66.3319 53.0947 66.0825C56.9826 64.2002 60.8705 62.3633 64.7583 60.5038C65.028 60.3677 65.4101 60.345 65.7022 60.3904C66.309 60.4811 66.9158 60.6852 67.545 60.98C63.2077 63.089 58.8479 65.1981 54.3982 67.3524C54.6229 67.4885 54.7802 67.6019 54.9376 67.6926C56.6905 68.577 58.4434 69.4615 60.1963 70.3005C60.4435 70.4139 60.848 70.3912 61.0727 70.2552C65.4325 67.6019 68.2417 63.8601 69.3204 58.7803C70.6688 52.3852 67.9495 45.5365 62.511 41.9535C62.3537 41.8401 62.1739 41.7494 62.0166 41.6587C62.0166 43.1781 61.9717 44.6294 62.0391 46.1035C62.084 47.1467 62.0166 48.0538 60.9379 48.6434C61.3874 49.1196 61.7469 49.5051 62.1739 49.9587C61.5222 50.7524 60.8705 51.5688 60.1513 52.4305C59.4322 51.6822 58.713 50.9338 57.9714 50.1628C58.3535 49.6639 58.7355 49.2103 59.185 48.6207C57.522 47.963 57.8591 46.5117 57.8366 45.2191C57.7916 42.0442 57.8141 38.892 57.8141 35.5811C59.0951 36.0573 60.5109 36.4655 61.8368 37.1231C68.0394 40.1619 71.9273 45.1283 73.0734 51.9997C74.242 59.0297 72.2194 65.1981 67.2079 70.2778C62.3986 75.1309 56.5556 77.2399 49.8361 76.6503C44.5325 76.1967 40.0378 73.8382 36.4421 69.847C32.8464 65.8784 31.0935 61.1388 31.2733 55.8322C31.543 46.8972 37.4085 39.1414 45.8134 36.2387C46.4202 36.0346 47.0495 35.8532 47.7686 35.6264C47.8136 36.08 47.8585 36.4655 47.8585 36.851C47.881 40.2527 47.881 43.677 47.8585 47.0786C47.8585 47.4415 47.6113 47.8497 47.409 48.1671C47.2517 48.5073 46.9371 48.6887 46.6449 48.9609ZM60.7581 39.1188C60.7356 39.1188 60.803 39.1188 60.848 39.1414C68.781 42.6792 72.9835 51.7502 70.7587 60.209C68.6911 68.1235 61.1851 73.8836 53.5892 74.4279C47.7911 74.8361 42.847 73.0672 38.6894 68.9852C35.4758 65.833 33.6779 62.0005 33.4532 57.4877C33.1161 50.7751 35.723 45.3778 41.0042 41.3185C42.2177 40.3887 43.5661 39.6857 44.8696 38.8693C44.937 38.9373 45.0044 39.0054 45.0718 39.0734C45.0718 41.636 45.0943 44.1759 45.0494 46.7385C45.0494 47.3734 45.2067 47.8497 45.7235 48.1671C46.4202 47.7816 46.5551 47.192 46.5101 46.4663C46.4427 45.6726 46.4876 44.8789 46.5101 44.0852C46.5101 41.9988 46.5101 39.9352 46.5101 37.8261C46.2629 37.8715 46.1955 37.8715 46.1281 37.8942C37.5208 40.9557 31.543 49.6866 33.2509 59.574C34.8016 68.577 42.4649 75.0628 51.4542 75.1989C57.4321 75.2896 62.511 73.1126 66.6686 68.7584C72.8936 62.25 73.6577 51.8863 68.3765 44.5614C66.0618 41.3185 62.983 39.1188 59.2524 37.7808C59.2299 37.9169 59.2075 37.9849 59.2075 38.0529C59.2524 40.9103 59.3198 43.745 59.3648 46.6024C59.3648 47.2827 59.7243 47.6456 60.466 48.0084C60.6008 47.4188 60.8255 46.9199 60.8255 46.3983C60.7806 43.9945 60.7581 41.568 60.7581 39.1188ZM58.6906 71.6158C56.5332 70.5273 54.5555 69.5295 52.5779 68.5317C52.443 68.4636 52.2183 68.441 52.0835 68.509C49.9485 69.5295 47.8136 70.55 45.5438 71.6612C49.9935 73.3393 54.2409 73.2486 58.6906 71.6158Z" fill="black"/>
<path d="M70.0171 33.7899C71.1408 33.8353 72.0397 33.9033 72.9161 33.926C73.5679 33.9486 73.905 33.6992 73.8375 32.9055C73.7252 31.7036 73.7027 30.4563 74.8488 29.6172C74.9163 29.5719 75.0061 29.5265 75.1859 29.3904C75.2983 31.0913 75.4107 32.7014 74.3769 34.0847C74.0398 34.5383 73.5229 34.9691 72.9836 35.1506C72.2195 35.4227 71.7026 35.8989 71.2082 36.4659C70.6239 37.1008 70.6239 37.8492 71.3205 38.3254C73.2982 39.6861 75.4556 40.4798 77.9052 39.9129C78.9614 39.6634 79.6806 38.8243 80.3323 37.9853C80.8042 37.373 81.3211 36.738 81.6807 36.035C82.1751 35.0598 83.074 34.8104 84.0404 34.4475C83.7707 36.035 82.9841 37.2596 81.9504 38.3254C81.0514 39.2552 80.1076 40.1396 79.1637 41.0014C77.6355 42.3847 77.8378 44.403 78.7142 45.605C79.3659 46.5121 80.175 47.3058 80.9166 48.1675C82.3324 47.079 83.7707 47.0563 85.209 47.5779C85.8607 47.8274 86.4 47.782 86.9843 47.5552C87.2091 47.4645 87.4338 47.4418 87.7484 47.3511C87.6361 48.1902 87.8159 48.9839 87.0518 49.5509C86.8495 49.6869 86.827 50.0724 86.7372 50.3219C86.3776 51.2517 86.1079 52.2268 85.6135 53.0886C84.9393 54.2905 83.5235 54.8121 82.265 54.3358C81.838 54.1771 81.3661 53.7009 81.2088 53.27C80.8492 52.2949 80.7143 51.229 80.4222 50.2312C80.3098 49.8684 80.1076 49.4828 79.8604 49.2107C79.0738 48.417 78.1524 47.714 77.4108 46.8749C75.6354 44.8112 75.7478 43.0651 77.6355 41.0921C77.7029 41.0241 77.7704 40.9334 77.9052 40.7973C77.0737 40.9107 76.3321 41.0467 75.5905 41.1148C73.5005 41.2962 71.6127 40.6612 69.9272 39.414C68.5788 38.4161 68.6462 37.1915 70.062 36.3298C70.5789 36.0123 71.1632 35.7855 71.5678 35.6041C69.2755 35.1279 66.8709 34.6516 64.4662 34.062C63.7021 33.8806 62.9605 33.4724 62.2639 33.0642C61.2975 32.4973 60.5784 31.6582 60.466 30.479C59.9266 30.9325 59.4322 31.4314 58.8479 31.7943C57.6569 32.5426 56.3085 32.2478 55.7017 30.9552C55.2747 30.0708 55.05 29.0049 55.0275 28.0071C54.9825 26.0341 55.2073 24.0612 55.2073 22.0656C55.2073 20.6822 55.0724 19.2762 54.9151 17.8929C54.8028 16.8724 55.5219 16.3054 55.8365 15.5117C55.9264 15.5344 56.0163 15.5344 56.1062 15.5571C56.1961 17.5754 56.3534 19.571 56.3534 21.5893C56.3534 23.6303 56.2186 25.6486 56.1287 27.6896C56.1287 27.9164 56.1062 28.1658 56.1062 28.3926C56.241 30.1615 57.7467 31.0686 59.2974 30.2295C60.0615 29.7986 60.7132 29.1637 61.4998 28.5514C61.4323 29.5719 61.702 30.4109 62.6459 30.8645C63.7021 30.2068 64.691 29.4358 65.7921 28.9369C66.8259 28.4833 67.972 28.1658 69.0732 28.0751C70.4441 27.9844 72.1521 29.844 71.9498 31.182C71.8374 31.8623 71.2307 32.4746 70.8037 33.0869C70.6913 33.359 70.4216 33.4951 70.0171 33.7899ZM70.5115 32.4973C70.1969 30.4563 68.9609 29.4585 67.1181 29.6399C65.6573 29.776 64.4438 30.4563 63.1628 31.4087C65.6348 32.1571 67.9496 33.0189 70.5115 32.4973ZM83.5684 47.9181C82.9392 47.8954 82.4672 48.3489 82.4448 48.9839C82.4223 49.5735 83.0291 50.1405 83.7257 50.2085C84.2651 50.2539 84.8045 49.755 84.8045 49.2107C84.8269 48.5757 84.1977 47.9181 83.5684 47.9181ZM84.7595 50.9342C83.8831 50.9342 83.2089 50.9342 82.4223 50.9342C82.7369 51.9093 83.0066 52.8164 83.2988 53.7235C83.4336 53.7235 83.5684 53.7235 83.7257 53.7462C84.0404 52.8391 84.3775 51.9547 84.7595 50.9342Z" fill="black"/>
<path d="M22.3967 26.0565C23.2057 26.7595 24.0148 27.4172 24.7789 28.1655C26.8239 30.1612 28.869 32.1795 30.8916 34.1978C32.4422 35.7852 34.33 35.3997 35.0042 33.268C35.2738 32.4289 35.2963 31.5218 35.4536 30.6147C35.7682 30.7508 36.1053 30.9549 36.4874 31.0909C37.2515 31.3857 37.8807 31.1136 38.3527 30.5013C38.8246 29.9117 38.7572 29.3674 38.3302 28.7325C36.6447 26.2152 34.9143 23.7661 32.5546 21.7931C32.1051 21.4303 32.0602 20.5685 31.8354 19.9335C31.9478 19.8655 32.0377 19.7975 32.1501 19.7294C33.4535 20.954 34.8468 22.1106 36.0604 23.4259C37.3189 24.7639 38.4426 26.2379 39.5887 27.6666C40.3977 28.6871 41.8135 28.5964 42.4428 27.4625C42.645 27.077 42.6675 26.8049 42.3754 26.4874C41.2068 25.1721 40.0606 23.8341 38.8695 22.5415C38.2628 21.8838 37.656 21.2035 36.9593 20.6592C36.0829 19.9335 35.8132 19.0264 35.8581 17.8699C36.4649 18.1647 37.0717 18.4141 37.6335 18.7089C37.7684 18.777 37.9257 19.0038 37.9032 19.1171C37.7908 19.7975 38.2628 20.0923 38.6223 20.5005C40.0157 22.0652 41.4315 23.6073 42.7574 25.2628C43.544 26.2379 43.8136 27.4398 43.3417 28.6871C42.7349 30.2292 41.2742 30.6374 39.9932 29.6169C39.8134 29.4808 39.6561 29.3221 39.2741 29.0046C40.0606 30.7054 39.6336 31.8847 38.3527 32.7918C37.7684 33.2 37.2515 33.1092 36.3301 32.4062C36.2402 33.1319 36.2177 33.8576 36.0829 34.5606C35.7233 36.5109 34.4873 37.2819 32.5995 36.7604C31.7006 36.5109 30.9365 36.0573 30.3073 35.3317C28.1723 32.7691 25.925 30.3653 22.981 28.6871C22.8237 28.5964 22.6664 28.4377 22.6439 28.2789C22.4866 27.5759 22.3518 26.8502 22.2169 26.1472C22.2843 26.1472 22.3293 26.1019 22.3967 26.0565Z" fill="black"/>
<path d="M21.4074 40.5252C22.8906 40.2304 23.7895 39.5048 23.6322 38.4616C23.4749 37.4864 22.9355 36.5567 22.531 35.5135C22.7557 35.6042 22.9805 35.6722 23.2052 35.8083C23.767 36.1485 24.621 36.1258 25.0255 35.7403C25.3851 35.3774 25.4076 35.0599 24.8907 34.8105C23.9244 34.3343 23.9019 34.3116 23.5423 33.2684C24.8907 33.0416 26.4638 34.2662 26.6436 35.7176C26.8009 36.8741 26.1267 37.5318 24.6435 37.7132C24.7783 38.5523 24.9132 39.414 25.093 40.2531C25.1154 40.3892 25.3177 40.5252 25.475 40.5933C28.1718 41.7498 28.846 43.9949 28.6662 46.6936C28.5988 47.8048 28.5089 48.916 28.2167 49.9818C27.6999 51.9321 26.6436 53.4969 24.5536 54.0184C23.0704 54.3813 21.8568 53.7236 20.7332 52.8165C20.2388 52.431 19.7219 52.0682 19.1825 51.66C18.5533 52.2723 17.6543 51.9548 16.7779 51.4785C15.5194 50.7982 14.7104 49.687 13.9912 48.4624C14.5306 48.916 15.0475 49.4376 15.6318 49.8231C16.1711 50.1632 16.7779 50.4581 17.4071 50.6168C18.0589 50.7755 18.2836 50.4807 18.0139 49.8231C17.9015 49.5283 17.7218 49.2788 17.497 48.8706C18.4409 49.1654 18.9803 49.7097 19.4072 50.4581C20.1713 51.8414 21.3849 52.5898 22.9355 52.7031C24.3963 52.8165 25.3851 52.0228 25.9694 50.7529C27.0481 48.3944 27.3178 45.8772 26.9582 43.3373C26.8009 42.158 26.0368 41.6591 24.8458 41.7045C24.5311 41.7272 24.194 41.6818 23.9019 41.7725C22.6434 42.2261 22.104 41.3643 21.4074 40.5252Z" fill="black"/>
<path d="M55.23 56.5128C53.7243 54.7213 52.2411 52.9524 50.7129 51.1609C51.0949 50.8434 51.4545 50.5486 51.859 50.2311C53.9266 52.6803 56.084 55.2428 58.2639 57.7827C58.2414 57.8734 58.2414 57.9642 58.2189 58.0322C57.0503 58.0322 55.9042 58.0095 54.7581 58.0549C54.5109 58.0549 54.1288 58.3043 54.0389 58.5311C53.4322 59.8464 52.5108 60.6401 51.0275 60.6628C49.5668 60.6855 48.5555 60.0051 47.9038 58.6898C47.8363 58.5538 47.7689 58.4177 47.6565 58.2136C46.4655 58.2136 45.2519 58.2136 43.8136 58.2136C45.7463 56.4674 47.5217 54.8346 49.2297 53.2699C49.2297 54.3811 49.2746 55.8551 49.2072 57.3065C49.1622 57.9642 49.4094 58.4177 49.9488 58.5084C50.6005 58.6218 51.3646 58.6445 51.9714 58.4177C52.8928 58.0549 53.0052 57.2158 52.3759 56.4448C51.3646 55.2202 50.3309 53.9956 49.2297 52.6803C49.5892 52.3855 49.9263 52.136 50.3309 51.8185C51.4545 53.1565 52.6456 54.5852 53.8142 56.0139C54.1513 56.4221 54.5109 56.7396 55.23 56.5128ZM47.297 56.1046C47.0722 56.354 46.8026 56.5128 46.825 56.6262C46.87 56.8303 47.0947 56.989 47.2296 57.1478C47.3869 56.989 47.6341 56.8529 47.7015 56.6715C47.724 56.5808 47.4768 56.3767 47.297 56.1046Z" fill="black"/>
<path d="M39.6338 59.166C40.2406 59.2794 40.9148 59.2567 41.4541 59.5062C43.5666 60.436 45.8139 60.6627 48.0837 60.9349C49.6793 61.1163 51.23 61.5472 52.3311 62.9532C53.6121 61.4338 55.3426 61.0709 57.1179 60.9575C59.3203 60.8215 61.4553 60.5267 63.5228 59.6649C63.9947 59.4608 64.6015 59.5742 65.1633 59.5289C65.1858 59.6196 65.1858 59.6876 65.2083 59.7783C63.6576 60.5267 62.1295 61.275 60.5788 62.0234C57.9944 63.248 55.3875 64.4953 52.8031 65.6972C52.5559 65.8106 52.1738 65.8332 51.9491 65.7199C47.859 63.7015 43.7689 61.6606 39.6788 59.5969C39.6338 59.5742 39.6338 59.5062 39.6113 59.4608C39.6113 59.3701 39.6113 59.2567 39.6338 59.166ZM51.8817 65.0169C51.8817 65.0622 51.8817 65.1076 51.8817 65.1529C52.2188 65.1076 52.5784 65.1302 52.8705 64.9942C54.0391 64.4272 55.1852 63.8376 56.3314 63.248C57.2753 62.7718 58.1967 62.2955 59.1405 61.8193C58.8933 61.7513 58.6911 61.8193 58.5113 61.91C56.6685 62.8398 54.8257 63.8149 52.9604 64.722C52.6458 64.8808 52.2413 64.9261 51.8817 65.0169ZM57.4326 62.1141C57.4101 62.0461 57.3876 62.0007 57.3651 61.9327C56.2415 62.477 55.0729 62.9532 54.0166 63.6108C52.893 64.3138 51.8817 64.586 50.803 63.6335C50.758 63.6108 50.6681 63.6335 50.4434 63.6562C50.8929 63.9056 51.23 64.1324 51.5895 64.2458C51.9716 64.3592 52.466 64.5406 52.7806 64.4046C54.3762 63.7015 55.9044 62.8851 57.4326 62.1141ZM55.8819 62.2729C55.8594 62.2048 55.837 62.1595 55.8145 62.0914C54.938 62.5223 54.0616 62.9305 53.2076 63.4294C52.6233 63.7469 52.1514 63.8149 51.5671 63.4294C51.0951 63.0893 50.5333 62.8852 50.0164 62.613C50.6457 63.1346 51.3199 63.5428 52.039 63.883C52.2413 63.9737 52.5559 63.9283 52.7806 63.8376C53.8369 63.3387 54.8482 62.7944 55.8819 62.2729ZM46.578 61.978C46.5555 62.0461 46.5106 62.0914 46.4881 62.1595C47.3421 62.613 48.1961 63.0666 49.0501 63.5201C49.0725 63.4748 49.1175 63.4067 49.14 63.3614C48.286 62.8851 47.432 62.4316 46.578 61.978Z" fill="black"/>
<path d="M53.6346 49.2332C52.084 48.19 52.3087 46.6479 52.2863 45.1512C52.2638 42.1578 52.2188 39.187 52.1514 36.1935C52.1514 35.7173 52.1514 35.3545 52.7807 35.3998C53.2975 35.4452 53.6796 35.3998 53.6796 36.1255C53.7021 39.7086 53.7245 43.3143 53.8144 46.8974C53.8144 47.2829 54.0841 47.7365 54.3313 48.0766C54.7358 48.6209 55.2302 49.0744 55.8145 49.7094C55.2302 49.7094 54.8707 49.7094 54.3987 49.7094C56.7809 52.4307 59.0732 55.0387 61.3879 57.6693C59.8822 58.1228 59.7024 58.0321 58.6911 56.8756C56.8933 54.7892 55.028 52.7482 53.2301 50.6392C52.7582 50.0949 52.2638 49.8228 51.5446 49.9135C51.2075 49.9589 50.8704 49.9135 50.2861 49.9135C50.9154 49.2332 51.3649 48.7343 51.8368 48.2354C52.3761 48.6662 52.511 49.6641 53.6346 49.2332Z" fill="black"/>
<path d="M39.5438 34.7648C40.5326 34.1752 41.4091 33.7443 42.2181 33.1773C44.3081 31.7487 46.3981 30.2973 48.4207 28.7779C49.1174 28.2563 49.6567 27.4853 50.1961 26.7822C50.3534 26.5781 50.3759 26.1246 50.241 25.8978C49.9264 25.3989 49.5444 24.9 49.1174 24.5145C48.3083 23.7434 48.1735 23.3126 48.578 22.1333C50.0612 23.0404 50.4658 22.9951 51.3647 21.7705C50.286 21.2262 50.6455 20.3191 50.7804 19.4347C52.3086 20.2738 52.6906 22.2014 51.4995 23.5847C50.9377 24.2197 50.7804 24.7413 51.0501 25.5803C51.4771 26.9183 50.8927 28.1202 49.9938 29.0273C48.8027 30.2293 47.4768 31.3178 46.1284 32.3383C44.3081 33.6989 42.2181 34.5153 39.9483 34.8328C39.8584 34.8328 39.791 34.7875 39.5438 34.7648Z" fill="black"/>
<path d="M29.8133 68.7811C29.4987 68.9172 29.3413 69.0306 29.229 69.0079C28.1503 68.8492 26.9817 69.076 26.0603 68.1915C25.7906 67.9421 25.2063 68.0328 24.8018 67.874C24.4422 67.738 23.9253 67.5566 23.8354 67.2617C23.6107 66.6268 23.1387 66.4227 22.6893 66.0825C21.9926 65.5609 21.3409 64.926 20.8015 64.2229C19.7678 62.885 19.0037 61.3882 18.6666 59.7101C18.3744 58.2587 18.7565 57.7371 20.1948 57.465C20.4195 57.4196 20.6442 57.4423 21.0937 57.397C19.9251 58.1907 20.2622 59.0978 20.5094 59.9822C21.0937 61.9779 22.105 63.7467 23.4758 65.3115C23.9253 65.8104 24.7119 65.9691 24.8916 66.7855C24.9591 67.035 25.431 67.2844 25.7456 67.3978C27.0266 67.874 28.3076 68.2822 29.8133 68.7811Z" fill="black"/>
<path d="M49.3867 47.623C49.3867 43.5411 49.3867 39.5271 49.3867 35.3771C49.7688 35.3771 50.2182 35.3318 50.6227 35.3998C50.7801 35.4225 50.9823 35.74 50.9823 35.9214C51.0273 37.146 51.0048 38.3479 51.0273 39.5725C51.0497 41.9536 51.0947 44.3121 51.0947 46.6933C51.0947 47.7591 51.0722 47.7591 49.9935 47.6911C49.8362 47.6911 49.7013 47.6684 49.3867 47.623Z" fill="black"/>
<path d="M57.8369 93.9763C58.3089 93.6135 58.6684 93.3413 59.028 93.0465C60.2865 92.026 61.2304 90.7561 62.0169 89.3274C62.4439 88.5564 62.9608 87.808 63.6125 87.2184C64.062 86.8102 64.7587 86.5607 65.3654 86.4927C65.9722 86.4247 66.1295 86.1298 66.2868 85.6309C66.4441 85.1774 66.152 84.293 67.1858 84.4744C67.2307 84.4744 67.3655 84.1796 67.433 84.0208C67.6577 83.4766 67.7701 82.8869 68.0847 82.4334C68.2645 82.1613 68.8488 81.9345 69.096 82.0479C69.3881 82.1613 69.5904 82.6602 69.6803 83.023C69.7477 83.3178 69.5679 83.6807 69.478 84.1342C70.1073 83.4085 70.2421 82.7509 70.0623 81.9345C69.905 81.2088 69.95 80.4604 69.9275 79.7121C70.0623 79.6894 70.1747 79.6667 70.3095 79.644C70.4219 80.0749 70.5567 80.4831 70.6242 80.914C71.0961 83.4992 70.1522 84.7238 67.9274 86.0165C67.4554 86.2886 66.4891 87.1503 66.152 87.5585C65.9273 87.8307 65.5452 88.1255 65.2306 88.1482C63.9721 88.1708 63.1631 88.8512 62.5788 89.849C61.5675 91.5498 60.3764 93.0692 58.5561 93.9083C58.4437 93.9536 58.3313 94.0217 58.1965 94.067C58.1066 94.0897 58.0392 94.0443 57.8369 93.9763ZM69.3207 83.4085C68.1971 83.2044 67.815 83.5219 67.7026 84.6785C68.2645 84.2476 68.7139 83.8848 69.3207 83.4085Z" fill="black"/>
<path d="M55.0508 47.6006C55.0508 43.5187 55.0508 39.5501 55.0508 35.5361C55.5002 35.5361 55.9947 35.5361 56.6913 35.5361C56.6913 37.1462 56.6688 38.7337 56.6913 40.2984C56.7138 42.5662 56.7812 44.834 56.7812 47.1017C56.7812 47.2605 56.4891 47.5553 56.3093 47.6006C55.9722 47.6687 55.5901 47.6006 55.0508 47.6006Z" fill="black"/>
<path d="M32.0828 85.2906C31.9929 85.1319 31.9704 84.9958 31.8805 84.9051C30.9367 83.998 31.2738 83.6125 32.1952 82.8868C33.3638 81.957 34.7346 81.5488 36.1729 81.3901C36.555 81.3447 36.937 81.5488 37.319 81.6622C37.3415 81.6622 37.319 82.0704 37.2516 82.1158C36.7797 82.2972 36.1729 82.7054 35.8583 82.524C34.8695 82.0477 34.038 82.4559 33.1615 82.7281C32.6896 82.8868 32.712 83.227 33.0267 83.5218C33.566 84.0207 33.4087 84.4289 33.0042 84.9505C31.6783 86.5833 29.1613 87.4677 27.4758 86.9008C25.9701 86.3792 25.4982 85.0412 26.3971 83.7032C27.4983 82.0704 29.1613 81.186 30.8917 80.415C30.9367 80.3923 31.0266 80.4376 31.2288 80.5057C30.5546 80.9139 29.9478 81.254 29.386 81.6395C28.8916 81.9797 28.3972 82.3199 27.9702 82.7508C27.1387 83.6352 27.3185 84.6783 28.3298 85.336C29.4984 86.1297 31.0266 86.107 32.0828 85.2906Z" fill="black"/>
<path d="M52.5779 86.1297C52.6678 87.6491 53.8139 87.7398 54.8252 87.8532C56.5556 88.0119 58.2636 87.8758 59.9266 87.3089C60.9379 86.9687 61.8368 86.5152 62.4211 85.54C62.4211 86.6286 62.0391 87.5583 61.1402 88.1253C58.6906 89.69 56.0387 89.9849 53.2745 89.2592C52.3756 89.0324 52.0835 88.4655 52.1509 87.5357C52.1958 87.0821 52.3082 86.6286 52.3981 86.175C52.443 86.1523 52.5105 86.1523 52.5779 86.1297Z" fill="black"/>
<path d="M81.5912 68.2824C81.8384 68.6679 82.0182 69.0988 82.3104 69.4163C83.3217 70.5048 84.1756 70.7543 85.0521 70.3007C85.9285 69.8472 86.5578 68.3278 86.3555 67.1939C86.0634 65.5384 84.9173 64.6313 83.5239 63.9737C83.2542 63.8603 82.9846 63.7469 82.7374 63.6335C82.3104 63.4521 82.1755 63.2253 82.2429 62.6584C82.2879 62.0914 81.9283 61.5018 81.771 60.9802C82.4003 61.0709 83.1643 61.6832 83.1868 62.4316C83.2093 63.0666 83.5689 63.316 83.9959 63.6562C85.0521 64.5179 86.1308 65.3797 86.9848 66.4002C87.9062 67.4887 88.1983 68.8494 87.5241 70.2554C86.9174 71.48 85.6813 71.9789 84.4228 71.48C83.052 70.9357 82.1081 69.8472 81.2541 68.6906C81.344 68.5546 81.4564 68.4185 81.5912 68.2824Z" fill="black"/>
<path d="M74.8713 74.6321C77.2085 76.5597 79.1412 78.7141 79.0064 82.0477C78.9614 83.0001 78.6918 83.8619 77.9951 84.5422C76.5793 85.8802 75.0062 85.7214 73.8151 84.1794C73.0061 83.1135 72.624 81.8662 72.3543 80.5963C72.4218 80.5736 72.4667 80.5283 72.5341 80.5056C72.6465 80.7324 72.7813 80.9591 72.8712 81.1859C72.9836 81.4807 73.0735 81.7755 73.1859 82.0703C73.5454 83.0001 74.0398 83.7938 75.141 83.8619C76.2422 83.9299 77.0288 83.3176 77.6131 82.4559C78.7143 80.8458 78.467 78.8048 76.9613 77.5802C75.995 76.7865 75.2309 75.8794 74.8713 74.6321Z" fill="black"/>
<path d="M82.5352 28.2561C82.3329 28.9138 82.1532 29.5941 81.9284 30.2518C81.8835 30.3651 81.7487 30.4785 81.6588 30.5012C80.8497 30.66 80.5576 31.363 80.1306 31.9526C78.7372 33.8575 77.3439 35.7624 75.8157 37.554C75.2539 38.2116 74.3774 38.5745 73.6358 39.0734C73.5909 39.0053 73.5235 38.9146 73.4785 38.8466C74.2201 37.9395 75.0292 37.1004 75.7034 36.1479C77.3214 33.9255 78.8496 31.6351 80.5126 29.4354C80.9621 28.8457 81.7262 28.5283 82.333 28.0747C82.3779 28.1201 82.4453 28.1881 82.5352 28.2561Z" fill="black"/>
<path d="M45.8581 87.5585C46.7121 88.2389 46.375 88.9872 45.948 89.6902C45.3412 90.6654 44.6221 91.5044 43.476 91.89C42.7119 92.1394 42.0152 92.0487 41.4309 91.5271C40.8241 90.9602 40.8017 90.1891 41.0264 89.4635C41.4759 88.0348 42.4647 86.9916 43.5883 86.0165C43.476 86.1979 43.4086 86.3793 43.2737 86.538C42.9816 86.9236 42.6669 87.2637 42.3973 87.6492C41.6107 88.6924 41.4983 89.6222 42.0602 90.1438C42.7568 90.7561 44.3749 90.7334 45.139 90.0984C45.521 89.7809 45.7233 89.4635 45.2289 89.1006C44.7345 88.7378 44.8019 88.3069 45.1165 87.8533C45.3862 87.4905 45.6559 87.1277 45.948 86.8102C46.3975 86.2886 46.4874 85.767 46.3975 85.064C46.3301 84.5878 46.7571 84.0662 47.0043 83.4766C47.8133 84.5197 47.5886 85.2001 45.8581 87.5585Z" fill="black"/>
<path d="M70.624 21.1582C70.152 21.0902 69.6801 20.9541 69.2306 20.9995C67.1631 21.2263 65.1181 21.0675 63.0955 20.5233C62.1066 20.2511 61.2077 19.0719 60.2189 20.047C60.2638 19.412 60.2638 18.7317 60.3987 18.0967C60.4661 17.7339 60.8032 17.4391 61.1178 16.9402C61.7696 19.4574 63.6348 19.9336 65.59 20.1151C67.0957 20.2511 68.6014 20.0924 70.1296 20.0924C70.4891 20.0924 70.8262 20.2738 71.1858 20.3645C71.0734 20.682 70.9611 20.9995 70.8262 21.317C70.7588 21.2716 70.6914 21.2263 70.624 21.1582Z" fill="black"/>
<path d="M18.7558 37.1914C18.3513 36.7379 17.9243 36.3297 17.6322 35.8535C17.5198 35.672 17.5423 35.1731 17.6771 35.0597C17.8794 34.901 18.2614 34.9464 18.5761 34.901C18.5985 35.1731 18.5985 35.4453 18.6435 35.7174C18.6884 35.9895 18.6435 36.3524 18.8008 36.5111C19.1828 36.874 19.6548 37.1007 20.0818 37.3955C20.329 37.577 20.5537 37.8491 20.6885 38.2346C20.0143 38.2346 19.3177 38.2346 18.6884 38.2346C18.9356 39.618 19.2502 40.9559 19.43 42.3393C19.6098 43.6772 19.8795 45.0606 19.1379 46.2852C19.003 46.2852 18.8907 46.2852 18.7558 46.2852C18.7109 45.4915 18.6659 44.6977 18.6435 43.904C18.621 42.5434 18.6884 41.16 18.6435 39.7994C18.621 39.1644 18.4412 38.5975 17.5423 38.8469C17.3176 38.9149 16.958 38.5748 16.6658 38.416C16.8231 38.1212 16.913 37.6677 17.1602 37.577C17.6322 37.3502 18.194 37.3048 18.7558 37.1914Z" fill="black"/>
<path d="M33.6557 77.8976C33.6557 79.7345 33.6332 80.0293 32.6444 80.2787C32.2848 80.3694 31.723 80.3241 31.4982 80.0746C30.2622 78.7593 28.779 78.9181 27.2733 79.2129C25.6552 79.5304 24.0596 79.485 22.4865 79.0088C22.3292 78.9634 22.1719 78.85 22.0595 78.6233C22.4416 78.6686 22.8236 78.7367 23.2056 78.7593C23.6326 78.8047 24.0371 78.85 24.4641 78.8047C26.0597 78.6459 27.6778 78.4418 29.2734 78.2604C29.4307 78.2377 29.588 78.2151 29.7453 78.1924C31.0263 78.1924 32.3747 78.8047 33.6557 77.8976Z" fill="black"/>
<path d="M82.1083 78.0791C82.0184 76.1289 81.3217 74.4507 80.4453 72.7953C79.9733 71.9335 80.0632 70.9584 80.1981 70.0059C80.3329 69.1215 80.1531 68.9627 79.5913 69.0761C79.3666 69.4843 79.1868 69.7791 79.0295 70.0966C78.7373 69.9152 78.4676 69.7111 78.1755 69.5297C78.153 69.507 78.1305 69.4843 78.1305 69.4616C77.9508 69.0081 77.2091 68.6679 77.8609 68.0556C78.4002 67.5567 79.3441 67.534 79.861 68.0783C80.7374 69.0081 81.3667 70.0966 81.1419 71.4119C80.9846 72.4778 81.1869 73.4076 81.7262 74.2693C82.4004 75.3578 82.3105 76.5371 82.2431 77.7163C82.2656 77.8524 82.1757 77.9658 82.1083 78.0791Z" fill="black"/>
<path d="M17.6543 73.9745C18.6431 72.8406 19.8791 72.1603 21.2275 71.6614C22.913 71.0491 24.6435 70.6635 26.3964 71.5707C26.6885 71.7067 27.1605 71.5933 27.52 71.4573C28.1043 71.2532 28.374 71.548 28.5088 72.0242C28.6662 72.5458 28.6437 73.0447 28.0369 73.2715C27.2503 73.5663 26.4638 73.5663 25.8345 72.954C24.3513 71.548 22.7557 71.3439 20.9579 72.2963C20.1039 72.7499 19.2499 73.2034 18.3959 73.6343C18.1487 73.7704 17.9015 73.8838 17.6543 73.9745Z" fill="black"/>
<path d="M51.0274 84.4742C50.7353 84.9505 50.4431 85.3587 50.2409 85.7895C50.0161 86.2658 49.7914 86.742 49.6566 87.2409C49.5442 87.6718 49.5217 88.148 49.4768 88.6016C49.5667 88.6242 49.6341 88.6242 49.724 88.6469C49.9487 88.3067 50.1959 87.9666 50.4431 87.6037C50.915 88.0119 51.0049 88.4655 50.7128 88.9417C50.4656 89.3726 50.2184 89.8262 49.8588 90.1436C49.6565 90.3251 49.2071 90.4384 48.9599 90.3477C48.7576 90.2797 48.5104 89.8262 48.5329 89.5994C48.7127 88.5108 48.9824 87.4223 49.2296 86.1977C48.5329 85.6988 48.5104 84.8824 48.9599 83.998C49.4093 83.1362 49.9038 82.2972 50.3532 81.4354C50.4431 81.4808 50.533 81.5261 50.6229 81.5715C50.4656 81.889 50.2858 82.1838 50.151 82.5013C49.9937 82.8868 49.7689 83.2723 49.7464 83.6805C49.724 83.9753 49.8363 84.3608 50.0386 84.5649C50.1959 84.6783 50.6004 84.5196 51.0274 84.4742Z" fill="black"/>
<path d="M69.208 26.2609C69.635 26.1021 70.062 25.7846 70.4665 25.8073C73.1183 26.0114 75.7477 26.2835 78.3995 26.533C78.9614 26.5783 79.5232 26.7144 80.085 26.8278C80.1075 26.9185 80.13 26.9865 80.1524 27.0773C79.6805 27.236 79.2086 27.5535 78.7591 27.5081C75.7028 27.2587 72.6464 26.9185 69.5901 26.6237C69.5002 26.6237 69.4103 26.601 69.2979 26.601C69.2754 26.4876 69.2305 26.3742 69.208 26.2609Z" fill="black"/>
<path d="M45.2973 19.5257C45.1399 19.7525 44.9152 19.9566 44.8028 20.2287C44.3534 21.3172 43.9489 22.4284 43.387 23.4943C42.96 22.6779 43.5893 22.179 43.814 21.5667C44.0388 20.9317 44.2635 20.2967 44.5107 19.6617C42.9151 19.2309 42.4207 18.4598 43.0499 17.3713C43.2297 17.0538 43.6792 16.7363 43.9938 16.7363C44.241 16.7363 44.5107 17.2126 44.713 17.5074C44.9602 17.8702 45.1849 18.2784 45.3422 18.6866C45.477 18.9814 45.4995 19.3216 45.5669 19.6391C45.477 19.571 45.3871 19.5484 45.2973 19.5257Z" fill="black"/>
<path d="M24.9362 47.759C24.6441 47.8271 24.3519 47.9405 24.0598 47.9631C23.3182 48.0085 22.5541 47.9178 22.0597 48.6888C21.9698 48.8476 21.4304 48.8022 21.1608 48.6888C20.9585 48.5981 20.7113 48.2126 20.7562 48.0312C20.8237 47.7817 21.1158 47.5096 21.3855 47.4416C21.9698 47.2828 22.599 47.2601 23.2732 47.1921C22.6889 46.8293 22.1496 46.5345 21.6552 46.1716C21.2057 45.8314 21.1608 45.3779 21.6776 45.0831C21.9024 44.947 22.2844 45.0604 22.599 45.0604C22.5541 45.3099 22.5091 45.5593 22.4417 45.7861C22.4193 45.8768 22.3518 45.9675 22.217 46.1943C23.1609 46.6252 24.0823 47.056 25.0037 47.4869C24.9587 47.5776 24.9587 47.6683 24.9362 47.759Z" fill="black"/>
<path d="M82.0634 43.7452C82.6477 43.5411 83.232 43.2916 83.8163 43.1556C84.1983 43.0649 84.6927 43.0649 84.6478 43.6545C84.6253 43.972 84.3332 44.2441 84.1758 44.5616C83.9961 44.3802 83.7938 44.1987 83.614 44.0173C83.5241 43.9266 83.5017 43.7905 83.3893 43.5864C82.4679 44.04 81.569 44.4935 80.6925 44.9471C80.6251 44.8791 80.5577 44.811 80.4678 44.743C80.67 44.3802 80.8498 44.0173 81.0746 43.6772C81.3667 43.2009 81.8386 42.7927 81.4116 42.1124C81.3218 41.9763 81.524 41.5228 81.7038 41.4094C81.9735 41.2733 82.3555 41.228 82.6477 41.3187C82.7825 41.3414 82.9623 41.7949 82.8949 41.9537C82.6926 42.5433 82.378 43.1102 82.0634 43.7452Z" fill="black"/>
<path d="M64.6917 81.6396C63.9726 81.5262 63.6804 80.9592 64.0175 80.2335C64.2647 79.7346 64.6243 79.2357 65.0288 78.8502C66.4446 77.4895 67.8829 76.1742 69.4785 74.7002C69.3437 75.1084 69.3212 75.4939 69.1414 75.698C68.22 76.7412 67.2761 77.739 66.3098 78.7141C65.9727 79.0543 65.5907 79.3264 65.2311 79.6212C64.3996 80.2789 64.3097 80.5964 64.6917 81.6396Z" fill="black"/>
<path d="M74.0849 23.2219C73.5231 24.061 73.0062 24.8547 72.4893 25.6484C72.3769 25.6257 72.2646 25.603 72.1522 25.5804C72.1522 25.1495 72.1073 24.7186 72.1522 24.2877C72.2196 23.7435 72.2421 23.2672 71.7252 22.8817C71.5679 22.7683 71.4555 22.2921 71.5454 22.156C71.7252 21.8839 72.0623 21.6571 72.3769 21.5891C72.5118 21.5664 72.8713 21.9066 72.9163 22.1107C73.0287 22.7003 73.0286 23.3126 73.0511 23.9702C73.4332 23.5394 73.7927 23.0858 74.1748 22.6776C74.4894 22.3601 74.8939 22.2014 75.1636 22.6549C75.3209 22.9271 75.231 23.3126 75.2535 23.6528C74.9838 23.6074 74.7141 23.562 74.4669 23.494C74.377 23.4487 74.3096 23.3579 74.0849 23.2219Z" fill="black"/>
<path d="M71.8599 72.5458C71.1857 71.4799 71.343 70.3914 72.2644 69.5069C73.051 68.7586 73.1409 67.8061 72.9836 66.8083C72.9386 66.5135 72.8712 66.2187 72.7813 65.7651C73.9274 67.0351 73.9949 70.1192 72.8262 71.0944C72.3768 71.4572 72.1745 72.0695 71.8599 72.5458Z" fill="black"/>
<path d="M47.7239 20.2058C47.7913 19.8883 47.8363 19.5708 47.9037 19.2533C47.8363 19.2987 47.7688 19.3214 47.7239 19.3667C47.4992 18.9585 47.0947 18.573 47.0722 18.1421C47.0048 17.4391 47.7913 16.396 48.3082 16.2826C48.4655 16.2599 48.8026 16.3506 48.8251 16.4413C48.915 16.7588 48.8925 17.1216 48.915 17.2804C48.3981 17.4165 48.061 17.5072 47.5441 17.6432C48.7801 18.5957 49.297 17.4165 50.0386 17.1216C50.0836 17.9834 50.0836 17.9834 47.7239 20.2058Z" fill="black"/>
<path d="M28.959 24.7415C29.6781 25.0363 30.0152 26.0568 31.0715 25.5579C30.5546 24.991 30.1276 24.4921 29.6781 24.0158C29.7231 23.9705 29.768 23.9478 29.813 23.9024C30.4422 24.2426 31.0715 24.5601 31.7007 24.9003C31.7681 24.8095 31.8356 24.7188 31.903 24.6281C31.3861 24.2653 30.8467 23.9251 30.3298 23.5623C30.4422 23.4262 30.5546 23.2901 30.6669 23.1768C31.3861 23.4035 32.0603 23.7437 32.4423 24.4694C32.5547 24.6735 32.4199 25.2177 32.2401 25.3311C31.7906 25.5806 31.5434 25.8754 31.431 26.3743C31.3861 26.5331 31.0939 26.7371 30.9142 26.7598C30.2849 26.7825 28.9815 25.4672 28.959 24.7415Z" fill="black"/>
<path d="M34.7569 87.3316C35.2738 87.1501 35.6109 86.9914 35.9704 86.946C37.0267 86.81 38.038 86.6966 38.7796 85.7895C38.9369 85.5854 39.274 85.5174 39.5437 85.4266C40.1505 85.2452 40.7572 85.1092 41.4539 84.9277C41.0719 85.6988 40.3977 86.0389 39.6336 86.3111C39.0942 86.5152 38.5099 86.7419 38.0605 87.0821C36.9368 87.9892 35.8806 88.1706 34.7569 87.3316Z" fill="black"/>
<path d="M30.1726 74.0879C30.3074 75.0857 29.9703 75.7207 29.1613 76.0608C27.9477 76.5597 26.2622 76.0608 25.3184 74.7229C26.1049 75.0177 26.6892 75.2218 27.2735 75.4259C28.2399 75.7887 28.3073 75.7434 28.5545 74.7682C28.5994 74.5641 28.8466 74.3373 29.0489 74.2466C29.386 74.1332 29.768 74.1559 30.1726 74.0879Z" fill="black"/>
<path d="M74.7139 65.4478C75.1858 65.3344 75.6577 65.2437 76.1072 65.1303C75.9274 64.8128 75.7252 64.4046 75.5004 63.9737C75.9724 63.5882 76.4443 63.4521 76.8938 63.7923C77.1634 63.9964 77.5005 64.4726 77.4106 64.6541C77.2309 65.0169 76.8039 65.2437 76.4668 65.5385C76.669 65.8786 76.9612 66.3549 76.2645 66.7177C75.5679 67.0806 75.3656 66.9218 74.7139 65.4478Z" fill="black"/>
<path d="M25.3857 62.477C25.0486 62.3636 24.2845 62.545 24.4643 61.6379C24.5991 61.003 25.0261 60.8896 26.352 61.1844C26.2172 61.5472 26.1048 61.9101 25.97 62.2956C26.3745 62.3409 26.8015 62.409 27.4981 62.4997C27.0936 63.0666 26.8689 63.5882 26.4869 63.8603C26.3071 63.9964 25.7003 63.8603 25.5205 63.6562C25.3407 63.4521 25.4306 62.9759 25.3857 62.477Z" fill="black"/>
<path d="M57.14 83.1817C57.5221 83.5445 57.8592 83.8393 58.1963 84.1341C58.3761 83.7713 58.5783 83.3858 58.7806 83.0002C60.0616 83.4992 60.1739 84.2702 59.0727 85.2C58.8031 84.9732 58.5334 84.7464 58.2188 84.497C57.8817 84.8598 57.7693 85.6989 56.9827 85.2227C56.2861 84.7918 56.3085 84.633 57.14 83.1817Z" fill="black"/>
<path d="M14.306 42.4526C14.9128 42.6794 15.4971 42.8608 16.0364 43.1103C16.8005 43.4731 16.9354 43.904 16.5308 44.539C16.1713 45.1059 15.4521 45.242 14.8903 44.8338C14.306 44.4256 14.1262 43.7679 14.306 42.4526Z" fill="black"/>
<path d="M29.7681 43.8586C29.5883 43.5638 29.2062 43.2463 29.2287 42.9515C29.3186 41.2961 29.4984 39.6179 29.6332 37.9624C29.7231 37.9398 29.813 37.9171 29.9254 37.8944C30.1052 38.2119 30.4198 38.5521 30.3973 38.8469C30.2849 40.4797 30.0827 42.1124 29.9029 43.7679C29.858 43.8133 29.813 43.8359 29.7681 43.8586Z" fill="black"/>
<path d="M88.0179 39.8447C87.7483 39.9807 87.5011 40.0941 87.2314 40.2302C87.2988 40.2529 87.3662 40.2755 87.4336 40.2982C87.2763 40.7518 87.2314 41.3187 86.9392 41.6135C86.4898 42.0444 85.8156 42.0217 85.2762 41.6362C85.0515 41.4775 84.8267 41.1146 84.8492 40.8652C84.8942 40.593 85.1863 40.2302 85.4335 40.1622C86.2426 39.9127 87.0965 39.7766 87.928 39.5952C87.973 39.6859 87.9955 39.754 88.0179 39.8447Z" fill="black"/>
<path d="M54.062 28.075C53.9496 28.4152 53.8148 28.7327 53.7024 29.0728C53.68 29.1182 53.6125 29.1409 53.5901 29.1636C52.3316 30.1614 51.0506 31.1592 49.5898 32.1117C49.7247 31.7488 49.7696 31.2499 50.0168 31.0231C51.2529 29.9573 52.5563 28.9595 53.8373 27.939C53.9047 27.9843 53.9721 28.0297 54.062 28.075Z" fill="black"/>
<path d="M85.3662 45.378C85.8831 45.2193 86.4 45.0832 86.8944 44.8791C87.9956 44.4255 88.8046 43.7225 88.9394 42.4299C89.0069 41.9083 89.2316 41.8403 90.0856 41.9764C89.7934 44.1307 88.1754 45.3326 85.3662 45.378Z" fill="black"/>
<path d="M80.332 58.4404C82.422 59.3475 84.7368 59.8011 86.3324 61.638C84.3547 60.5494 81.9501 60.232 80.332 58.4404Z" fill="black"/>
<path d="M39.9486 80.6191C38.5777 82.3426 37.9035 84.6104 35.7686 85.6082C37.1844 84.1342 37.7012 81.9118 39.589 80.8232C39.7014 80.7325 39.8137 80.6872 39.9486 80.6191Z" fill="black"/>
<path d="M33.0488 28.0522C33.1612 28.7099 33.2735 29.2542 33.3634 29.8211C31.4083 30.32 31.2959 30.3654 31.1835 28.3017C31.7678 28.211 32.3746 28.143 33.0488 28.0522Z" fill="black"/>
<path d="M79.9056 77.036C78.4448 75.3579 76.4447 74.3374 75.4784 72.3191C75.4559 72.251 75.4559 72.183 75.4559 72.0923C76.8492 72.7726 79.591 75.7661 79.9056 77.036Z" fill="black"/>
<path d="M66.3764 38.0301C66.1067 37.5538 65.8595 37.1683 65.5674 36.6921C66.0843 36.2839 66.6012 35.8757 67.1855 35.4448C67.4776 36.0118 67.7473 36.5107 68.0394 37.0776C67.5001 37.3951 66.9607 37.6899 66.3764 38.0301Z" fill="black"/>
<path d="M44.376 30.0933C44.4434 29.7984 44.4209 29.4356 44.5782 29.1862C44.8929 28.7099 45.2749 28.279 45.657 27.8482C46.1963 27.2359 46.7581 26.6463 47.2975 26.0566C47.3649 26.0793 47.4323 26.102 47.5222 26.1247C47.4773 26.4195 47.5447 26.805 47.3874 27.0091C46.4885 28.0976 45.5221 29.1181 44.6007 30.1613C44.5333 30.1386 44.4434 30.1159 44.376 30.0933Z" fill="black"/>
<path d="M29.0262 29.1635C28.8689 28.846 28.7341 28.5058 28.5768 28.1884C28.0374 27.1452 27.2284 26.4422 26.0373 26.3288C25.3856 26.2608 25.2732 25.9206 25.2732 25.399C27.0261 25.1495 28.824 26.8957 29.0262 29.1635Z" fill="black"/>
<path d="M85.322 32.9055C84.6927 33.1096 84.1983 33.2683 83.7264 33.4271C83.0522 31.8623 83.1196 31.7262 84.8276 31.0459C84.9849 31.6582 85.1422 32.2251 85.322 32.9055Z" fill="black"/>
<path d="M83.5684 38.4386C85.0066 37.8036 86.4674 37.1686 86.2427 35.1503C86.5573 35.0596 86.827 34.9916 87.0966 34.9009C87.5012 36.6017 85.928 38.1891 83.5684 38.4386Z" fill="black"/>
<path d="M43.8583 94.0893C43.701 94.2027 43.4987 94.3614 43.2965 94.5202C42.4425 93.8398 42.4425 93.8398 43.5886 92.8193C43.7459 93.0234 43.9257 93.2049 44.128 93.4543C44.3302 93.2956 44.5325 93.1141 44.9145 92.8193C45.0269 93.2275 45.2516 93.5677 45.1842 93.8625C45.1393 94.112 44.8246 94.3841 44.555 94.4975C44.4426 94.5428 44.1729 94.2707 43.8583 94.0893Z" fill="black"/>
<path d="M62.0166 26.5781C62.7807 25.2174 63.2751 23.9021 61.9717 22.5641C62.1739 22.3147 62.3313 22.0879 62.511 21.8838C63.9943 23.0403 63.4549 25.3308 62.0166 26.5781Z" fill="black"/>
<path d="M20.9128 66.4683C19.924 67.3754 17.0924 68.3052 16.0586 68.0557C17.6092 67.2393 19.0925 66.559 20.9128 66.4683Z" fill="black"/>
<path d="M73.9051 78.7595C75.0962 78.1926 75.8378 78.5327 75.8378 79.5305C75.8378 80.0748 75.4558 80.0521 75.1187 80.1428C74.7816 80.2335 74.4445 80.3696 74.2872 79.9161C74.1523 79.5305 74.04 79.145 73.9051 78.7595Z" fill="black"/>
<path d="M81.5236 66.4002C82.5349 65.5838 83.2316 65.5611 83.5687 66.3548C83.6586 66.5589 83.5237 67.0125 83.344 67.1712C83.0968 67.398 82.7596 67.8969 82.3102 67.3526C82.063 67.0578 81.8158 66.763 81.5236 66.4002Z" fill="black"/>
<path d="M90.1753 66.491C89.8607 66.0375 89.5461 65.5839 89.2539 65.1304C90.1079 64.4954 90.6248 64.4727 91.0518 65.0397C91.5012 65.6293 91.4113 65.9468 90.7371 66.2189C90.5349 66.3096 90.3551 66.4003 90.1753 66.491Z" fill="black"/>
<path d="M90.1532 66.4681C90.288 66.6269 90.4453 66.7629 90.5577 66.9217C90.7824 67.2619 91.0072 67.6474 90.5128 67.9195C90.1082 68.1236 89.6363 68.5545 89.2543 67.8515C89.097 67.5567 88.9172 67.2619 88.6475 66.7856C89.2318 66.6722 89.7037 66.5815 90.1532 66.4681Z" fill="black"/>
<path d="M67.1634 92.1166C65.7701 91.1869 65.7701 91.1869 66.5566 89.6448C66.8937 89.9849 67.3881 90.2571 67.4556 90.5972C67.5455 91.0281 67.2758 91.5497 67.1634 92.1166Z" fill="black"/>
<path d="M30.8467 39.5952C31.2063 40.0488 31.5434 40.525 31.9479 40.9105C32.1727 41.1146 32.5097 41.16 32.8019 41.296C32.9143 41.0012 33.0266 40.7064 33.139 40.4343C33.6559 40.7518 33.9031 41.3641 33.5885 41.7949C33.2738 42.2485 32.6221 42.2712 32.1052 41.7042C31.5434 41.1146 31.1164 40.4116 30.6445 39.754C30.7119 39.7086 30.7793 39.6632 30.8467 39.5952Z" fill="black"/>
<path d="M67.9049 24.8999C67.7251 25.1267 67.5903 25.4442 67.3431 25.5576C67.0959 25.671 66.624 25.7163 66.5116 25.5576C66.3093 25.2854 66.0846 24.7639 66.2194 24.5371C66.6689 23.7434 67.2532 23.0404 67.7926 22.292C67.86 22.3373 67.9499 22.4054 68.0173 22.4507C67.7027 22.9043 67.3431 23.3352 67.0959 23.8114C66.9611 24.0835 67.006 24.4464 66.9611 24.7639C67.2307 24.8092 67.5229 24.8546 67.9049 24.8999Z" fill="black"/>
<path d="M59.8369 25.7618C59.7246 26.3968 59.1403 26.9411 58.6683 26.805C58.1964 26.669 57.9267 25.9659 58.2189 25.331C58.5335 24.6733 58.9605 24.061 59.3201 23.4487C59.3875 23.4941 59.4549 23.5168 59.5223 23.5621C59.3201 23.993 59.0504 24.4239 58.9155 24.8774C58.8256 25.1949 58.9155 25.5578 58.9155 25.9206C59.2302 25.8526 59.5448 25.8072 59.8369 25.7618Z" fill="black"/>
<path d="M64.6015 90.5292C65.6802 91.0281 65.9049 91.459 65.4554 92.23C65.3431 92.4341 64.9161 92.6609 64.8711 92.6155C64.6015 92.3661 64.2419 92.0486 64.1969 91.7311C64.152 91.3682 64.4441 90.9827 64.6015 90.5292Z" fill="black"/>
<path d="M38.5101 88.8057C39.0719 89.7128 39.027 90.1436 38.3752 90.5065C37.9707 90.7333 37.6112 90.8013 37.364 90.2344C37.0718 89.5994 37.1842 89.4406 38.5101 88.8057Z" fill="black"/>
<path d="M70.8264 87.4224C71.8827 87.7399 72.1973 88.1254 71.9051 88.8057C71.8152 89.0325 71.3658 89.3046 71.186 89.2593C70.9388 89.1912 70.6466 88.8284 70.6242 88.5562C70.5567 88.1934 70.7365 87.8079 70.8264 87.4224Z" fill="black"/>
<path d="M60.7584 39.1189C60.7584 41.5681 60.7808 43.9946 60.7359 46.4211C60.7359 46.92 60.5112 47.4416 60.3763 48.0312C59.6347 47.6684 59.2976 47.3055 59.2751 46.6252C59.2527 43.7678 59.1852 40.9331 59.1178 38.0757C59.1178 38.0077 59.1403 37.917 59.1628 37.8036C62.8933 39.1416 65.9721 41.364 68.2869 44.5842C73.5456 51.9091 72.804 62.2728 66.5789 68.7812C62.4214 73.1353 57.3424 75.3124 51.3646 75.2217C42.3753 75.0856 34.7119 68.5998 33.1613 59.5968C31.4533 49.6867 37.4312 40.9785 46.0384 37.917C46.1058 37.8943 46.1957 37.8943 46.4205 37.8489C46.4205 39.958 46.4205 42.0443 46.4205 44.108C46.4205 44.9017 46.3755 45.6954 46.4205 46.4891C46.4654 47.2148 46.3531 47.8044 45.6339 48.1899C45.1395 47.8725 44.9597 47.3962 44.9597 46.7613C45.0047 44.1987 44.9822 41.6588 44.9822 39.0962C44.9148 39.0282 44.8473 38.9601 44.7799 38.8921C43.499 39.7085 42.1281 40.4115 40.9145 41.3413C35.6333 45.4006 33.0265 50.7979 33.3636 57.5105C33.5883 62.0233 35.3861 65.8558 38.5998 69.008C42.7573 73.0673 47.7014 74.8589 53.4995 74.4507C61.073 73.9064 68.579 68.1236 70.669 60.2318C72.8939 51.773 68.7139 42.702 60.7584 39.1642C60.8033 39.1189 60.7359 39.1189 60.7584 39.1189Z" fill="white"/>
<path d="M58.6908 71.6162C54.2635 73.2716 49.9936 73.3397 45.5439 71.6615C47.8137 70.5503 49.9487 69.5298 52.0836 68.5093C52.2185 68.4413 52.4432 68.464 52.578 68.532C54.5557 69.5072 56.5333 70.5276 58.6908 71.6162ZM52.6005 72.4326C52.9376 72.1151 53.3197 71.7976 53.6568 71.4121C53.8141 71.2307 54.0388 70.8905 53.9939 70.7317C53.8815 70.4369 53.5669 70.2328 53.3421 70.0061C53.0949 70.2555 52.7129 70.4596 52.6455 70.7544C52.5106 71.2987 52.6005 71.8883 52.6005 72.4326ZM51.0049 72.4326C51.0948 72.4326 51.1847 72.4326 51.2746 72.4326C51.3196 72.1151 51.342 71.7749 51.4094 71.4801C51.4544 71.3214 51.5892 71.1173 51.7241 71.0719C52.2634 70.9358 52.3308 70.5957 52.2634 70.1648C51.7465 70.1648 51.2746 70.1648 50.6229 70.1648C50.7352 70.9132 50.8701 71.6842 51.0049 72.4326ZM49.8138 72.4099C49.8813 72.4099 49.9487 72.4099 50.0161 72.4099C50.3307 71.5935 50.3083 70.7998 49.8363 70.0741C49.724 70.0968 49.6116 70.0968 49.4992 70.1195C49.6116 70.8678 49.724 71.6388 49.8138 72.4099ZM54.7579 72.4099C54.8928 72.4099 55.0051 72.4099 55.14 72.4099C55.095 71.6615 55.0276 70.8905 54.9827 70.1421C54.8703 70.1421 54.7355 70.1648 54.6231 70.1648C54.1736 70.9358 54.8029 71.6615 54.7579 72.4099Z" fill="white"/>
<path d="M70.5118 32.4969C67.9274 33.0185 65.6351 32.1568 63.1631 31.4084C64.4665 30.456 65.6801 29.7756 67.1183 29.6396C68.9836 29.4808 70.1972 30.4786 70.5118 32.4969Z" fill="white"/>
<path d="M83.5686 47.9179C84.2203 47.9406 84.8271 48.5756 84.8271 49.1879C84.8046 49.7321 84.2877 50.231 83.7484 50.1857C83.0292 50.1403 82.4449 49.5734 82.4674 48.9611C82.4674 48.3488 82.9393 47.8953 83.5686 47.9179Z" fill="white"/>
<path d="M84.7591 50.9341C84.377 51.9319 84.0624 52.839 83.7253 53.7461C83.5905 53.7461 83.4556 53.7461 83.2983 53.7234C83.0062 52.8163 82.714 51.9092 82.4219 50.9341C83.2084 50.9341 83.8826 50.9341 84.7591 50.9341Z" fill="white"/>
<path d="M47.2965 56.1045C47.4763 56.3766 47.7235 56.5807 47.701 56.6941C47.6336 56.8755 47.4089 57.0116 47.2291 57.1703C47.0942 56.9889 46.8695 56.8302 46.8246 56.6488C46.8021 56.5127 47.0718 56.3539 47.2965 56.1045Z" fill="white"/>
<path d="M51.8818 65.0167C52.2414 64.926 52.6459 64.8806 52.9606 64.7219C54.8258 63.7921 56.6686 62.8396 58.5114 61.9099C58.6912 61.8191 58.871 61.7511 59.1407 61.8191C58.1968 62.2954 57.2754 62.7716 56.3315 63.2478C55.1854 63.8374 54.0393 64.4497 52.8707 64.994C52.5785 65.1301 52.2189 65.1074 51.8818 65.1528C51.8818 65.1074 51.8818 65.062 51.8818 65.0167Z" fill="white"/>
<path d="M57.4324 62.1139C55.8818 62.885 54.3536 63.7013 52.7805 64.4044C52.4659 64.5404 51.9714 64.3817 51.5894 64.2456C51.2298 64.1322 50.9152 63.9055 50.4433 63.656C50.6455 63.6333 50.7579 63.6106 50.8028 63.6333C51.8816 64.5858 52.8928 64.291 54.0165 63.6106C55.0727 62.953 56.2413 62.4768 57.365 61.9325C57.3875 62.0005 57.41 62.0686 57.4324 62.1139Z" fill="white"/>
<path d="M55.8821 62.2729C54.8483 62.7945 53.837 63.3388 52.7808 63.815C52.5785 63.9057 52.2414 63.9511 52.0392 63.8604C51.32 63.5202 50.6459 63.112 50.0166 62.5904C50.5335 62.8626 51.0953 63.0667 51.5672 63.4068C52.1516 63.815 52.6235 63.747 53.2078 63.4068C54.0618 62.9306 54.9382 62.5224 55.8147 62.0688C55.8372 62.1596 55.8596 62.2276 55.8821 62.2729Z" fill="white"/>
<path d="M46.5782 61.978C47.4322 62.4316 48.2861 62.8851 49.1401 63.3387C49.1176 63.384 49.0727 63.4521 49.0502 63.4974C48.1962 63.0439 47.3423 62.5903 46.4883 62.1368C46.5108 62.0914 46.5557 62.0234 46.5782 61.978Z" fill="white"/>
<path d="M69.3202 83.4083C68.691 83.8845 68.264 84.2474 67.7021 84.6782C67.837 83.5217 68.1966 83.2042 69.3202 83.4083Z" fill="white"/>
<path d="M52.6004 72.4324C52.6004 71.8881 52.5106 71.2985 52.6229 70.7542C52.6903 70.4594 53.0724 70.2553 53.3196 70.0059C53.5443 70.2326 53.8589 70.4367 53.9713 70.7315C54.0387 70.8903 53.814 71.2304 53.6342 71.4119C53.3196 71.7974 52.9151 72.1149 52.6004 72.4324Z" fill="black"/>
<path d="M51.0052 72.4323C50.8703 71.6613 50.7579 70.8902 50.6231 70.1646C51.2748 70.1646 51.7468 70.1646 52.2637 70.1646C52.3311 70.5954 52.2637 70.9356 51.7243 71.0717C51.5895 71.117 51.4546 71.3211 51.4097 71.4799C51.3198 71.7973 51.3198 72.1148 51.2748 72.4323C51.1849 72.455 51.095 72.455 51.0052 72.4323Z" fill="black"/>
<path d="M49.8137 72.41C49.7013 71.639 49.6114 70.8679 49.499 70.1196C49.6114 70.0969 49.7238 70.0969 49.8361 70.0742C50.3081 70.7999 50.3305 71.5936 50.0159 72.41C49.9485 72.41 49.8811 72.41 49.8137 72.41Z" fill="black"/>
<path d="M54.7585 72.4096C54.8259 71.6385 54.1742 70.9129 54.6012 70.1418C54.7135 70.1418 54.8484 70.1191 54.9607 70.1191C55.0057 70.8675 55.0731 71.6385 55.118 72.3869C55.0057 72.4096 54.8708 72.4096 54.7585 72.4096Z" fill="black"/>
</svg>
