<svg width="29" height="29" viewBox="0 0 29 29" fill="none" xmlns="http://www.w3.org/2000/svg">
<path d="M14.0439 28.2465C12.1238 28.2647 10.2032 28.2509 8.28481 28.1751C6.91786 28.1211 5.55135 28.0408 4.21385 27.7032C1.98185 27.1398 0.896408 25.7866 0.513627 23.626C-0.0154857 20.6388 0.0960467 17.6187 0.0835549 14.6062C0.0759707 12.8296 0.0612472 11.0521 0.110322 9.27647C0.15672 7.6016 0.239255 5.92182 0.618914 4.2813C0.770599 3.62473 1.01775 2.9918 1.3876 2.40928C1.93099 1.55422 2.74161 1.0832 3.66109 0.778113C4.90045 0.367313 6.19379 0.232164 7.48802 0.165704C11.5282 -0.0417031 15.571 0.0292165 19.613 0.0983523C20.9799 0.121546 22.3531 0.200051 23.6987 0.490421C24.918 0.753584 26.0623 1.16973 26.8542 2.21659C27.299 2.80491 27.5564 3.4762 27.7335 4.18852C28.2492 6.26572 28.272 8.38663 28.288 10.5053C28.3086 13.2119 28.2929 15.9189 28.2845 18.6254C28.28 20.08 28.2149 21.5372 27.9887 22.9712C27.7794 24.2986 27.4622 25.6122 26.4062 26.5939C25.7928 27.1639 25.058 27.4712 24.267 27.6751C22.5561 28.1158 20.8019 28.139 19.0527 28.2081C17.3837 28.2737 15.7138 28.2335 14.0444 28.2469L14.0439 28.2465ZM25.0005 16.7654H24.9929C24.9929 15.9068 24.9938 15.0482 24.9916 14.19C24.9916 14.0981 25.021 13.9741 24.9171 13.9331C24.8095 13.8903 24.7551 14.0129 24.6927 14.0758C23.932 14.8435 23.1638 15.6044 22.4192 16.3881C21.5925 17.2574 20.6369 18.0059 19.9677 19.0246C19.7941 19.2891 19.5171 19.2954 19.253 19.0996C18.7167 18.7021 18.2974 18.1825 17.8271 17.7168C17.4229 17.3167 17.05 16.8854 16.656 16.4746C15.9886 15.7784 15.327 15.075 14.6395 14.3992C14.3071 14.0727 13.977 14.0915 13.65 14.3992C13.1472 14.8729 12.6475 15.3502 12.1595 15.8386C11.132 16.8667 10.0881 17.8779 9.09453 18.9399C8.79161 19.2637 8.7412 19.241 8.45121 18.9207C8.25179 18.6999 8.04702 18.4831 7.83689 18.2731C6.54935 16.9849 5.25958 15.699 3.96892 14.4139C3.90424 14.3493 3.844 14.2333 3.74184 14.2667C3.60978 14.3105 3.66065 14.4505 3.6602 14.5486C3.65574 16.2302 3.65618 17.9113 3.65351 19.5929C3.65351 19.7713 3.71953 19.9006 3.84981 20.0291C5.0044 21.1683 6.16122 22.3052 7.29618 23.4636C8.1639 24.349 9.42691 24.3151 10.2759 23.4556C11.4073 22.3101 12.5521 21.1781 13.6924 20.0416C14.1211 19.6143 14.1282 19.6183 14.5655 20.0523C15.6728 21.1509 16.7497 22.2785 17.8436 23.3896C18.9674 24.531 20.1863 24.4489 21.1303 23.444C21.6755 22.8637 22.2644 22.3293 22.8046 21.7441C23.443 21.0532 24.1243 20.402 24.793 19.7396C24.9389 19.5951 25.0049 19.4421 25.0027 19.2343C24.9938 18.4118 24.9991 17.5888 24.9991 16.7659L25.0005 16.7654ZM14.0586 3.04042C12.4575 2.95076 10.9375 4.33304 10.9522 6.12745C10.9665 7.82864 12.3602 9.24258 14.0314 9.23321C15.7754 9.2234 17.1329 7.838 17.1312 6.0815C17.1294 4.41868 15.7611 2.98288 14.0586 3.04042ZM19.7749 15.2779C21.4618 15.3644 22.946 13.8154 22.8881 12.1552C22.8278 10.4286 21.5314 9.09092 19.816 9.09047C17.9373 9.08958 16.7408 10.4982 16.7105 12.1115C16.6752 13.979 18.0783 15.2971 19.7749 15.2779ZM5.49826 12.0459C5.46926 13.7154 6.82417 15.1441 8.46683 15.1829C10.2206 15.2244 11.6482 13.8939 11.675 12.1342C11.7004 10.4714 10.511 9.03606 8.64528 8.9919C6.90269 8.95087 5.5286 10.2979 5.49826 12.0459Z" fill="#2CA852"/>
<path d="M25 16.7655C25 17.5884 24.9947 18.4114 25.0036 19.2339C25.0058 19.4417 24.9393 19.5947 24.7939 19.7392C24.1251 20.4016 23.4435 21.0528 22.8055 21.7437C22.2652 22.3285 21.6763 22.8633 21.1312 23.4436C20.1871 24.448 18.9683 24.5306 17.8445 23.3892C16.7506 22.2781 15.6732 21.1505 14.5663 20.0519C14.1291 19.6183 14.122 19.6143 13.6932 20.0412C12.5529 21.1777 11.4081 22.3097 10.2768 23.4552C9.42776 24.3147 8.16477 24.3486 7.29704 23.4632C6.16208 22.3048 5.00526 21.1679 3.85067 20.0287C3.7204 19.9002 3.65392 19.7709 3.65437 19.5925C3.65705 17.9109 3.65615 16.2298 3.66106 14.5482C3.66106 14.4501 3.61065 14.3096 3.7427 14.2663C3.84531 14.2324 3.90509 14.3489 3.96978 14.4135C5.26044 15.6986 6.54977 16.9849 7.83775 18.2726C8.04833 18.4832 8.25266 18.7 8.45208 18.9203C8.74206 19.241 8.79247 19.2633 9.0954 18.9395C10.0889 17.8775 11.1329 16.8663 12.1603 15.8382C12.6484 15.3498 13.1481 14.8721 13.6509 14.3988C13.9779 14.0906 14.308 14.0719 14.6404 14.3988C15.3279 15.075 15.9895 15.778 16.6569 16.4742C17.0508 16.885 17.4238 17.3163 17.828 17.7164C18.2982 18.1821 18.718 18.7017 19.2538 19.0992C19.5179 19.295 19.795 19.2887 19.9685 19.0242C20.6377 18.0055 21.5933 17.257 22.42 16.3877C23.1646 15.6045 23.9324 14.8435 24.6935 14.0754C24.756 14.0125 24.8109 13.8899 24.9179 13.9327C25.0214 13.9742 24.992 14.0977 24.9924 14.1896C24.9942 15.0482 24.9938 15.9069 24.9938 16.765H25.0013L25 16.7655Z" fill="#ECC51E"/>
</svg>
