<svg width="24" height="29" viewBox="0 0 24 29" fill="none" xmlns="http://www.w3.org/2000/svg">
<path d="M23.1216 15.342C23.0952 15.8171 22.8677 16.2274 22.6674 16.6373C21.9567 18.0923 21.0158 19.3787 19.8371 20.4991C18.7164 21.5638 17.6288 22.6633 16.5357 23.757C15.1233 25.1705 13.7198 26.5925 12.3153 28.0135C12.239 28.0907 12.1909 28.1951 12.1244 28.282C11.9857 28.1634 12.0249 28.0769 12.0249 28.0042C12.0289 26.7593 12.0365 25.5144 12.0432 24.2695C12.161 24.2789 12.2475 24.2302 12.3385 24.1535C12.8199 23.7481 13.3084 23.3506 13.7961 22.9523C14.6317 22.2699 15.4726 21.5937 16.3038 20.9055C17.3125 20.0705 18.3114 19.2244 19.3178 18.3867C20.2315 17.6262 21.1421 16.8612 22.0696 16.1177C22.4086 15.8461 22.6919 15.4928 23.1211 15.342H23.1216Z" fill="#52B95A"/>
<path d="M23.1216 15.3422C22.6924 15.4929 22.4091 15.8462 22.0701 16.1178C21.1426 16.8614 20.232 17.6263 19.3183 18.3868C18.3119 19.2245 17.313 20.0706 16.3043 20.9056C15.4731 21.5934 14.6322 22.2696 13.7965 22.9525C13.3089 23.3508 12.8204 23.7482 12.339 24.1536C12.248 24.2304 12.161 24.2794 12.0437 24.2696C12.037 24.0618 12.0187 23.853 12.0267 23.6456C12.0334 23.4739 11.9687 23.4248 11.8028 23.4244C11.3861 23.4244 10.9685 23.4154 10.559 23.3231C10.5616 23.2326 10.563 23.1483 10.646 23.0796C11.3611 22.4863 12.0713 21.886 12.7874 21.2936C13.7961 20.4596 14.8106 19.6326 15.8184 18.7976C16.919 17.8859 18.012 16.9657 19.1127 16.0536C20.3667 15.0143 21.6177 13.971 22.8887 12.9532C23.1332 12.7574 23.305 12.4086 23.702 12.4429C23.7074 13.4487 23.4624 14.4041 23.122 15.3408L23.1216 15.3422Z" fill="#61BC59"/>
<path d="M0.352325 12.508C0.248822 11.7711 0.311276 11.0365 0.392919 10.3037C0.421471 10.0485 0.431738 9.78715 0.532564 9.54406C0.767229 9.49366 0.937651 9.33353 1.11209 9.18857C2.01863 8.43521 2.90867 7.66178 3.82547 6.92136C4.74182 6.18183 5.63855 5.41866 6.55848 4.68269C7.16432 4.19785 7.75589 3.68535 8.34791 3.17821C9.50071 2.19068 10.6839 1.23884 11.8608 0.279856C11.9562 0.202245 12.0223 0.137124 12.0098 0.0126798C13.0667 -0.0189889 14.1035 0.10233 15.1135 0.422139C14.2935 1.05061 13.5239 1.74018 12.7312 2.40166C12.5357 2.56491 12.3649 2.78213 12.0633 2.73172C11.9576 2.32628 12.0414 1.91324 12.012 1.50467C12.0058 1.41993 12.0606 1.30128 11.9629 1.25801C11.8625 1.21386 11.8121 1.33295 11.7528 1.39227C11.2768 1.86596 10.8271 2.36686 10.3484 2.8352C9.32271 3.8379 8.29571 4.83925 7.287 5.85934C6.93545 6.21483 6.60487 6.59129 6.27339 6.96596C5.79781 7.50344 5.48374 8.14439 5.14022 8.76617C4.91314 8.77598 4.80294 8.96376 4.64947 9.08732C3.50738 10.0066 2.36439 10.9246 1.2495 11.8773C0.974684 12.1123 0.735106 12.4174 0.352771 12.5084L0.352325 12.508Z" fill="#AED251"/>
<path d="M12.0089 0.012227C12.0214 0.136671 11.9553 0.201793 11.8599 0.279403C10.6834 1.23883 9.49983 2.19023 8.34702 3.17776C7.755 3.6849 7.16344 4.1974 6.55759 4.68224C5.63811 5.4182 4.74094 6.18138 3.82458 6.92091C2.90778 7.66133 2.01774 8.43476 1.1112 9.18812C0.937211 9.33263 0.766343 9.4932 0.531677 9.54361C0.64098 8.58953 0.957735 7.69523 1.36951 6.83928C3.13709 3.16705 6.03293 0.941767 10.0312 0.160309C10.6807 0.0331883 11.3424 -0.0279164 12.008 0.012227H12.0089Z" fill="#B2D350"/>
<path d="M23.7015 12.4442C23.3045 12.4094 23.1331 12.7582 22.8882 12.9545C21.6172 13.9723 20.3662 15.0161 19.1122 16.0549C18.0116 16.9666 16.9185 17.8868 15.8179 18.7989C14.8101 19.6339 13.7952 20.4609 12.7869 21.2949C12.0709 21.8873 11.3611 22.4872 10.6455 23.0809C10.5625 23.1496 10.5611 23.2339 10.5585 23.3244C10.0209 23.2901 9.49756 23.1808 8.98273 23.026C9.08846 22.7098 9.34365 22.5171 9.60999 22.3748C10.103 22.1116 10.4817 21.7062 10.8859 21.3489C11.5507 20.7619 12.2685 20.2401 12.9176 19.637C13.0804 19.4858 13.3481 19.3805 13.2736 19.0719C13.4936 19.0077 13.714 18.9434 13.9339 18.8792C14.1717 18.8792 14.3751 18.7597 14.5937 18.6923C14.6325 18.6901 14.6758 18.6977 14.7102 18.6843C16.0057 18.1669 17.0849 17.3649 17.9495 16.2654C18.4198 15.6677 18.7249 14.9831 19.0573 14.3113C19.3241 14.347 19.5248 14.2467 19.6694 14.0214C19.7006 13.9728 19.7443 13.9277 19.7916 13.8947C20.2583 13.5709 20.6821 13.1927 21.1305 12.8474C21.8768 12.2734 22.5853 11.6579 23.2947 11.0414C23.4053 10.9451 23.5119 10.7925 23.7006 10.8162C23.7006 11.359 23.7006 11.9018 23.7006 12.4447L23.7015 12.4442Z" fill="#66BD59"/>
<path d="M0.351868 12.5079C0.733757 12.4169 0.973334 12.1118 1.2486 11.8767C2.36348 10.924 3.50647 10.0061 4.64857 9.08677C4.80204 8.96322 4.91179 8.77544 5.13887 8.76562C5.05098 9.02477 4.9216 9.27099 4.8859 9.54708C4.86761 9.58098 4.84174 9.61265 4.83237 9.64878C4.56246 10.668 4.52232 11.7019 4.63876 12.7452C4.49778 12.7247 4.42327 12.825 4.3336 12.9057C4.1257 13.0931 3.91647 13.2795 3.70099 13.4579C2.94702 14.0819 2.18993 14.7015 1.43463 15.3237C1.29678 15.437 1.17632 15.5797 0.97556 15.5802C0.607501 14.5882 0.397819 13.5645 0.351868 12.5074V12.5079Z" fill="#A4CE53"/>
<path d="M12.0633 2.73122C12.3649 2.78117 12.5357 2.56395 12.7311 2.40115C13.5239 1.73967 14.293 1.0501 15.1135 0.421631C15.8219 0.563917 16.4786 0.84314 17.1166 1.17232C17.3861 1.31103 17.6542 1.45242 17.9228 1.59248C17.9228 1.68258 17.8657 1.7419 17.8037 1.7932C17.1577 2.32933 16.5094 2.86369 15.863 3.39938C15.3794 3.80037 14.8967 4.20314 14.4139 4.60547C13.6279 4.40876 12.8355 4.25087 12.0222 4.22589C12.02 4.08762 12.0173 3.9489 12.0151 3.81062C12.0593 3.45201 11.9526 3.08715 12.0633 2.73166V2.73122Z" fill="#A4CE53"/>
<path d="M5.79172 21.6196C5.12832 21.2311 4.52649 20.7632 3.98667 20.216C3.98489 20.1245 4.04422 20.0705 4.10713 20.0188C4.31547 19.848 4.52515 19.6794 4.73171 19.5067C5.55036 18.8216 6.36768 18.1347 7.18544 17.4487C7.78549 17.8653 8.4016 18.2547 9.05385 18.5852C9.07526 18.7494 8.96863 18.8471 8.86067 18.9354C8.0206 19.6209 7.16671 20.29 6.34404 20.9956C6.13971 21.1709 5.83321 21.2882 5.79128 21.6192L5.79172 21.6196Z" fill="#7FC357"/>
<path d="M21.8036 5.25757C22.2426 5.87801 22.5999 6.54171 22.8623 7.25626C22.7512 7.24243 22.6816 7.31068 22.5986 7.37134C21.6894 8.03549 20.8752 8.81561 19.9847 9.50207C19.7804 9.65952 19.6135 9.91108 19.2959 9.85666C19.2794 9.85533 19.2629 9.85354 19.2468 9.85086C19.1027 9.14389 18.777 8.50874 18.4603 7.87001C18.5709 7.80712 18.694 7.75895 18.7904 7.67866C19.4476 7.13182 20.0909 6.56847 20.7552 6.03055C21.092 5.75802 21.3931 5.43197 21.8036 5.25757Z" fill="#7FC357"/>
<path d="M19.2951 9.85634C19.6128 9.91076 19.7796 9.65964 19.9839 9.50174C20.8744 8.81529 21.6886 8.03517 22.5978 7.37102C22.6803 7.31081 22.7504 7.24212 22.8615 7.25595C23.1185 7.86077 23.3402 8.47719 23.4593 9.12618C23.3464 9.14357 23.2563 9.2029 23.1707 9.2756C22.8744 9.52717 22.5768 9.77784 22.2766 10.0249C21.5378 10.6333 20.7999 11.2422 20.0558 11.8439C19.8907 11.9773 19.7511 12.174 19.495 12.1423C19.5365 11.3706 19.4231 10.6128 19.2951 9.8559V9.85634Z" fill="#75C059"/>
<path d="M7.18638 17.4486C6.36862 18.1346 5.55086 18.8211 4.7322 19.5066C4.52564 19.6793 4.31596 19.8483 4.10762 20.0187C4.04471 20.0704 3.98538 20.1244 3.98717 20.2158C3.43664 19.7408 2.97087 19.1909 2.55597 18.5963C2.60014 18.5753 2.651 18.5619 2.68759 18.5321C3.28005 18.0436 3.87965 17.5628 4.45918 17.0592C4.90263 16.6743 5.3956 16.3487 5.80515 15.9241C6.26556 16.4326 6.72597 16.9406 7.18682 17.4486H7.18638Z" fill="#89C656"/>
<path d="M5.7923 21.6196C5.83423 21.2886 6.14073 21.1709 6.34506 20.996C7.16773 20.2904 8.02162 19.6209 8.86169 18.9358C8.9701 18.8475 9.07673 18.7494 9.05487 18.5857C9.09725 18.5821 9.13963 18.5785 9.18246 18.575L9.3395 18.6129C9.38545 18.7012 9.43274 18.7837 9.51884 18.6441L9.52866 18.6361L9.68525 18.6874C9.74057 18.8096 9.83604 18.8488 9.96363 18.8203C10.313 18.9572 10.681 19.0228 11.0437 19.1093C11.0665 19.2556 10.9929 19.3582 10.8889 19.4456C10.5084 19.7659 10.1292 20.0875 9.74682 20.4059C9.05933 20.9787 8.36872 21.5482 7.68256 22.1223C7.57014 22.2164 7.43362 22.2985 7.42023 22.4698C6.83937 22.2601 6.30134 21.968 5.79319 21.6192L5.7923 21.6196Z" fill="#75C059"/>
<path d="M19.4951 12.1423C19.7512 12.174 19.8913 11.9773 20.0559 11.8439C20.8001 11.2422 21.538 10.6329 22.2768 10.025C22.577 9.77788 22.8746 9.52721 23.1708 9.27564C23.2565 9.20294 23.3466 9.14362 23.4595 9.12622C23.5139 9.69313 23.7441 10.2346 23.7013 10.8154C23.5126 10.7917 23.4059 10.9443 23.2953 11.0406C22.5859 11.657 21.8775 12.2726 21.1311 12.8466C20.6827 13.1919 20.2585 13.5701 19.7923 13.8939C19.745 13.9269 19.7012 13.972 19.67 14.0206C19.525 14.2458 19.3247 14.3462 19.0579 14.3105C19.2658 13.6004 19.4452 12.8845 19.4956 12.1428L19.4951 12.1423Z" fill="#6EBF59"/>
<path d="M21.8033 5.25765C21.3928 5.43205 21.0917 5.75765 20.7549 6.03063C20.0906 6.56855 19.4472 7.1319 18.7901 7.67874C18.6937 7.75903 18.5706 7.8072 18.4599 7.86964C18.1137 7.37365 17.743 6.89773 17.3196 6.46418C17.3232 6.39638 17.3723 6.3656 17.42 6.3268C18.2298 5.66711 19.0279 4.99315 19.8505 4.35085C20.1057 4.15148 20.2869 3.84861 20.6268 3.76074C21.0765 4.21436 21.4758 4.70813 21.8033 5.25765Z" fill="#89C656"/>
<path d="M7.41951 22.4702C7.4329 22.2989 7.56942 22.2164 7.68185 22.1228C8.36844 21.5483 9.05861 20.9791 9.7461 20.4064C10.128 20.0879 10.5076 19.7668 10.8882 19.4461C10.9921 19.3582 11.0658 19.2561 11.043 19.1098C11.7885 19.2101 12.5317 19.1901 13.2737 19.0714C13.3482 19.3801 13.0805 19.4853 12.9176 19.6365C12.2685 20.2396 11.5507 20.7615 10.886 21.3484C10.4818 21.7053 10.103 22.1112 9.61003 22.3743C9.34413 22.5162 9.0885 22.7093 8.98276 23.0255C8.4483 22.8779 7.91115 22.7378 7.41907 22.4707L7.41951 22.4702Z" fill="#6EBF59"/>
<path d="M20.6263 3.76018C20.2864 3.84805 20.1053 4.15091 19.8501 4.35028C19.0274 4.99303 18.2288 5.66699 17.4196 6.32623C17.3714 6.36548 17.3227 6.39581 17.3192 6.46406C16.8855 6.05014 16.405 5.69286 15.929 5.33112C15.9451 5.30614 15.9553 5.27224 15.9781 5.25708C16.8525 4.67723 17.6007 3.94038 18.4225 3.29585C18.7325 3.05231 18.9953 2.73697 19.3865 2.60449C19.8456 2.9408 20.2605 3.32484 20.6268 3.76062L20.6263 3.76018Z" fill="#91C855"/>
<path d="M5.80495 15.9241C5.39585 16.3492 4.90243 16.6744 4.45897 17.0597C3.87945 17.5633 3.27985 18.0442 2.68738 18.5326C2.6508 18.5629 2.59993 18.5758 2.55576 18.5968C2.21983 18.1632 1.92494 17.7043 1.6925 17.2069C1.90397 16.9081 2.21314 16.7145 2.48618 16.4844C3.08756 15.9768 3.68895 15.4669 4.31621 14.9919C4.56381 14.8041 4.71995 14.4866 5.06794 14.4348C5.10095 14.5178 5.13619 14.5998 5.16653 14.6837C5.32669 15.1244 5.6555 15.4785 5.8054 15.9246L5.80495 15.9241Z" fill="#91C855"/>
<path d="M5.06781 14.4343C4.71983 14.4856 4.56369 14.8036 4.31609 14.9914C3.68927 15.4665 3.08789 15.9763 2.48605 16.4839C2.21302 16.7145 1.90429 16.9081 1.69238 17.2064C1.37964 16.6971 1.16014 16.1467 0.975891 15.5806C1.17665 15.5802 1.29711 15.4375 1.43496 15.3242C2.19026 14.7019 2.94735 14.082 3.70132 13.4584C3.9168 13.28 4.12603 13.0935 4.33393 12.9062C4.4236 12.8255 4.49811 12.7251 4.63909 12.7456C4.71493 13.3255 4.8907 13.8803 5.06781 14.4343Z" fill="#98CA54"/>
<path d="M19.3869 2.6041C18.9956 2.73658 18.7333 3.05193 18.4228 3.29546C17.601 3.93999 16.8528 4.67684 15.9784 5.25669C15.9557 5.27185 15.9454 5.30575 15.9293 5.33073C15.4408 5.05374 14.9238 4.83697 14.4134 4.60503C14.8966 4.20315 15.3788 3.79993 15.8624 3.39894C16.5089 2.8628 17.1567 2.3289 17.8031 1.79276C17.8651 1.74146 17.9218 1.68214 17.9222 1.59204C18.4527 1.86814 18.9403 2.20624 19.3864 2.6041H19.3869Z" fill="#98CA54"/>
<path d="M12.0628 2.7313C11.9522 3.08679 12.0588 3.4521 12.0146 3.81027C11.9602 3.85398 11.8995 3.89234 11.8522 3.94274C10.7043 5.16488 9.42707 6.25589 8.29211 7.4923C7.68939 8.14843 7.00279 8.72872 6.51918 9.49011C6.21715 9.43837 5.9178 9.49189 5.61889 9.51866C5.37486 9.54051 5.13304 9.59136 4.88678 9.54809C4.92292 9.27199 5.05186 9.02579 5.13974 8.76664C5.48327 8.14486 5.79734 7.5039 6.27292 6.96642C6.60439 6.59175 6.93497 6.2153 7.28653 5.85981C8.29523 4.84017 9.32223 3.83881 10.3479 2.83567C10.8266 2.36733 11.2767 1.86643 11.7523 1.39274C11.8117 1.33386 11.8621 1.21432 11.9624 1.25848C12.0601 1.30175 12.0053 1.41995 12.0115 1.50514C12.0405 1.91371 11.9571 2.32674 12.0628 2.73219V2.7313Z" fill="#C8E09E"/>
<path d="M13.934 18.8788C14.1758 18.6468 14.5064 18.5732 14.7848 18.402C16.195 17.5349 17.0409 16.2744 17.2974 14.6611C17.5503 13.0709 17.1328 11.632 16.083 10.3876C15.1738 9.30994 13.996 8.74436 12.6264 8.52758C12.6166 8.5258 12.6063 8.52714 12.5965 8.52536C12.4118 8.49636 12.1709 8.61278 12.0522 8.46202C11.934 8.3117 12.0143 8.07441 12.0138 7.87548C12.0125 7.38394 12.0223 6.89241 12.0277 6.40088C12.3261 6.42764 12.625 6.4205 12.9257 6.4602C14.2757 6.63817 15.4236 7.21535 16.4176 8.13061C16.9244 8.59717 17.3108 9.15516 17.6793 9.72877C17.7377 9.95312 17.8675 10.1454 17.9568 10.355C18.4498 11.5125 18.5439 12.7351 18.3172 13.9443C17.9755 15.7668 16.9931 17.2003 15.4085 18.2048C15.1408 18.3748 14.8133 18.4435 14.5938 18.6915C14.3752 18.7588 14.1718 18.8788 13.934 18.8783V18.8788Z" fill="#DBEBCA"/>
<path d="M14.5938 18.6918C14.8133 18.4438 15.1403 18.3747 15.4084 18.2052C16.9931 17.2007 17.9759 15.7672 18.3172 13.9446C18.5438 12.7359 18.4497 11.5128 17.9567 10.3554C17.8675 10.1457 17.7377 9.95305 17.6792 9.72914C17.8559 9.73628 18.025 9.83039 18.2057 9.78133C18.5612 9.68454 18.9074 9.70371 19.246 9.85046C19.2625 9.85314 19.2786 9.85537 19.2951 9.85626C19.4232 10.6132 19.5365 11.371 19.495 12.1426C19.4446 12.8844 19.2652 13.6003 19.0573 14.3104C18.7245 14.9826 18.4198 15.6668 17.9491 16.2645C17.0841 17.364 16.0049 18.1659 14.7098 18.6833C14.6754 18.6972 14.6326 18.6891 14.5933 18.6914L14.5938 18.6918Z" fill="#B2D9A0"/>
<path d="M4.88612 9.54772C5.13238 9.59143 5.37419 9.54013 5.61823 9.51828C5.91758 9.49151 6.21649 9.43799 6.51852 9.48973C5.97691 10.4576 5.6798 11.5 5.62046 12.6026C5.56291 13.6754 5.82256 14.7075 6.3017 15.6442C6.89417 16.8016 7.76635 17.7414 8.93968 18.3637C9.03203 18.4127 9.14356 18.456 9.18193 18.5746C9.13954 18.5782 9.09717 18.5818 9.05434 18.5853C8.40209 18.2548 7.78598 17.8654 7.18593 17.4488C6.72552 16.9408 6.26467 16.4328 5.80426 15.9243C5.65436 15.4782 5.32556 15.1241 5.1654 14.6834C5.13506 14.5995 5.09982 14.5175 5.0668 14.4345C4.88969 13.8801 4.71392 13.3257 4.63808 12.7458C4.52164 11.7025 4.56178 10.6686 4.83169 9.64941C4.84106 9.61328 4.86694 9.58162 4.88523 9.54772H4.88612Z" fill="#B2D9A0"/>
<path d="M9.18216 18.5746C9.14424 18.4559 9.03227 18.4126 8.93992 18.3636C7.76659 17.7409 6.89441 16.8016 6.30194 15.6441C5.8228 14.7074 5.56315 13.6748 5.6207 12.6026C5.68003 11.5 5.97715 10.4576 6.51876 9.48966C7.00281 8.72827 7.68941 8.14842 8.29169 7.49185C9.42665 6.25588 10.7044 5.16443 11.8518 3.94229C11.8991 3.89188 11.9598 3.85397 12.0142 3.80981C12.0164 3.94809 12.0191 4.0868 12.0214 4.22552C12.0178 4.93294 12.0147 5.63991 12.0115 6.34688C11.631 6.71798 11.2473 7.08596 10.8708 7.46108C10.0022 8.3255 9.14023 9.19661 8.26938 10.0592C7.40834 10.9121 6.84176 11.9362 6.72086 13.1329C6.55802 14.744 6.97515 16.2128 8.09851 17.4331C8.4746 17.8417 8.89843 18.1914 9.38471 18.4626C9.45609 18.5027 9.5297 18.5366 9.52792 18.6357C9.52792 18.6357 9.5181 18.6437 9.51766 18.6432C9.46189 18.6076 9.40211 18.5991 9.33876 18.6125L9.18172 18.5746H9.18216Z" fill="#DBEBCA"/>
<path d="M12.012 6.34719C12.0151 5.64022 12.0187 4.9328 12.0218 4.22583C12.8351 4.25081 13.6275 4.40871 14.4135 4.60496C14.9235 4.8369 15.441 5.05368 15.9295 5.33067C16.4055 5.69285 16.886 6.05013 17.3197 6.46405C17.743 6.8976 18.1138 7.37352 18.46 7.86951C18.7767 8.50824 19.1024 9.1434 19.2465 9.85037C18.9079 9.70407 18.5612 9.68444 18.2061 9.78123C18.0254 9.8303 17.8563 9.73663 17.6797 9.72904C17.3112 9.15544 16.9248 8.59745 16.418 8.13089C15.424 7.21562 14.2757 6.63845 12.9261 6.46048C12.6255 6.42078 12.3265 6.42792 12.0281 6.40116C12.0205 6.38376 12.0151 6.36592 12.0125 6.34719H12.012Z" fill="#C8E09E"/>
<path d="M9.68488 18.6873C9.81604 18.6516 9.91196 18.6895 9.96326 18.8202C9.83567 18.8487 9.74064 18.8095 9.68488 18.6873Z" fill="#DBEBCA"/>
<path d="M9.33923 18.6129C9.40258 18.5996 9.46237 18.608 9.51813 18.6437C9.43248 18.7838 9.38519 18.7012 9.33923 18.6129Z" fill="#B2D9A0"/>
</svg>
