<svg width="29" height="29" viewBox="0 0 29 29" fill="none" xmlns="http://www.w3.org/2000/svg">
<path d="M14.5245 0.437012C22.872 0.552536 28.6664 7.20965 28.6722 14.5822C28.678 22.1858 22.7507 28.7488 14.4928 28.7506C6.81754 28.7519 0.376733 22.759 0.370488 14.5907C0.364688 6.87066 6.38657 0.562794 14.5245 0.437012ZM14.3117 19.1608C14.3969 19.2219 14.4928 19.2892 14.5869 19.3588C15.6028 20.1117 16.6159 20.8687 17.6345 21.6176C18.4174 22.193 18.9144 22.0038 19.1183 21.0524C19.6751 18.4565 20.2278 15.8592 20.7815 13.2628C20.9952 12.261 21.2071 11.2592 21.4195 10.2574C21.436 10.1794 21.4462 10.1004 21.4623 10.0224C21.5341 9.67758 21.4819 9.36357 21.208 9.12181C20.9399 8.88541 20.6467 8.98488 20.3639 9.09416C16.2639 10.6763 12.1644 12.2592 8.06581 13.8445C7.52822 14.0523 6.98484 14.2512 6.46867 14.5046C6.30404 14.5853 6.1412 14.8208 6.11934 15.0028C6.09124 15.2379 6.35 15.3128 6.55478 15.3748C7.66743 15.7129 8.78141 16.0479 9.89095 16.3958C10.0806 16.4551 10.2238 16.4364 10.3906 16.3307C12.2149 15.1745 14.044 14.026 15.8718 12.8757C16.6806 12.3667 17.489 11.8578 18.2996 11.352C18.4567 11.2539 18.6217 11.1482 18.8221 11.3458C18.7355 11.4408 18.6637 11.5335 18.5785 11.6116C16.4986 13.5144 14.4192 15.4167 12.334 17.3133C12.1805 17.4529 12.1229 17.5974 12.1113 17.8017C12.0752 18.4378 12.011 19.072 11.9623 19.7072C11.9271 20.1675 11.899 20.6283 11.8615 21.1764C12.9246 20.7224 13.4725 19.7817 14.3099 19.1608H14.3117Z" fill="#1F96D1"/>
</svg>
