<svg width="27" height="74" viewBox="0 0 27 74" fill="none" xmlns="http://www.w3.org/2000/svg">
<path d="M5.88018 49.5288C4.77345 53.7503 5.4182 60.9861 15.0267 71.2777L7.54938 70.9524L7.48343 72.8738L18.1836 73.3785L18.6883 62.6783L16.7669 62.6123L16.38 69.8815C9.88595 62.9258 6.81355 56.3623 7.47055 51.2322C11.721 55.5002 17.1541 57.3356 20.8879 56.6393C23.9308 56.0567 25.7951 53.7849 26.0454 50.4958C26.3333 46.1087 24.2505 42.7395 20.4454 41.5097C15.9588 40.1191 9.30056 41.9516 6.64177 47.3565C1.20767 39.544 -3.13917 24.0743 21.4093 1.42083L20.084 0.00129848C-5.45816 23.5825 -0.827102 40.7795 5.88018 49.5288ZM19.9015 43.346C21.6005 43.8852 24.4971 45.5648 24.1949 50.3635C23.9729 52.8292 22.7522 54.3674 20.6084 54.7748C17.1491 55.4804 11.9999 53.38 8.0949 49.0552C9.91139 44.171 15.8219 42.1067 19.9015 43.346Z" fill="white"/>
</svg>
