<svg width="31" height="25" viewBox="0 0 31 25" fill="none" xmlns="http://www.w3.org/2000/svg">
<path d="M0.823445 22.0251C3.5502 23.7731 6.78823 24.7927 10.2672 24.7927C21.7056 24.7927 28.1678 15.1338 27.7788 6.46993C28.982 5.60239 30.0268 4.51762 30.8526 3.28165C29.7471 3.7714 28.5595 4.10326 27.3143 4.25134C28.5858 3.49085 29.5628 2.28342 30.0224 0.844057C28.8321 1.54969 27.5133 2.06308 26.1111 2.33962C24.9869 1.14246 23.3857 0.394897 21.6132 0.394897C17.6373 0.394897 14.7147 4.10504 15.6123 7.95791C10.492 7.70144 5.95218 5.24868 2.91446 1.52159C1.30035 4.29104 2.07707 7.91286 4.82078 9.74563C3.81029 9.71352 2.85958 9.43564 2.02888 8.97443C1.96286 11.8286 4.00793 14.4973 6.97069 15.0927C6.10341 15.3287 5.1536 15.3822 4.18951 15.1976C4.97203 17.6454 7.24775 19.4251 9.94372 19.4755C7.35437 21.5054 4.09136 22.4118 0.822998 22.0255L0.823445 22.0251Z" fill="#55ACEF"/>
</svg>
