<svg width="11" height="6" viewBox="0 0 11 6" fill="none" xmlns="http://www.w3.org/2000/svg">
<path fill-rule="evenodd" clip-rule="evenodd" d="M5.77093 5.77094C5.62422 5.91761 5.42526 6 5.2178 6C5.01035 6 4.81139 5.91761 4.66467 5.77094L0.238846 1.34511C0.164122 1.27294 0.10452 1.18661 0.0635174 1.09116C0.0225146 0.995705 0.000932086 0.893043 2.94012e-05 0.789161C-0.000873284 0.68528 0.0189221 0.582259 0.05826 0.486109C0.0975979 0.38996 0.155691 0.302607 0.229149 0.229149C0.302607 0.155691 0.389959 0.0975977 0.486109 0.0582598C0.582258 0.0189219 0.68528 -0.000873044 0.789161 2.96777e-05C0.893043 0.000932399 0.995704 0.0225149 1.09116 0.0635178C1.18661 0.104521 1.27294 0.164123 1.34511 0.238846L5.2178 4.11154L9.0905 0.238848C9.23806 0.0963339 9.43568 0.0174761 9.64082 0.0192587C9.84595 0.0210413 10.0422 0.103321 10.1872 0.248378C10.3323 0.393434 10.4146 0.589661 10.4164 0.794794C10.4181 0.999927 10.3393 1.19755 10.1968 1.34511L5.77093 5.77094Z" fill="white"/>
</svg>
