<svg width="29" height="28" viewBox="0 0 29 28" fill="none" xmlns="http://www.w3.org/2000/svg">
<circle cx="14.9285" cy="14" r="14" fill="url(#paint0_linear_625_3764)"/>
<path d="M20.3806 10.8193C21.7053 11.7109 22.4998 12.4033 22.4998 14.0002C22.4998 15.5972 21.7053 16.2896 20.3806 17.1807V19.8808H17.6805C16.7889 21.2055 16.0965 22 14.5 22C12.9035 22 12.2106 21.2055 11.319 19.8808H8.61942V17.1807C7.29475 16.2896 6.49976 15.5972 6.49976 14.0002C6.49976 12.4033 7.29475 11.7109 8.61942 10.8193V8.11966H11.319C12.2106 6.795 12.903 6 14.5 6C16.097 6 16.7889 6.795 17.6805 8.11966H20.3806V10.8193Z" stroke="white" stroke-width="2"/>
<defs>
<linearGradient id="paint0_linear_625_3764" x1="2.69123" y1="9.85465e-07" x2="28.8246" y2="30.3333" gradientUnits="userSpaceOnUse">
<stop stop-color="#3DAD40"/>
<stop offset="0.847183" stop-color="#B1E39C"/>
</linearGradient>
</defs>
</svg>
