<svg width="31" height="34" viewBox="0 0 31 34" fill="none" xmlns="http://www.w3.org/2000/svg">
<path fill-rule="evenodd" clip-rule="evenodd" d="M5.57256 2.57143C4.38909 2.57143 3.4297 3.53081 3.4297 4.71429C3.4297 5.89776 4.38909 6.85714 5.57256 6.85714C6.75604 6.85714 7.71542 5.89776 7.71542 4.71429C7.71542 3.53081 6.75604 2.57143 5.57256 2.57143ZM0.858276 4.71429C0.858276 2.11066 2.96894 0 5.57256 0C7.73047 0 9.54974 1.44986 10.1094 3.42857H23.5726C27.5963 3.42857 30.8583 6.6905 30.8583 10.7143C30.8583 14.7381 27.5963 18 23.5726 18H8.14399C5.54037 18 3.4297 20.1106 3.4297 22.7143C3.4297 25.3179 5.54037 27.4286 8.14399 27.4286H26.4685L25.2349 26.1948C24.7328 25.6927 24.7328 24.8787 25.2349 24.3766C25.737 23.8745 26.551 23.8745 27.0531 24.3766L30.4816 27.8052C30.9838 28.3073 30.9838 29.1213 30.4816 29.6234L27.0531 33.0519C26.551 33.5541 25.737 33.5541 25.2349 33.0519C24.7328 32.5498 24.7328 31.7359 25.2349 31.2338L26.4685 30H8.14399C4.1202 30 0.858276 26.7381 0.858276 22.7143C0.858276 18.6905 4.1202 15.4286 8.14399 15.4286H23.5726C26.1762 15.4286 28.2868 13.3179 28.2868 10.7143C28.2868 8.11066 26.1762 6 23.5726 6H10.1094C9.54974 7.97871 7.73047 9.42857 5.57256 9.42857C2.96894 9.42857 0.858276 7.31791 0.858276 4.71429Z" fill="#2A2B2D"/>
</svg>
