<svg width="11" height="6" viewBox="0 0 11 6" fill="none" xmlns="http://www.w3.org/2000/svg">
<path fill-rule="evenodd" clip-rule="evenodd" d="M6.00118 5.22498C5.86834 5.35778 5.68821 5.43237 5.50039 5.43237C5.31256 5.43237 5.13243 5.35778 4.99959 5.22498L0.992552 1.21794C0.924899 1.1526 0.870937 1.07444 0.833814 0.98802C0.79669 0.901601 0.77715 0.808653 0.776333 0.714601C0.775516 0.620549 0.793438 0.527276 0.829053 0.440225C0.864669 0.353173 0.917265 0.274086 0.983772 0.207578C1.05028 0.141071 1.12937 0.0884751 1.21642 0.0528595C1.30347 0.0172439 1.39674 -0.000678008 1.49079 0.000139278C1.58485 0.000956565 1.67779 0.0204969 1.76421 0.0576199C1.85063 0.0947429 1.92879 0.148705 1.99414 0.216358L5.50039 3.72261L9.00664 0.216358C9.14023 0.0873295 9.31915 0.0159335 9.50488 0.0175474C9.6906 0.0191613 9.86826 0.0936558 9.99959 0.224987C10.1309 0.356317 10.2054 0.533976 10.207 0.719699C10.2086 0.905422 10.1372 1.08435 10.0082 1.21794L6.00118 5.22498Z" fill="#2A2B2D"/>
</svg>
