<svg width="60" height="60" viewBox="0 0 60 60" fill="none" xmlns="http://www.w3.org/2000/svg">
<g filter="url(#filter0_bd_625_3738)">
<circle cx="30" cy="30" r="20" fill="white" fill-opacity="0.2" shape-rendering="crispEdges"/>
<circle cx="30" cy="30" r="19.5" stroke="url(#paint0_linear_625_3738)" shape-rendering="crispEdges"/>
</g>
<path d="M35.8808 26.8193C37.2055 27.7109 38 28.4033 38 30.0002C38 31.5972 37.2055 32.2896 35.8808 33.1807V35.8808H33.1807C32.2891 37.2055 31.5967 38 30.0002 38C28.4038 38 27.7109 37.2055 26.8193 35.8808H24.1197V33.1807C22.795 32.2896 22 31.5972 22 30.0002C22 28.4033 22.795 27.7109 24.1197 26.8193V24.1197H26.8193C27.7109 22.795 28.4033 22 30.0002 22C31.5972 22 32.2891 22.795 33.1807 24.1197H35.8808V26.8193Z" stroke="white" stroke-width="2"/>
<defs>
<filter id="filter0_bd_625_3738" x="-10" y="-10" width="80" height="80" filterUnits="userSpaceOnUse" color-interpolation-filters="sRGB">
<feFlood flood-opacity="0" result="BackgroundImageFix"/>
<feGaussianBlur in="BackgroundImageFix" stdDeviation="10"/>
<feComposite in2="SourceAlpha" operator="in" result="effect1_backgroundBlur_625_3738"/>
<feColorMatrix in="SourceAlpha" type="matrix" values="0 0 0 0 0 0 0 0 0 0 0 0 0 0 0 0 0 0 127 0" result="hardAlpha"/>
<feOffset/>
<feGaussianBlur stdDeviation="5"/>
<feComposite in2="hardAlpha" operator="out"/>
<feColorMatrix type="matrix" values="0 0 0 0 0 0 0 0 0 0 0 0 0 0 0 0 0 0 0.06 0"/>
<feBlend mode="normal" in2="effect1_backgroundBlur_625_3738" result="effect2_dropShadow_625_3738"/>
<feBlend mode="normal" in="SourceGraphic" in2="effect2_dropShadow_625_3738" result="shape"/>
</filter>
<linearGradient id="paint0_linear_625_3738" x1="38.4" y1="7.6" x2="18" y2="33.6" gradientUnits="userSpaceOnUse">
<stop stop-color="white" stop-opacity="0.55"/>
<stop offset="1" stop-color="white" stop-opacity="0"/>
</linearGradient>
</defs>
</svg>
