<svg width="15" height="15" viewBox="0 0 15 15" fill="none" xmlns="http://www.w3.org/2000/svg">
<path d="M1.05417 0.129175L14.3744 4.56901C14.4433 4.59186 14.5036 4.63536 14.547 4.6936C14.5904 4.75185 14.6148 4.82203 14.617 4.89463C14.6191 4.96723 14.5989 5.03875 14.5591 5.09947C14.5192 5.1602 14.4617 5.20721 14.3942 5.23413L8.20834 7.70834L5.07397 13.9771C5.04207 14.0409 4.99164 14.0936 4.92927 14.1283C4.86691 14.163 4.79552 14.178 4.72447 14.1714C4.65341 14.1649 4.586 14.137 4.53107 14.0914C4.47614 14.0459 4.43626 13.9848 4.41663 13.9162L0.60155 0.562675C0.583853 0.500742 0.583382 0.435156 0.600186 0.372976C0.61699 0.310795 0.650433 0.254374 0.696916 0.209785C0.743399 0.165197 0.801162 0.134129 0.863988 0.119925C0.926813 0.105721 0.992323 0.108919 1.05347 0.129175" fill="white"/>
</svg>
