<svg width="37" height="30" viewBox="0 0 37 30" fill="none" xmlns="http://www.w3.org/2000/svg">
<path fill-rule="evenodd" clip-rule="evenodd" d="M14.8948 7.7697e-07H21.9621C25.1209 -3.35087e-05 27.622 -5.06299e-05 29.5794 0.262458C31.5933 0.532561 33.2231 1.10152 34.5086 2.38385C36.2737 4.14442 36.7026 6.56889 36.8378 9.78509L36.8395 9.82653C36.8514 10.1074 36.8635 10.3942 36.8529 10.6358C36.8416 10.8927 36.8018 11.2638 36.5966 11.6304C36.4547 11.8839 36.2646 12.0593 36.1377 12.1642C36.0004 12.2781 35.8478 12.3813 35.7023 12.473C35.4217 12.6501 35.0421 12.8621 34.5971 13.1105L34.5643 13.1289C33.9031 13.4981 33.4626 14.1994 33.4626 15C33.4626 15.8006 33.9031 16.5019 34.5643 16.8711L34.5973 16.8895C35.0421 17.1381 35.4217 17.3499 35.7023 17.527C35.8478 17.6187 36.0004 17.7219 36.1377 17.8358C36.2646 17.9407 36.4547 18.1161 36.5966 18.3696C36.8018 18.7363 36.8416 19.1073 36.8529 19.3642C36.8635 19.6058 36.8514 19.8926 36.8395 20.1735L36.8378 20.2149C36.7026 23.4312 36.2737 25.8555 34.5086 27.6161C33.2231 28.8984 31.5933 29.4674 29.5794 29.7375C27.622 30 25.1207 30 21.9621 30H14.8948C11.7362 30 9.23495 30 7.27756 29.7375C5.26364 29.4674 3.63385 28.8984 2.34832 27.6161C0.583382 25.8555 0.154381 23.4312 0.0191757 20.2149L0.017427 20.1735C0.00556419 19.8926 -0.0065386 19.6058 0.00408998 19.3642C0.0153871 19.1073 0.0551242 18.7363 0.260307 18.3696C0.402319 18.1161 0.592467 17.9407 0.71917 17.8358C0.856553 17.7219 1.00914 17.6187 1.1546 17.527C1.43528 17.3499 1.81489 17.1379 2.25988 16.8895L2.29261 16.8711C2.95381 16.5019 3.39431 15.8006 3.39431 15C3.39431 14.1994 2.95381 13.4981 2.29261 13.1289L2.25985 13.1105C1.81487 12.8621 1.43528 12.6501 1.1546 12.473C1.00914 12.3813 0.856553 12.2781 0.719153 12.1642C0.59245 12.0593 0.402301 11.8839 0.260307 11.6304C0.0551242 11.2638 0.0153871 10.8927 0.00408998 10.6358C-0.0065386 10.3942 0.00556419 10.1074 0.017427 9.82654C0.0180099 9.81271 0.0185929 9.79889 0.0191757 9.78509C0.154381 6.56889 0.583382 4.14442 2.34832 2.38385C3.63385 1.10152 5.26364 0.532561 7.27756 0.262458C9.23495 -5.06299e-05 11.7362 -3.35087e-05 14.8948 7.7697e-07ZM34.2803 19.4301C34.2803 19.4301 34.2806 19.4318 34.281 19.4357L34.2803 19.4301ZM34.2844 19.6731C34.2842 19.6843 34.2839 19.6961 34.2835 19.7081C34.2808 19.8178 34.2755 19.9452 34.2686 20.1069C34.1349 23.2887 33.7002 24.7905 32.6927 25.7955C31.9648 26.5217 30.9676 26.957 29.2375 27.1889C27.471 27.4258 25.1425 27.4286 21.8656 27.4286H14.9914C11.7146 27.4286 9.38598 27.4258 7.61938 27.1889C5.8894 26.957 4.8922 26.5217 4.16434 25.7955C3.1567 24.7905 2.72211 23.2887 2.58832 20.1069C2.58154 19.9452 2.5762 19.8178 2.57339 19.7081C2.57307 19.6961 2.57281 19.6843 2.57257 19.6731C2.78627 19.5411 3.09322 19.3694 3.54635 19.1163C4.98608 18.3123 5.96574 16.7719 5.96574 15C5.96574 13.2281 4.98608 11.6877 3.54635 10.8837C3.0932 10.6307 2.78627 10.4588 2.57257 10.3269C2.57279 10.3156 2.57307 10.304 2.57339 10.2919C2.5762 10.1822 2.58154 10.0548 2.58832 9.89309C2.72211 6.71133 3.1567 5.20953 4.16434 4.20439C4.8922 3.47832 5.8894 3.04308 7.61938 2.81107C9.38598 2.57416 11.7146 2.57143 14.9914 2.57143H21.8656C25.1425 2.57143 27.471 2.57416 29.2375 2.81107C30.9676 3.04308 31.9648 3.47832 32.6927 4.20439C33.7002 5.20953 34.1349 6.71133 34.2686 9.89311C34.2755 10.0548 34.2808 10.1822 34.2835 10.2918C34.2839 10.304 34.2842 10.3156 34.2844 10.3269C34.0706 10.4588 33.7638 10.6307 33.3107 10.8837C31.8709 11.6877 30.8911 13.2281 30.8911 15C30.8911 16.7719 31.8709 18.3123 33.3107 19.1163C33.7638 19.3694 34.0706 19.5411 34.2844 19.6731ZM34.4973 10.1841L34.4954 10.1857C34.5026 10.1791 34.504 10.1785 34.4973 10.1841ZM34.2803 10.5699C34.2803 10.5699 34.2805 10.5679 34.281 10.5643L34.2803 10.5699ZM2.35959 10.1841C2.35288 10.1785 2.35429 10.1791 2.36152 10.1857L2.35959 10.1841ZM2.57593 10.5642C2.57655 10.5679 2.57672 10.5699 2.57672 10.5699L2.57593 10.5642ZM2.57672 19.4301C2.57672 19.4301 2.57655 19.4321 2.57593 19.4357L2.57672 19.4301ZM2.36154 19.8144C2.35429 19.8209 2.35288 19.8214 2.35959 19.8159L2.36154 19.8144ZM34.4954 19.8144L34.4973 19.8159C34.504 19.8214 34.5026 19.8209 34.4954 19.8144ZM24.4804 8.94801C24.9825 9.4501 24.9825 10.2642 24.4804 10.7663L14.1948 21.0519C13.6927 21.5541 12.8786 21.5541 12.3765 21.0519C11.8744 20.5498 11.8744 19.7359 12.3765 19.2338L22.6622 8.94801C23.1643 8.44591 23.9783 8.44591 24.4804 8.94801Z" fill="#2A2B2D"/>
<path d="M24.4286 19.2858C24.4286 20.2326 23.6611 21.0001 22.7143 21.0001C21.7675 21.0001 21 20.2326 21 19.2858C21 18.339 21.7675 17.5715 22.7143 17.5715C23.6611 17.5715 24.4286 18.339 24.4286 19.2858Z" fill="#2A2B2D"/>
<path d="M15.8571 10.7143C15.8571 11.6611 15.0897 12.4286 14.1429 12.4286C13.1961 12.4286 12.4286 11.6611 12.4286 10.7143C12.4286 9.76752 13.1961 9 14.1429 9C15.0897 9 15.8571 9.76752 15.8571 10.7143Z" fill="#2A2B2D"/>
</svg>
