<svg width="32" height="32" viewBox="0 0 32 32" fill="none" xmlns="http://www.w3.org/2000/svg">
<path d="M31.2952 6.72846C30.8152 3.60679 28.3961 1.18481 25.273 0.704775C19.1548 -0.234925 12.8518 -0.234925 6.735 0.704775C3.60606 1.18335 1.17972 3.63152 0.698229 6.79683C0.234198 9.82976 0 12.9267 0 15.9989C0 19.09 0.238562 22.2088 0.706957 25.2665C1.18699 28.3939 3.6337 30.8188 6.79755 31.3018C9.83194 31.7658 12.9289 32 16.0011 32C19.0922 32 22.211 31.7629 25.2686 31.293C28.3976 30.8145 30.8239 28.3663 31.3054 25.201C31.768 22.1681 32.0022 19.0711 32.0022 15.9989C32.0022 12.9063 31.7636 9.78612 31.2952 6.72846ZM28.4194 7.16922C28.4994 7.68561 28.5619 8.20638 28.6274 8.72569H24.729V3.56752C24.7624 3.57188 24.7959 3.57624 24.8293 3.58061C26.6913 3.86717 28.1343 5.30872 28.4194 7.16922ZM10.1825 8.72569V3.20967C11.6342 3.06421 13.0903 2.97257 14.5464 2.93475V8.72569H10.1825ZM17.4557 8.72569V2.93475C18.9118 2.97111 20.3679 3.06275 21.8197 3.20967V8.72569H17.4557ZM7.17576 3.58061C7.20776 3.57479 7.24122 3.57188 7.27322 3.56752V8.72569H3.37478C3.43733 8.2282 3.49842 7.72925 3.57406 7.23467C3.85772 5.364 5.33855 3.86135 7.17576 3.58061ZM28.4281 24.7631C28.143 26.6324 26.6622 28.135 24.8264 28.4172C19.018 29.3075 13.0336 29.3089 7.2354 28.4274C5.36618 28.1423 3.86354 26.66 3.58133 24.8257C3.13621 21.912 2.90929 18.9417 2.90929 15.9989C2.90929 14.5472 2.96457 13.0882 3.07366 11.635H28.9271C29.0362 13.0896 29.0929 14.5472 29.0929 15.9989C29.0929 18.9257 28.8703 21.8742 28.4281 24.7631Z" fill="#2A2B2D"/>
<path d="M19.7109 19.1555L15.347 16.2462C14.9106 15.9407 14.3287 15.9116 13.8632 16.1734C13.3832 16.4207 13.0923 16.9153 13.0923 17.4535V23.2721C13.0923 23.8103 13.3832 24.3049 13.8632 24.5522C14.0814 24.6686 14.3142 24.7268 14.5469 24.7268C14.8233 24.7268 15.1142 24.6395 15.347 24.4795L19.7109 21.5702C20.1182 21.3083 20.3655 20.8429 20.3655 20.3628C20.3655 19.8828 20.1182 19.4173 19.7109 19.1555Z" fill="#2A2B2D"/>
</svg>
