<svg width="24" height="26" viewBox="0 0 24 26" fill="none" xmlns="http://www.w3.org/2000/svg">
<path fill-rule="evenodd" clip-rule="evenodd" d="M11.7 0C6.13626 0 1.46205 4.2084 0.775487 9.7906L0.0467333 15.7159C-0.39661 19.3206 2.37003 22.5333 5.98381 22.5333H6.49839C7.34734 24.5691 9.35658 26 11.7 26C14.0434 26 16.0526 24.5691 16.9016 22.5333H17.4161C21.0299 22.5333 23.7966 19.3206 23.3532 15.7159L22.6245 9.7906C21.9379 4.2084 17.2637 0 11.7 0ZM14.9432 22.5333H8.45671C9.15633 23.5785 10.3478 24.2667 11.7 24.2667C13.0522 24.2667 14.2436 23.5785 14.9432 22.5333ZM2.49587 10.0022C3.07822 5.26721 7.03339 1.73333 11.7 1.73333C16.3666 1.73333 20.3218 5.26721 20.9041 10.0022L21.6329 15.9275C21.953 18.5301 19.9574 20.8 17.4161 20.8H5.98381C3.44257 20.8 1.44701 18.5301 1.7671 15.9275L2.49587 10.0022Z" fill="#2A2B2D"/>
</svg>
