<svg width="31" height="30" viewBox="0 0 31 30" fill="none" xmlns="http://www.w3.org/2000/svg">
<path fill-rule="evenodd" clip-rule="evenodd" d="M9.5766 0.498405C11.1992 0.224637 13.3078 0 15.8582 0C18.4085 0 20.517 0.224637 22.1396 0.498405C22.2028 0.509079 22.2655 0.519572 22.3279 0.529995C23.7374 0.765949 24.909 0.962079 25.8252 2.09034C26.742 3.21961 26.6897 4.49111 26.6262 6.031C26.6232 6.10663 26.6199 6.1829 26.6169 6.25984C26.4899 9.46137 26.0675 13.2419 24.5709 16.2487C23.8143 17.7685 22.7666 19.1253 21.3139 20.0997C19.8543 21.0787 18.0501 21.6279 15.8582 21.6279C13.6662 21.6279 11.862 21.0787 10.4023 20.0997C8.94964 19.1253 7.90192 17.7685 7.14536 16.2487C5.64866 13.2419 5.22639 9.46137 5.09929 6.25984C5.09623 6.1829 5.09309 6.10663 5.08998 6.031C5.02656 4.49111 4.97419 3.21961 5.89109 2.09034C6.80719 0.962079 7.97883 0.765949 9.38844 0.529995C9.4507 0.519572 9.51342 0.509079 9.5766 0.498405ZM15.8582 2.09302C13.4311 2.09302 11.4391 2.30678 9.92482 2.56226C8.24075 2.8464 7.88698 2.9527 7.51596 3.40965C7.15031 3.85998 7.11559 4.2859 7.19066 6.17682C7.31578 9.32842 7.73153 12.7293 9.01907 15.3159C9.65463 16.5927 10.4856 17.6354 11.5682 18.3614C12.6438 19.0829 14.0315 19.5349 15.8582 19.5349C17.6847 19.5349 19.0724 19.0829 20.148 18.3614C21.2307 17.6354 22.0616 16.5927 22.6972 15.3159C23.9847 12.7293 24.4005 9.32842 24.5255 6.17682C24.6006 4.2859 24.5659 3.85998 24.2003 3.40965C23.8293 2.9527 23.4755 2.8464 21.7915 2.56226C20.2771 2.30678 18.2851 2.09302 15.8582 2.09302Z" fill="#2A2B2D"/>
<path fill-rule="evenodd" clip-rule="evenodd" d="M15.8571 19.5349C16.435 19.5349 16.9036 20.0035 16.9036 20.5814V24.7675C16.9036 25.3454 16.435 25.814 15.8571 25.814C15.2791 25.814 14.8105 25.3454 14.8105 24.7675V20.5814C14.8105 20.0035 15.2791 19.5349 15.8571 19.5349Z" fill="#2A2B2D"/>
<path fill-rule="evenodd" clip-rule="evenodd" d="M10.4205 26.3817C10.6488 25.2403 11.651 24.4187 12.815 24.4187H18.8993C20.0633 24.4187 21.0654 25.2403 21.2937 26.3817L21.767 28.7483C21.8285 29.0557 21.749 29.3746 21.5501 29.6171C21.3514 29.8596 21.0544 30.0001 20.7408 30.0001H10.9734C10.6599 30.0001 10.3629 29.8596 10.1641 29.6171C9.96532 29.3746 9.88572 29.0557 9.94721 28.7483L10.4205 26.3817ZM12.815 26.5117C12.6487 26.5117 12.5055 26.6291 12.4729 26.7922L12.2499 27.9071H19.4644L19.2413 26.7922C19.2087 26.6291 19.0656 26.5117 18.8993 26.5117H12.815Z" fill="#2A2B2D"/>
<path fill-rule="evenodd" clip-rule="evenodd" d="M26.6185 6.66659L25.2949 6.22537L25.9569 4.23975L27.2805 4.68097C27.2978 4.68677 27.3152 4.69255 27.3325 4.69831C27.9787 4.91369 28.5451 5.10245 28.9945 5.31149C29.4803 5.53748 29.9255 5.82857 30.2658 6.30077C30.6062 6.77297 30.7415 7.28738 30.8022 7.81969C30.8584 8.31211 30.8584 8.90916 30.8583 9.59032V9.74635C30.8583 9.76194 30.8583 9.77747 30.8583 9.79296C30.8583 10.3536 30.8583 10.8488 30.817 11.263C30.7721 11.7118 30.6727 12.1482 30.4246 12.57C30.1765 12.9916 29.8433 13.2904 29.4727 13.5475C29.1307 13.7849 28.6979 14.0253 28.2077 14.2977L24.041 16.6124L23.0245 14.7828L27.1504 12.4907C27.6935 12.189 28.0336 11.9987 28.2793 11.8281C28.506 11.6708 28.5797 11.5781 28.6207 11.5085C28.6616 11.4389 28.707 11.3293 28.7343 11.0548C28.764 10.7571 28.7653 10.3675 28.7653 9.7463V9.64509C28.7653 8.8929 28.7637 8.41663 28.7227 8.05706C28.6848 7.72424 28.6225 7.60051 28.5678 7.52457C28.5131 7.44862 28.4153 7.35051 28.1117 7.20922C27.7835 7.05656 27.3323 6.90446 26.6185 6.66659Z" fill="#2A2B2D"/>
<path fill-rule="evenodd" clip-rule="evenodd" d="M4.43494 4.68097L5.75861 4.23975L6.42048 6.22537L5.09681 6.66659C4.38322 6.90446 3.93188 7.05656 3.60376 7.20922C3.30004 7.35051 3.20232 7.44862 3.14758 7.52457C3.09284 7.60051 3.03066 7.72424 2.99268 8.05706C2.95163 8.41663 2.95007 8.8929 2.9501 9.64509V9.7463C2.95011 10.3675 2.95132 10.7571 2.98107 11.0548C3.00851 11.3293 3.05373 11.4389 3.09468 11.5085C3.13564 11.5781 3.20945 11.6708 3.43607 11.8281C3.6819 11.9987 4.02191 12.189 4.56491 12.4907L8.69081 14.7828L7.67433 16.6124L3.50769 14.2977C3.01756 14.0253 2.58468 13.7849 2.24274 13.5475C1.87215 13.2904 1.53892 12.9916 1.29078 12.57C1.04263 12.1482 0.943292 11.7118 0.898431 11.263C0.857045 10.8488 0.857059 10.3536 0.857073 9.79294C0.857073 9.77747 0.857073 9.76194 0.857073 9.74635V9.64516C0.857059 9.62681 0.857059 9.60853 0.857059 9.5903C0.857003 8.90914 0.856948 8.31211 0.913152 7.81969C0.97392 7.28738 1.10928 6.77297 1.44961 6.30077C1.78995 5.82857 2.23513 5.53748 2.72092 5.31149C3.17028 5.10245 3.73668 4.91369 4.38291 4.69831C4.4002 4.69255 4.41754 4.68677 4.43494 4.68097Z" fill="#2A2B2D"/>
<path fill-rule="evenodd" clip-rule="evenodd" d="M15.8577 6.67602C15.7767 6.81645 15.6865 6.97817 15.5802 7.16886L15.443 7.41494C15.4333 7.43231 15.423 7.45128 15.4118 7.47161C15.3023 7.67199 15.1207 8.00385 14.8182 8.23354C14.5093 8.46804 14.1377 8.54872 13.9204 8.5959C13.8987 8.60063 13.8784 8.60501 13.86 8.60918L13.5937 8.66946C13.3492 8.72476 13.1501 8.76988 12.9799 8.81266C13.0906 8.94899 13.2345 9.11823 13.4216 9.33702L13.6031 9.54937C13.616 9.56444 13.6301 9.58058 13.645 9.59777C13.7956 9.77124 14.0388 10.0513 14.1512 10.4129C14.2623 10.7703 14.2239 11.1383 14.1998 11.3704C14.1974 11.3936 14.1951 11.4154 14.1931 11.4357L14.1657 11.719C14.1402 11.9817 14.1204 12.1914 14.1073 12.3619C14.2527 12.2979 14.418 12.2217 14.6146 12.1313L14.864 12.0165C14.8811 12.0085 14.9 11.9997 14.9204 11.9901C15.1206 11.8956 15.469 11.7313 15.8577 11.7313C16.2466 11.7313 16.5951 11.8956 16.7953 11.9901C16.8157 11.9997 16.8345 12.0085 16.8517 12.0165L17.101 12.1313C17.2975 12.2217 17.463 12.2979 17.6084 12.3619C17.5951 12.1914 17.5754 11.9817 17.5499 11.719L17.5224 11.4357C17.5204 11.4154 17.5182 11.3936 17.5158 11.3704C17.4916 11.1383 17.4533 10.7703 17.5644 10.4129C17.6769 10.0513 17.9201 9.77124 18.0706 9.59777C18.0856 9.58058 18.0995 9.56444 18.1125 9.54937L18.294 9.33702C18.4811 9.11823 18.625 8.94899 18.7357 8.81266C18.5654 8.76988 18.3663 8.72476 18.122 8.66946L17.8556 8.60918C17.8371 8.60501 17.8168 8.60063 17.7951 8.5959C17.5778 8.54872 17.2062 8.46804 16.8974 8.23354C16.5948 8.00385 16.4134 7.67199 16.3037 7.47161C16.2927 7.45128 16.2822 7.43231 16.2726 7.41494L16.1354 7.16886C16.0291 6.97817 15.939 6.81645 15.8577 6.67602ZM14.4812 4.95296C14.7215 4.63926 15.1577 4.18604 15.8577 4.18604C16.5578 4.18604 16.9941 4.63926 17.2343 4.95296C17.4637 5.25238 17.6944 5.66684 17.9312 6.09176C17.942 6.11107 17.9527 6.13041 17.9636 6.14977L18.1008 6.39584C18.1326 6.45291 18.1576 6.49781 18.1795 6.53622C18.2177 6.54517 18.2619 6.55523 18.3175 6.56777L18.5838 6.62804C18.6056 6.63298 18.6274 6.6379 18.6493 6.64283C19.1067 6.74619 19.5613 6.8489 19.9103 6.98643C20.2955 7.13827 20.8178 7.43399 21.0191 8.0813C21.2169 8.71721 20.9674 9.25584 20.7494 9.60203C20.5477 9.92243 20.2411 10.2807 19.9273 10.6475C19.9132 10.6641 19.899 10.6807 19.8847 10.6973L19.7032 10.9097C19.6551 10.966 19.6188 11.0084 19.5882 11.0451C19.5924 11.0958 19.5981 11.1549 19.6057 11.2338L19.6331 11.5172C19.6352 11.5388 19.6373 11.5604 19.6394 11.5819C19.6871 12.073 19.7332 12.5475 19.7163 12.9272C19.6986 13.3252 19.603 13.9277 19.0629 14.3378C18.5056 14.7608 17.8901 14.6687 17.4997 14.5568C17.1401 14.4538 16.7151 14.2579 16.2871 14.0608C16.2666 14.0513 16.2461 14.0419 16.2257 14.0325L15.9762 13.9176C15.9296 13.8961 15.8912 13.8785 15.8577 13.8633C15.8244 13.8785 15.786 13.8961 15.7393 13.9176L15.4899 14.0325C15.4694 14.0419 15.4489 14.0513 15.4284 14.0608C15.0004 14.2579 14.5756 14.4538 14.2158 14.5568C13.8256 14.6687 13.2101 14.7608 12.6528 14.3378C12.1125 13.9277 12.017 13.3252 11.9993 12.9272C11.9824 12.5475 12.0284 12.073 12.0761 11.5819C12.0782 11.5604 12.0803 11.5388 12.0824 11.5172L12.1099 11.2338C12.1175 11.1549 12.1232 11.0958 12.1274 11.0451C12.0968 11.0084 12.0606 10.966 12.0125 10.9097L11.8309 10.6973C11.8167 10.6807 11.8025 10.6641 11.7883 10.6475C11.4744 10.2807 11.1679 9.92243 10.9662 9.60203C10.7483 9.25584 10.4987 8.71721 10.6965 8.0813C10.8978 7.43399 11.4201 7.13827 11.8054 6.98643C12.1543 6.84892 12.6089 6.74619 13.0663 6.64283C13.0881 6.6379 13.1099 6.63298 13.1318 6.62804L13.3982 6.56777C13.4536 6.55523 13.4979 6.54517 13.536 6.53622C13.5579 6.49781 13.5831 6.45291 13.6149 6.39584L13.752 6.14977C13.7628 6.13041 13.7735 6.11107 13.7844 6.09175C14.0211 5.66683 14.252 5.25238 14.4812 4.95296Z" fill="#2A2B2D"/>
<path fill-rule="evenodd" clip-rule="evenodd" d="M6.43848 28.9535C6.43848 28.3755 6.90702 27.907 7.48499 27.907H24.2292C24.8071 27.907 25.2757 28.3755 25.2757 28.9535C25.2757 29.5314 24.8071 30 24.2292 30H7.48499C6.90702 30 6.43848 29.5314 6.43848 28.9535Z" fill="#2A2B2D"/>
</svg>
