<svg width="34" height="34" viewBox="0 0 34 34" fill="none" xmlns="http://www.w3.org/2000/svg">
<path d="M27.8848 9.97147C27.8848 10.6371 28.2202 11.2534 28.7597 11.6431C30.7142 13.0549 31.8583 14.3764 31.8583 17.0005C31.8583 19.6243 30.7144 20.9459 28.7601 22.3569C28.2203 22.7466 27.8848 23.3631 27.8848 24.0289V26.0266C27.8848 27.1311 26.9894 28.0266 25.8848 28.0266H23.8868C23.2212 28.0266 22.6049 28.3619 22.2152 28.9014C20.8034 30.856 19.482 32 16.8587 32C14.2355 32 12.9134 30.8559 11.5014 28.9014C11.1116 28.3619 10.4953 28.0266 9.82974 28.0266H7.83264C6.72807 28.0266 5.83264 27.1311 5.83264 26.0266V24.0289C5.83264 23.3631 5.49716 22.7466 4.95737 22.3569C3.00289 20.9459 1.85828 19.6243 1.85828 17.0005C1.85828 14.3764 3.00305 13.0549 4.95777 11.6431C5.49734 11.2534 5.83264 10.6371 5.83264 9.97147V7.97436C5.83264 6.86979 6.72807 5.97436 7.83264 5.97436H9.82975C10.4953 5.97436 11.1117 5.63906 11.5014 5.0995C12.9131 3.14477 14.2347 2 16.8587 2C19.4828 2 20.8036 3.14477 22.2152 5.09948C22.6049 5.63907 23.2212 5.97436 23.8868 5.97436H25.8848C26.9894 5.97436 27.8848 6.86979 27.8848 7.97436V9.97147Z" stroke="#2A2B2D" stroke-width="2.5"/>
<path d="M20.0632 15.9626L15.9721 13.2351C15.5629 12.9488 15.0174 12.9215 14.5811 13.167C14.131 13.3988 13.8583 13.8625 13.8583 14.367V19.822C13.8583 20.3265 14.131 20.7902 14.5811 21.022C14.7856 21.1311 15.0038 21.1857 15.222 21.1857C15.4811 21.1857 15.7539 21.1039 15.9721 20.9539L20.0632 18.2264C20.4451 17.9809 20.6769 17.5445 20.6769 17.0945C20.6769 16.6445 20.4451 16.2081 20.0632 15.9626Z" fill="#2A2B2D"/>
</svg>
