<svg width="6" height="11" viewBox="0 0 6 11" fill="none" xmlns="http://www.w3.org/2000/svg">
<path fill-rule="evenodd" clip-rule="evenodd" d="M0.229065 5.77093C0.0823947 5.62422 6.46956e-08 5.42526 6.22217e-08 5.2178C5.97478e-08 5.01035 0.0823947 4.81139 0.229065 4.66467L4.65489 0.238846C4.72706 0.164123 4.81339 0.10452 4.90884 0.0635176C5.0043 0.0225147 5.10696 0.000932253 5.21084 2.95486e-05C5.31472 -0.000873156 5.41774 0.0189222 5.51389 0.0582601C5.61004 0.097598 5.69739 0.155691 5.77085 0.229149C5.84431 0.302607 5.9024 0.389959 5.94174 0.486109C5.98108 0.582258 6.00087 0.68528 5.99997 0.789161C5.99907 0.893043 5.97749 0.995704 5.93648 1.09116C5.89548 1.18661 5.83588 1.27294 5.76115 1.34511L1.88846 5.2178L5.76115 9.0905C5.90367 9.23806 5.98253 9.43568 5.98074 9.64082C5.97896 9.84595 5.89668 10.0422 5.75162 10.1872C5.60657 10.3323 5.41034 10.4146 5.20521 10.4164C5.00007 10.4181 4.80245 10.3393 4.65489 10.1968L0.229065 5.77093Z" fill="white"/>
</svg>
